{"glyphs":{"0":{"ha":733,"x_min":0,"x_max":0,"o":"m 580 -2 b 638 14 600 -2 621 4 b 681 59 656 25 670 40 b 694 109 691 73 693 92 b 665 186 697 137 681 165 b 677 300 673 222 677 262 b 677 709 677 350 677 659 b 665 835 677 751 674 795 b 608 950 655 876 637 918 b 457 1020 571 992 512 1019 b 289 1020 435 1020 310 1022 b 242 1015 273 1019 258 1019 b 130 1016 224 1019 148 1020 b 39 922 83 1005 48 970 b 70 828 34 890 48 852 b 60 709 61 789 60 748 b 64 224 60 642 54 291 b 134 67 73 168 95 108 b 280 2 171 28 227 4 b 478 4 308 1 451 1 b 492 1 481 5 491 1 b 580 -2 506 -3 566 -2 z m 301 225 b 294 228 299 225 294 225 b 285 290 287 248 285 269 b 285 733 285 438 285 586 b 294 796 285 754 287 775 b 435 796 313 797 416 796 b 443 795 437 796 442 798 b 453 733 449 775 453 753 b 453 290 453 584 453 437 b 443 228 453 269 449 248 b 435 225 442 225 437 225 b 301 225 418 227 318 227 z "},"1":{"ha":525,"x_min":0,"x_max":0,"o":"m 419 11 b 473 61 441 20 459 40 b 486 112 483 75 485 95 b 451 193 489 141 472 172 b 454 827 452 405 452 615 b 485 883 468 842 479 862 b 479 946 489 903 485 925 b 440 995 472 966 457 983 b 367 1018 420 1011 392 1018 b 165 1016 338 1018 193 1022 b 147 800 53 997 39 840 b 230 793 172 790 202 793 b 227 193 228 593 228 394 b 203 161 218 183 209 172 b 262 11 178 103 204 33 b 419 11 294 -3 387 -3 z "},"2":{"ha":696,"x_min":0,"x_max":0,"o":"m 642 161 b 540 226 624 200 585 226 b 275 226 452 226 363 226 b 265 290 268 247 265 268 b 265 392 265 324 265 357 b 562 394 304 392 524 390 b 658 504 616 398 658 453 b 658 734 658 582 658 659 b 609 921 658 799 644 866 b 443 1019 572 978 512 1015 b 236 1016 374 1023 304 1023 b 129 969 198 1013 158 995 b 63 877 101 945 80 911 b 48 729 43 833 34 777 b 95 669 53 704 74 684 b 151 653 111 659 132 656 b 207 669 171 652 191 660 b 265 765 242 684 263 728 b 279 796 265 779 266 796 b 416 796 325 795 370 796 b 423 794 418 796 422 796 b 433 733 429 774 433 754 b 433 617 433 694 433 656 b 153 617 339 617 245 617 b 53 561 111 617 74 596 b 41 526 48 549 43 537 b 41 489 38 514 41 502 b 41 265 41 461 39 294 b 73 127 43 218 53 169 b 153 35 91 91 118 56 b 261 1 185 15 223 2 b 541 1 353 0 447 1 b 642 161 623 1 677 85 z "},"3":{"ha":735,"x_min":0,"x_max":0,"o":"m 581 1 b 634 15 599 1 617 8 b 684 64 655 25 672 44 b 697 120 694 79 696 101 b 653 204 698 151 677 183 b 653 817 653 409 653 612 b 696 884 673 835 690 858 b 689 948 700 904 696 927 b 651 997 683 967 667 983 b 484 1012 617 1023 524 1026 l 482 1012 b 425 1020 464 1018 445 1019 b 241 1019 400 1022 268 1022 b 136 977 203 1014 167 999 b 65 883 104 955 80 920 b 36 720 43 833 36 775 b 209 625 36 631 135 576 b 257 687 231 639 250 661 b 262 747 261 706 261 727 b 271 795 262 764 266 779 b 279 796 272 798 276 796 b 419 796 296 796 401 796 b 429 733 426 775 429 754 b 429 620 429 695 429 657 b 344 618 418 620 355 620 b 273 589 317 617 293 605 b 344 394 201 520 245 399 b 429 394 373 392 401 394 b 429 277 429 378 430 293 b 419 225 428 259 425 242 b 278 225 401 227 296 225 b 271 227 275 225 272 225 b 259 319 261 256 264 289 b 43 340 244 434 81 450 b 36 293 38 325 36 308 b 66 137 38 239 45 186 b 129 49 80 103 101 73 b 226 5 157 26 192 12 b 471 7 268 -2 430 -2 b 581 1 506 -5 544 0 z "},"4":{"ha":797,"x_min":0,"x_max":0,"o":"m 651 1 b 707 19 670 3 691 8 b 746 61 724 31 736 46 b 759 118 756 78 757 99 b 722 196 760 147 742 175 b 722 828 722 406 722 617 b 752 873 735 841 746 857 b 700 1008 769 924 746 983 b 579 1022 663 1026 620 1022 b 520 1007 558 1021 539 1016 b 477 962 504 995 488 978 b 464 904 467 945 466 924 b 498 831 463 877 480 851 b 497 698 498 786 498 741 b 487 638 497 677 492 657 b 365 638 470 636 380 638 b 338 638 361 638 342 636 b 328 714 331 662 328 687 b 328 824 328 750 328 786 b 361 871 342 837 354 852 b 309 1005 377 922 355 980 b 187 1019 272 1025 227 1019 b 129 1004 167 1019 146 1015 b 86 960 111 994 97 977 b 73 903 76 944 74 922 b 104 831 72 878 87 851 b 121 582 104 748 97 662 b 182 472 132 542 153 502 b 318 413 217 439 269 416 b 417 412 351 412 384 412 b 498 413 428 412 487 412 b 498 192 498 339 498 265 l 497 190 b 562 2 435 123 473 18 b 651 1 575 1 638 1 z "},"5":{"ha":696,"x_min":0,"x_max":0,"o":"m 403 1 b 551 41 454 3 508 12 b 628 139 586 63 613 101 b 656 287 648 185 656 237 b 656 517 656 363 656 440 b 583 624 656 565 627 607 b 534 629 568 629 551 629 b 264 629 445 629 355 629 b 265 744 264 645 264 730 b 275 796 265 763 269 779 b 540 796 363 796 452 796 b 642 956 623 796 677 882 b 540 1021 624 997 585 1021 b 260 1021 503 1021 295 1022 b 138 977 216 1018 171 1002 b 70 887 108 955 84 921 b 39 743 49 843 42 792 b 39 533 39 716 39 559 b 45 479 39 514 39 496 b 152 405 62 434 104 405 b 432 405 246 405 339 405 b 432 289 432 366 432 326 b 422 228 432 267 429 246 b 415 225 422 225 417 225 b 278 225 369 227 324 227 b 272 228 276 225 274 225 b 258 294 261 248 265 273 b 210 353 250 318 230 338 b 154 368 194 364 173 367 b 98 354 135 370 115 361 b 48 295 74 343 59 319 b 42 230 38 276 41 252 b 129 53 48 164 79 96 b 236 5 159 28 197 8 b 403 1 292 0 347 0 z "},"6":{"ha":747,"x_min":0,"x_max":0,"o":"m 632 7 b 707 113 677 22 707 65 b 707 415 707 214 707 314 b 590 528 707 479 655 528 b 294 528 492 528 393 528 b 294 733 294 597 294 666 b 306 796 294 756 299 777 b 464 798 328 796 442 795 b 471 796 467 798 470 798 b 482 704 481 767 478 734 b 700 683 498 589 660 573 b 705 730 704 698 705 715 b 676 886 704 784 697 837 b 627 962 665 914 648 941 b 499 1021 593 994 546 1015 b 433 1022 491 1021 443 1021 b 274 1019 411 1022 296 1022 b 163 973 234 1014 194 998 b 97 880 133 949 111 915 b 70 713 76 828 70 769 b 70 193 70 541 70 367 b 41 148 58 180 46 165 b 132 1 18 82 63 12 b 225 1 145 0 212 1 b 581 1 344 0 461 1 b 632 7 598 1 616 0 z m 295 225 b 295 304 295 251 295 277 b 483 304 358 304 419 304 b 483 225 483 277 483 251 b 295 225 419 225 358 225 z "},"7":{"ha":779,"x_min":0,"x_max":0,"o":"m 241 3 b 319 164 314 19 354 98 b 678 835 440 388 559 613 b 702 883 687 851 698 866 b 695 946 706 903 702 925 b 657 995 689 966 673 983 b 588 1016 639 1011 612 1016 b 133 1016 532 1018 187 1016 b 58 990 106 1016 78 1007 b 15 894 32 969 12 929 b 27 850 16 879 19 862 b 93 795 42 824 67 803 b 215 791 114 788 194 788 b 400 792 242 795 374 792 b 86 206 295 597 191 401 b 40 129 62 189 46 158 b 46 71 36 110 40 89 b 85 22 53 52 68 36 b 154 1 103 7 130 1 b 241 3 166 1 228 0 z "},"8":{"ha":735,"x_min":0,"x_max":0,"o":"m 170 -2 b 516 -2 285 -2 401 -2 b 540 1 519 -2 537 1 b 621 7 567 1 596 -3 b 694 113 665 22 694 65 b 694 373 694 200 694 287 b 644 587 694 447 683 525 b 661 635 651 603 656 618 b 676 715 663 646 676 702 b 654 866 679 765 670 819 b 598 960 642 901 623 935 b 461 1019 562 995 511 1016 b 261 1019 432 1020 290 1023 b 156 977 224 1014 187 999 b 91 893 128 956 107 925 b 58 719 66 840 58 778 b 66 673 58 704 63 688 b 91 584 70 643 79 613 b 39 378 52 526 39 450 b 39 110 39 289 39 200 b 95 12 39 70 60 32 b 130 0 107 7 119 2 b 170 -2 143 -5 157 -2 z m 264 225 b 265 405 264 248 262 382 b 274 454 265 422 269 439 b 460 455 297 457 438 453 b 470 408 466 440 468 425 b 470 225 471 384 470 248 b 264 225 401 225 332 225 z m 293 792 b 300 795 293 795 297 795 b 440 795 348 795 394 792 b 440 683 454 754 453 722 b 294 681 421 680 313 681 b 293 792 282 716 281 757 z "},"9":{"ha":747,"x_min":0,"x_max":0,"o":"m 473 2 b 582 49 512 8 553 23 b 649 141 613 73 634 106 b 676 308 671 193 676 252 b 676 827 676 481 676 655 b 706 873 689 841 700 855 b 614 1021 728 939 683 1008 b 522 1021 602 1022 534 1021 b 166 1021 403 1022 285 1021 b 114 1015 149 1021 131 1022 b 39 908 69 999 39 956 b 39 607 39 807 39 706 b 156 493 39 542 91 493 b 452 493 254 493 352 493 b 452 287 452 424 452 356 b 441 225 452 266 448 245 b 282 224 418 225 305 227 b 275 225 279 224 276 222 b 264 316 265 255 267 287 b 47 338 248 433 86 448 b 41 291 42 323 41 307 b 69 136 41 238 48 183 b 119 60 82 108 98 81 b 247 1 153 28 201 7 b 313 0 255 1 303 0 b 473 2 335 0 450 0 z m 264 718 b 264 796 264 744 264 769 b 452 796 327 796 389 796 b 452 718 452 769 452 744 b 264 718 389 718 327 718 z "},"\u0000":{"ha":0,"x_min":0,"x_max":0,"o":""},"\n":{"ha":0,"x_min":0,"x_max":0,"o":""},"\r":{"ha":0,"x_min":0,"x_max":0,"o":""}," ":{"ha":343,"x_min":0,"x_max":0,"o":""},"!":{"ha":369,"x_min":0,"x_max":0,"o":"m 230 292 b 296 394 271 311 296 349 b 296 823 296 537 296 680 b 330 888 312 841 326 864 b 246 1012 340 941 299 997 b 129 1014 226 1018 149 1017 b 73 986 108 1010 89 1001 b 38 920 56 968 42 945 b 72 825 31 886 48 849 b 72 394 72 682 72 537 b 230 292 72 311 156 257 z m 216 0 b 330 129 285 0 340 60 b 272 211 324 162 302 195 b 100 213 236 230 138 230 b 38 95 58 194 31 143 b 96 14 44 63 66 30 b 216 0 131 -5 176 0 z "},"\"":{"ha":672,"x_min":0,"x_max":0,"o":"m 254 700 b 320 849 262 718 312 830 b 324 913 328 868 326 891 b 267 1000 321 948 298 985 b 94 1003 229 1021 132 1021 b 44 955 73 993 56 975 b 31 903 35 940 32 922 b 65 823 28 875 45 846 b 44 769 56 806 46 788 b 150 639 34 703 84 644 b 254 700 191 638 237 663 z m 571 700 b 637 849 578 718 628 830 b 641 913 645 868 642 892 b 582 1002 638 948 613 985 b 410 1004 546 1021 449 1021 b 361 955 389 995 373 975 b 348 905 351 941 349 923 b 380 825 345 877 362 846 b 361 770 373 807 363 788 b 467 641 351 704 400 645 b 571 700 506 638 554 665 z "},"“":{"ha":672,"x_min":0,"x_max":0,"o":"m 254 700 b 320 849 262 718 312 830 b 324 913 328 868 326 891 b 267 1000 321 948 298 985 b 94 1003 229 1021 132 1021 b 44 955 73 993 56 975 b 31 903 35 940 32 922 b 65 823 28 875 45 846 b 44 769 56 806 46 788 b 150 639 34 703 84 644 b 254 700 191 638 237 663 z m 571 700 b 637 849 578 718 628 830 b 641 913 645 868 642 892 b 582 1002 638 948 613 985 b 410 1004 546 1021 449 1021 b 361 955 389 995 373 975 b 348 905 351 941 349 923 b 380 825 345 877 362 846 b 361 770 373 807 363 788 b 467 641 351 704 400 645 b 571 700 506 638 554 665 z "},"”":{"ha":672,"x_min":0,"x_max":0,"o":"m 254 700 b 320 849 262 718 312 830 b 324 913 328 868 326 891 b 267 1000 321 948 298 985 b 94 1003 229 1021 132 1021 b 44 955 73 993 56 975 b 31 903 35 940 32 922 b 65 823 28 875 45 846 b 44 769 56 806 46 788 b 150 639 34 703 84 644 b 254 700 191 638 237 663 z m 571 700 b 637 849 578 718 628 830 b 641 913 645 868 642 892 b 582 1002 638 948 613 985 b 410 1004 546 1021 449 1021 b 361 955 389 995 373 975 b 348 905 351 941 349 923 b 380 825 345 877 362 846 b 361 770 373 807 363 788 b 467 641 351 704 400 645 b 571 700 506 638 554 665 z "},"#":{"ha":1222,"x_min":0,"x_max":0,"o":"m 259 56 b 374 272 296 128 334 201 b 490 272 413 272 452 272 b 427 150 482 255 434 168 b 454 32 412 110 423 65 b 630 58 507 -19 595 -7 b 745 272 668 129 706 201 b 916 272 803 272 859 272 b 974 288 936 272 957 278 b 1015 327 991 296 1003 312 b 1030 383 1026 342 1029 363 b 991 470 1033 414 1013 448 b 939 495 977 483 957 490 b 865 497 928 498 876 497 b 905 572 879 522 893 547 b 1055 574 928 572 1034 571 b 1093 588 1069 577 1082 581 b 1132 627 1109 598 1123 612 b 1148 683 1144 644 1146 663 b 1134 739 1151 703 1142 722 b 1076 790 1124 763 1099 778 b 1026 797 1061 797 1043 797 b 1062 865 1038 819 1051 843 b 1055 961 1075 895 1068 931 b 978 1015 1041 989 1008 1007 b 859 961 936 1027 880 998 b 772 797 829 906 801 851 b 654 797 733 797 693 797 b 689 865 667 819 679 841 b 675 969 705 896 696 941 b 499 976 633 1029 546 1032 b 400 797 480 954 414 823 b 246 797 349 797 297 797 b 189 781 225 797 206 791 b 148 742 172 773 159 757 b 132 686 137 726 134 705 b 146 630 130 666 138 647 b 187 588 155 612 170 599 b 280 572 212 569 249 572 b 239 497 266 547 253 522 b 127 497 201 497 165 497 b 69 481 107 497 86 491 b 29 442 52 473 40 457 b 13 386 17 425 15 405 b 27 330 12 366 20 346 b 120 272 43 297 83 276 b 55 152 97 233 75 192 b 54 74 44 128 48 98 b 103 15 61 49 82 30 b 159 -1 118 4 139 1 b 259 56 197 -4 240 23 z m 494 497 b 535 572 507 522 521 547 b 651 572 573 572 612 572 b 611 497 637 547 625 522 b 494 497 571 497 532 497 z "},"$":{"ha":697,"x_min":0,"x_max":0,"o":"m 446 -102 b 480 -54 463 -91 473 -71 b 485 10 490 -35 487 -11 b 564 49 513 19 542 31 b 629 138 593 72 615 104 b 656 286 648 184 656 236 b 656 516 656 362 656 439 b 584 623 656 564 627 606 b 535 629 568 629 551 629 b 264 629 445 629 355 629 b 265 743 264 644 264 729 b 275 795 265 762 270 779 b 425 795 293 795 406 797 b 435 735 431 776 428 753 b 586 672 457 673 528 644 b 652 776 629 690 652 729 b 635 873 652 808 647 842 b 473 1016 610 948 551 1000 b 276 1069 456 1110 338 1143 b 253 1018 264 1055 257 1037 b 125 967 206 1016 159 997 b 70 887 101 944 83 916 b 39 742 49 842 42 791 b 39 532 39 716 39 558 b 45 478 39 514 39 495 b 152 404 62 434 104 404 b 432 404 245 404 339 404 b 432 288 432 365 432 326 b 422 227 432 267 429 246 b 415 225 422 225 416 225 b 278 225 369 226 324 226 b 272 227 276 225 273 225 b 258 293 261 247 265 272 b 210 352 250 317 230 337 b 154 368 194 363 172 366 b 98 353 135 369 115 361 b 48 295 74 342 59 318 b 42 229 38 275 41 251 b 129 52 48 163 78 96 b 236 4 159 27 196 7 b 262 2 244 3 254 3 b 269 -53 264 -17 264 -36 b 376 -128 286 -97 330 -128 b 446 -102 401 -128 426 -116 z "},"%":{"ha":1225,"x_min":0,"x_max":0,"o":"m 324 471 b 412 499 355 473 387 482 b 474 581 441 517 462 548 b 491 673 485 610 490 641 b 490 837 491 693 490 816 b 482 871 490 848 485 860 b 429 978 476 910 457 949 b 348 1017 407 997 377 1011 b 167 1017 318 1022 196 1022 b 84 978 138 1011 107 999 b 25 851 51 945 34 896 b 24 791 24 841 23 801 b 27 651 27 773 25 669 b 81 518 32 603 48 553 b 198 471 111 488 156 474 b 324 471 215 470 308 471 z m 206 634 b 202 635 205 634 202 634 b 195 686 196 652 195 669 b 193 822 195 731 193 777 b 201 857 193 833 196 846 b 206 857 202 858 205 857 b 307 857 220 857 295 857 b 313 856 310 857 311 857 b 320 802 318 839 320 819 b 321 679 321 787 321 694 b 314 635 321 663 318 649 b 308 634 313 633 310 634 b 206 634 295 634 220 634 z m 435 7 b 482 39 453 11 470 25 b 517 97 491 46 512 87 b 917 846 651 346 784 596 b 931 923 930 870 935 898 b 907 975 928 941 918 959 b 861 1009 896 990 878 1000 b 784 1010 837 1020 808 1016 b 736 976 766 1004 749 990 b 701 919 728 969 705 929 b 301 170 568 669 435 420 b 287 93 289 147 283 118 b 311 41 290 75 300 56 b 358 7 323 25 341 16 b 435 7 381 -3 411 0 z m 1034 3 b 1172 88 1092 4 1144 35 b 1199 199 1189 122 1198 161 b 1198 368 1200 220 1199 346 b 1192 404 1198 380 1193 391 b 1133 512 1184 443 1164 485 b 1032 550 1105 536 1067 548 b 899 550 987 551 942 551 b 784 499 857 548 812 530 b 735 382 756 467 742 424 b 734 321 734 372 732 331 b 736 181 736 303 734 199 b 791 49 740 133 757 83 b 906 2 819 18 865 4 b 1034 3 923 2 1017 2 z m 916 164 b 910 167 914 164 911 164 b 903 216 904 182 903 199 b 903 352 903 262 903 307 b 910 387 902 365 906 376 b 916 387 910 389 913 387 b 1017 387 928 387 1004 387 b 1021 386 1018 387 1021 387 b 1029 332 1028 369 1028 351 b 1031 209 1029 317 1031 225 b 1022 166 1031 195 1028 180 b 1017 164 1022 164 1018 164 b 916 164 1004 166 928 166 z "},"&":{"ha":882,"x_min":0,"x_max":0,"o":"m 629 -143 b 694 -41 670 -123 694 -85 b 690 453 694 28 698 387 b 736 460 705 453 721 455 b 782 492 753 467 768 480 b 808 546 796 506 802 526 b 788 631 815 574 805 607 b 695 677 767 661 733 677 b 488 677 670 677 515 677 b 294 680 423 680 359 683 b 293 791 282 715 280 756 b 300 794 293 794 297 794 b 467 797 325 794 443 791 b 551 927 524 811 562 869 b 466 1017 543 971 508 1007 b 422 1021 452 1021 436 1020 b 261 1018 400 1021 283 1021 b 156 976 224 1013 187 999 b 91 892 128 955 107 924 b 58 718 66 839 58 777 b 66 672 58 703 63 687 b 91 584 70 643 79 612 b 39 377 52 525 39 449 b 39 110 39 288 39 199 b 95 11 39 69 60 31 b 130 -1 107 6 119 2 b 170 -3 143 -5 157 -3 b 470 -3 269 -3 370 -3 b 477 -80 470 -28 468 -56 b 629 -143 499 -142 571 -171 z m 264 225 b 265 404 264 247 262 382 b 274 452 265 421 269 436 b 286 455 275 456 282 455 b 460 453 309 456 438 453 b 470 407 466 439 468 422 b 470 225 471 383 470 247 b 264 225 401 225 332 225 z "},"'":{"ha":356,"x_min":0,"x_max":0,"o":"m 254 700 b 320 849 262 718 311 830 b 324 913 328 868 325 891 b 267 1000 321 948 297 985 b 94 1003 229 1021 132 1021 b 44 955 73 993 56 975 b 31 903 35 940 32 922 b 65 823 28 875 45 846 b 44 769 56 806 46 788 b 150 639 34 703 84 644 b 254 700 191 638 237 663 z "},"‘":{"ha":356,"x_min":0,"x_max":0,"o":"m 254 700 b 320 849 262 718 311 830 b 324 913 328 868 325 891 b 267 1000 321 948 297 985 b 94 1003 229 1021 132 1021 b 44 955 73 993 56 975 b 31 903 35 940 32 922 b 65 823 28 875 45 846 b 44 769 56 806 46 788 b 150 639 34 703 84 644 b 254 700 191 638 237 663 z "},"’":{"ha":356,"x_min":0,"x_max":0,"o":"m 254 700 b 320 849 262 718 311 830 b 324 913 328 868 325 891 b 267 1000 321 948 297 985 b 94 1003 229 1021 132 1021 b 44 955 73 993 56 975 b 31 903 35 940 32 922 b 65 823 28 875 45 846 b 44 769 56 806 46 788 b 150 639 34 703 84 644 b 254 700 191 638 237 663 z "},"(":{"ha":411,"x_min":0,"x_max":0,"o":"m 338 202 b 277 226 322 216 299 223 b 267 283 271 244 267 264 b 267 732 267 433 267 582 b 277 795 267 753 270 775 b 340 820 299 798 323 805 b 365 850 348 829 358 839 b 288 1018 407 913 364 1005 b 139 976 238 1025 181 1007 b 69 879 108 952 83 916 b 42 712 48 826 42 768 b 47 223 42 645 37 290 b 117 66 55 167 78 107 b 263 2 153 27 209 3 b 338 202 372 -1 421 131 z "},")":{"ha":410,"x_min":0,"x_max":0,"o":"m 283 55 b 346 153 311 81 332 116 b 367 299 362 199 367 250 b 367 712 369 349 367 662 b 335 893 367 774 360 839 b 255 986 317 930 290 965 b 156 1018 226 1004 191 1017 b 83 1003 130 1021 104 1017 b 47 969 70 993 56 983 b 132 795 3 898 47 805 l 133 795 b 143 732 140 774 143 753 b 143 283 143 582 143 432 b 133 226 143 264 139 244 b 71 201 111 223 87 216 b 45 171 62 192 52 182 b 29 115 35 154 31 135 b 43 59 28 96 35 76 b 84 17 53 42 69 28 b 283 55 139 -19 234 10 z "},"*":{"ha":400,"x_min":0,"x_max":0,"o":"m 252 745 b 329 822 303 715 357 771 b 329 931 385 837 385 916 b 255 1008 357 980 303 1038 b 147 1007 241 1063 162 1062 b 70 930 96 1036 42 980 b 70 822 14 915 14 836 b 144 743 42 773 96 715 b 252 745 158 690 238 691 z "},"+":{"ha":829,"x_min":0,"x_max":0,"o":"m 524 142 b 526 279 527 160 526 260 b 663 281 545 279 645 278 b 750 352 704 288 736 316 b 663 502 774 418 732 490 b 527 504 645 505 547 504 b 526 640 527 523 529 621 b 461 722 520 677 496 707 b 306 641 395 755 318 713 b 303 504 301 621 303 523 b 165 502 283 504 184 505 b 79 429 125 495 93 467 b 74 373 73 412 72 392 b 98 320 76 354 87 335 b 164 281 112 299 139 288 b 301 279 184 275 280 279 b 303 142 301 260 300 162 b 367 59 309 105 332 76 b 524 142 433 28 510 69 z "},",":{"ha":351,"x_min":0,"x_max":0,"o":"m 251 -91 b 317 58 260 -73 309 40 b 321 122 325 79 323 101 b 264 211 318 157 295 194 b 91 213 226 230 129 230 b 41 164 70 204 53 184 b 28 114 32 150 29 132 b 62 34 25 86 42 55 b 41 -21 53 16 43 -1 b 147 -150 31 -87 81 -146 b 251 -91 188 -153 234 -126 z "},"-":{"ha":879,"x_min":0,"x_max":0,"o":"m 844 352 b 737 504 870 426 816 504 b 141 504 538 504 340 504 b 35 429 93 504 50 474 b 141 279 8 356 63 279 b 737 279 340 279 538 279 b 844 352 783 279 827 309 z "},".":{"ha":350,"x_min":0,"x_max":0,"o":"m 207 0 b 321 129 276 0 330 60 b 263 211 315 162 292 195 b 90 213 225 230 128 230 b 29 95 48 194 22 143 b 86 14 33 63 57 30 b 207 0 121 -5 166 0 z "},"/":{"ha":792,"x_min":0,"x_max":0,"o":"m 222 7 b 269 39 241 11 257 25 b 304 97 278 46 300 87 b 704 846 437 346 571 596 b 718 923 716 870 722 898 b 694 975 715 941 705 959 b 648 1009 683 990 665 1000 b 571 1010 624 1020 596 1016 b 523 976 553 1004 537 990 b 488 919 515 969 494 929 b 88 170 355 669 222 420 b 74 93 76 147 70 118 b 98 41 77 75 87 56 b 146 7 109 25 128 16 b 222 7 168 -3 198 0 z "},":":{"ha":358,"x_min":0,"x_max":0,"o":"m 211 495 b 325 624 280 495 335 555 b 267 705 319 656 297 690 b 95 708 230 725 133 725 b 33 591 53 689 26 638 b 91 509 37 558 61 525 b 211 495 126 489 171 495 z m 211 0 b 325 129 280 0 335 60 b 267 211 319 162 297 195 b 95 213 231 230 134 230 b 33 95 53 194 26 143 b 91 14 39 63 61 30 b 211 0 127 -5 171 0 z "},";":{"ha":363,"x_min":0,"x_max":0,"o":"m 213 495 b 326 624 281 495 336 555 b 269 705 321 656 298 690 b 96 708 231 725 134 725 b 35 591 54 689 28 638 b 92 509 39 558 63 525 b 213 495 127 489 172 495 z m 258 -91 b 323 58 265 -73 315 40 b 328 122 332 79 329 101 b 269 211 325 157 300 194 b 96 213 232 230 136 230 b 47 164 75 204 60 184 b 35 114 37 150 36 132 b 67 34 32 86 49 55 b 47 -21 60 16 50 -1 b 154 -150 37 -87 87 -146 b 258 -91 193 -153 241 -126 z "},"<":{"ha":554,"x_min":0,"x_max":0,"o":"m 503 282 b 519 338 514 297 517 318 b 479 424 521 369 502 401 b 394 470 468 435 408 463 b 481 516 423 484 454 497 b 521 600 506 534 519 569 b 482 687 524 633 505 665 b 430 713 470 701 449 707 b 352 699 405 720 376 711 b 85 569 263 655 175 612 b 28 450 45 548 20 498 b 83 372 34 419 55 386 b 367 234 118 355 332 251 b 425 229 385 226 407 227 b 503 282 457 232 485 255 z "},"=":{"ha":750,"x_min":0,"x_max":0,"o":"m 709 635 b 603 787 736 710 681 787 b 145 787 450 787 298 787 b 39 712 98 787 54 756 b 145 562 12 638 67 562 b 604 562 298 562 451 562 b 709 635 650 562 694 592 z m 711 352 b 603 504 737 426 681 504 b 145 504 451 504 298 504 b 39 429 98 504 56 474 b 145 279 12 356 67 279 b 604 279 298 279 451 279 b 711 352 650 279 694 309 z "},">":{"ha":556,"x_min":0,"x_max":0,"o":"m 205 243 b 471 372 293 286 383 330 b 495 391 481 377 488 384 b 526 489 520 416 533 454 b 469 569 520 522 498 554 b 184 707 433 586 220 690 b 126 712 167 715 146 714 b 48 659 95 710 66 686 b 32 603 37 644 34 623 b 72 518 30 572 49 540 b 161 470 83 506 146 477 b 76 425 132 456 103 443 b 35 341 51 408 38 372 b 75 254 32 309 52 276 b 126 229 89 240 108 234 b 205 243 151 222 181 232 z "},"?":{"ha":713,"x_min":0,"x_max":0,"o":"m 214 0 b 328 129 283 0 338 60 b 270 211 322 162 300 195 b 98 213 232 230 136 230 b 36 95 56 194 29 143 b 94 14 40 63 64 30 b 214 0 129 -5 174 0 z m 272 315 b 287 390 286 336 287 365 b 586 392 327 390 547 388 b 680 502 638 396 680 451 b 680 732 680 580 680 657 b 632 919 680 797 666 864 b 465 1017 596 976 534 1013 b 259 1014 397 1021 328 1021 b 151 967 220 1012 181 993 b 87 875 123 943 102 909 b 70 727 66 829 57 775 b 118 667 77 702 98 682 b 174 651 134 657 155 652 b 230 665 193 650 213 658 b 287 763 265 682 286 725 b 301 794 288 777 288 794 b 438 794 347 793 392 794 b 446 791 441 794 444 794 b 455 731 451 772 455 752 b 455 614 455 692 455 654 b 175 614 362 614 269 614 b 77 558 133 614 96 594 b 63 523 70 547 67 535 b 63 486 60 511 63 498 b 64 352 63 467 62 370 b 88 300 67 334 77 316 b 136 267 99 285 118 275 b 193 261 152 258 174 260 b 272 315 224 264 253 289 z "},"@":{"ha":1247,"x_min":0,"x_max":0,"o":"m 976 -1 b 1119 53 1028 2 1083 18 b 1183 152 1149 79 1170 114 b 1205 297 1199 198 1205 248 b 1205 705 1205 346 1205 656 b 1192 832 1205 749 1202 791 b 1118 965 1181 881 1156 931 b 985 1017 1083 997 1032 1015 b 270 1018 895 1020 358 1018 b 92 922 198 1018 131 982 b 42 720 54 864 41 788 b 47 223 42 651 37 290 b 117 65 55 166 78 107 b 254 2 152 28 204 4 b 327 17 280 -1 306 3 b 357 45 338 25 348 34 b 277 225 413 114 366 216 b 267 289 270 246 267 268 b 267 731 267 436 267 584 b 277 794 267 752 270 774 b 964 794 361 794 880 793 b 971 791 967 794 969 794 b 981 729 978 772 981 750 b 981 286 981 582 981 435 b 971 225 981 267 978 244 b 964 223 969 223 965 223 b 923 223 950 223 937 223 b 923 448 923 298 923 373 b 917 494 923 463 919 478 b 866 630 911 542 894 591 b 709 714 829 679 770 710 b 508 713 679 715 536 717 b 386 656 463 707 418 687 b 310 491 343 614 319 551 b 309 487 310 490 309 488 b 309 383 303 469 305 401 b 312 375 310 380 310 377 b 362 242 319 327 334 281 b 519 157 399 194 458 162 b 699 157 544 156 673 155 b 700 65 699 143 697 79 b 739 18 706 45 721 28 b 808 0 759 6 784 3 b 976 -1 832 -4 953 -3 z m 539 383 b 540 491 528 417 529 456 b 682 491 557 489 664 491 b 689 489 683 491 688 491 b 688 382 700 455 699 415 b 559 382 671 379 575 382 b 539 383 553 382 542 377 z "},"A":{"ha":724,"x_min":0,"x_max":0,"o":"m 611 3 b 689 56 643 5 671 31 b 705 112 700 73 703 92 b 680 185 708 137 695 164 b 671 196 678 186 671 192 b 671 624 671 248 671 572 b 647 869 671 705 675 792 b 584 967 635 906 612 941 b 455 1019 550 1000 501 1015 b 290 1021 400 1023 344 1021 b 176 994 250 1021 210 1012 b 96 914 142 976 116 946 b 53 718 62 856 53 785 b 53 196 53 544 53 370 b 44 185 53 193 46 188 b 25 74 18 154 11 112 b 57 28 30 56 43 40 b 109 3 71 14 91 7 b 197 0 121 -2 183 0 b 255 15 217 0 238 5 b 295 56 271 25 284 40 b 311 112 306 71 309 92 b 285 183 312 137 299 162 b 277 192 284 185 277 189 b 277 314 277 233 277 273 b 433 314 298 312 412 314 b 447 314 435 314 447 315 b 447 195 447 273 447 234 b 438 185 447 192 440 188 b 419 76 413 156 405 113 b 451 28 426 57 438 42 b 504 4 465 15 485 8 b 611 3 521 -2 594 1 z m 294 538 b 288 540 291 538 288 537 b 278 583 283 554 280 568 b 277 733 277 603 277 714 b 288 796 277 754 280 777 b 292 796 288 798 291 796 b 435 796 312 796 417 798 b 447 732 444 775 447 753 b 445 583 447 712 448 603 b 437 538 444 568 441 552 b 294 538 417 537 312 538 z "},"B":{"ha":729,"x_min":0,"x_max":0,"o":"m 626 7 b 699 113 670 22 699 66 b 699 373 699 200 699 287 b 649 587 699 447 688 526 b 674 681 661 617 670 649 b 681 715 677 693 681 704 b 659 866 684 766 675 819 b 603 960 648 901 628 935 b 467 1019 568 995 516 1016 b 293 1021 443 1021 317 1022 b 235 1012 273 1019 253 1018 b 223 1016 232 1012 225 1015 b 134 1018 210 1019 148 1018 b 77 1004 115 1018 94 1014 b 33 959 58 993 44 976 b 20 901 23 942 22 921 b 71 812 19 875 49 827 b 64 714 65 779 64 747 b 64 193 64 541 64 367 b 34 148 51 181 40 165 b 124 1 12 83 56 12 b 218 1 138 0 204 1 b 573 1 336 0 455 1 b 626 7 591 1 610 0 z m 298 796 b 440 796 316 796 422 796 b 447 795 443 796 445 796 b 445 683 458 760 457 718 b 288 680 426 680 308 681 b 298 796 288 719 287 760 z m 288 226 b 288 457 288 303 288 380 b 354 456 297 457 346 457 b 452 457 386 456 420 456 b 465 454 457 458 464 458 b 475 408 471 440 473 423 b 475 226 476 384 475 248 b 288 226 413 226 350 226 z "},"C":{"ha":671,"x_min":0,"x_max":0,"o":"m 429 2 b 550 44 471 7 516 19 b 621 138 582 68 606 102 b 649 303 642 190 649 246 b 477 397 649 391 551 446 b 429 336 455 382 436 360 b 424 275 425 317 425 296 b 415 228 424 259 419 244 b 407 225 414 225 410 225 b 267 227 389 225 285 227 b 257 284 261 245 257 265 b 257 733 257 434 257 583 b 267 796 257 754 260 777 b 408 796 285 796 390 796 b 415 795 411 796 414 796 b 426 704 425 766 422 733 b 644 683 442 587 605 572 b 649 729 648 697 649 714 b 621 885 648 782 641 837 b 571 960 609 913 592 939 b 435 1019 536 995 484 1016 b 234 1019 407 1021 264 1023 b 125 973 195 1014 156 998 b 59 880 95 949 73 915 b 32 713 38 827 32 769 b 36 224 32 646 27 291 b 107 67 45 168 67 108 b 253 3 143 28 199 4 b 429 2 311 1 370 -2 z "},"D":{"ha":738,"x_min":0,"x_max":0,"o":"m 626 7 b 699 113 670 22 699 66 b 698 730 699 320 702 524 b 646 930 698 799 685 874 b 493 1021 611 981 556 1014 b 427 1022 483 1021 436 1021 b 293 1021 409 1022 309 1022 b 235 1012 273 1019 253 1018 b 222 1017 232 1012 225 1015 b 134 1018 210 1019 148 1018 b 77 1004 114 1018 93 1014 b 33 959 58 993 44 976 b 20 901 23 942 22 921 b 71 812 19 875 49 827 b 64 714 65 779 64 747 b 64 193 64 541 64 367 b 34 148 51 181 40 165 b 124 1 12 83 56 12 b 218 1 138 0 204 1 b 573 1 336 0 455 1 b 626 7 591 1 610 0 z m 288 225 b 288 733 288 395 288 565 b 298 796 288 756 291 777 b 457 798 321 796 436 795 b 464 796 460 798 464 798 b 475 708 474 768 475 737 b 475 226 475 547 475 385 b 288 225 413 226 350 226 z "},"E":{"ha":697,"x_min":0,"x_max":0,"o":"m 218 1 b 569 1 335 0 453 1 b 681 132 639 1 694 63 b 569 226 671 186 625 226 b 289 226 476 226 383 226 b 289 324 289 258 289 291 b 460 326 314 324 434 321 b 447 547 582 356 572 531 b 289 548 425 549 311 549 b 289 733 289 610 289 671 b 298 796 289 756 291 777 b 440 796 317 796 422 796 b 447 795 443 796 446 796 b 458 704 457 766 454 733 b 676 683 474 587 636 572 b 681 729 680 697 681 714 b 652 885 680 782 673 837 b 603 960 641 913 624 939 b 467 1019 568 995 516 1016 b 293 1021 443 1021 317 1022 b 235 1012 273 1019 253 1018 b 223 1016 232 1012 225 1015 b 134 1018 210 1019 148 1018 b 77 1004 115 1018 94 1014 b 33 959 58 993 44 976 b 20 901 23 942 22 921 b 71 812 19 875 49 827 b 64 714 65 779 64 747 b 64 193 64 541 64 367 b 34 148 51 181 40 165 b 124 1 12 83 56 12 b 218 1 138 0 204 1 z "},"F":{"ha":678,"x_min":0,"x_max":0,"o":"m 207 0 b 264 15 227 1 248 5 b 308 60 283 26 297 43 b 321 118 318 77 321 98 b 288 190 322 144 307 171 b 288 324 288 235 288 279 b 459 326 313 324 434 321 b 447 547 581 356 572 531 b 288 548 424 549 311 549 b 288 733 288 610 288 671 b 298 796 288 756 291 777 b 440 796 316 796 422 796 b 447 795 443 796 445 796 b 458 704 457 766 454 733 b 675 683 473 587 636 572 b 681 729 680 697 681 714 b 652 885 680 782 673 837 b 603 960 640 913 624 939 b 466 1019 567 995 516 1016 b 293 1021 443 1021 316 1022 b 235 1012 273 1019 253 1018 b 222 1016 232 1012 225 1015 b 134 1018 210 1019 148 1018 b 77 1004 114 1018 93 1014 b 33 959 58 993 44 976 b 20 901 23 942 22 921 b 71 812 19 875 49 827 b 64 714 65 779 64 747 b 64 193 64 541 64 367 b 34 148 51 181 40 165 b 86 14 16 98 39 39 b 207 0 121 -4 166 0 z "},"G":{"ha":728,"x_min":0,"x_max":0,"o":"m 626 7 b 699 113 670 22 699 66 b 699 360 699 195 699 277 b 607 472 699 416 662 463 b 503 472 591 475 518 474 b 451 454 485 471 467 465 b 413 413 436 444 423 429 b 401 356 403 397 401 376 b 422 297 399 335 410 314 b 475 255 434 277 454 262 b 475 226 475 245 475 235 b 288 226 413 226 350 226 b 288 733 288 395 288 565 b 298 796 288 756 291 777 b 457 798 321 796 436 795 b 464 796 460 798 464 798 b 476 704 474 767 472 735 b 692 683 490 589 653 573 b 698 730 698 698 699 715 b 670 886 698 784 691 837 b 619 962 657 914 640 941 b 493 1021 587 994 539 1015 b 427 1022 483 1021 436 1021 b 293 1021 409 1022 310 1022 b 235 1012 273 1019 253 1018 b 223 1017 232 1012 225 1015 b 134 1018 210 1019 148 1018 b 77 1004 114 1018 93 1014 b 33 959 58 993 44 976 b 20 901 23 942 22 921 b 71 812 19 875 49 827 b 64 714 65 779 64 747 b 64 193 64 541 64 367 b 34 148 51 181 40 165 b 124 1 12 83 56 12 b 218 1 138 0 204 1 b 573 1 336 0 455 1 b 626 7 591 1 610 0 z "},"H":{"ha":736,"x_min":0,"x_max":0,"o":"m 203 0 b 261 15 223 1 244 5 b 304 60 279 26 293 43 b 317 117 315 77 317 98 b 284 190 318 144 303 171 b 284 314 284 231 284 273 b 415 312 303 312 397 312 b 453 314 427 312 440 312 b 453 193 453 273 453 234 b 429 161 443 183 434 172 b 419 115 422 147 420 130 b 477 15 416 81 447 30 b 555 1 500 2 528 1 b 639 8 583 1 613 -2 b 699 61 663 18 684 39 b 712 112 708 75 709 95 b 677 193 715 141 697 172 b 680 827 678 405 678 615 b 711 889 694 844 707 865 b 628 1014 721 942 680 998 b 510 1015 608 1019 531 1018 b 455 987 490 1012 469 1002 b 419 921 439 969 424 946 b 455 823 413 887 430 848 b 454 624 454 757 454 690 b 443 538 454 596 451 566 b 321 538 426 537 336 538 b 296 538 317 538 298 538 b 286 585 290 552 286 569 b 286 830 286 666 286 747 b 317 889 301 847 312 868 b 304 958 319 913 315 938 b 232 1014 289 987 265 1005 b 122 1016 214 1019 140 1019 b 67 994 102 1014 82 1007 b 25 923 46 977 30 949 b 61 823 18 887 36 847 b 60 195 61 613 60 404 b 30 148 47 181 36 167 b 82 14 12 98 35 39 b 203 0 117 -4 162 0 z "},"I":{"ha":343,"x_min":0,"x_max":0,"o":"m 249 11 b 304 61 272 21 291 40 b 317 112 314 75 315 95 b 283 193 319 141 303 172 b 284 827 283 405 284 615 b 317 889 300 844 312 865 b 232 1014 326 942 286 998 b 116 1015 213 1019 136 1018 b 60 987 95 1012 75 1002 b 25 921 43 969 29 946 b 60 823 18 887 36 848 b 59 193 60 613 59 404 b 35 161 49 183 40 172 b 92 11 8 104 35 33 b 249 11 126 -3 217 -3 z "},"J":{"ha":667,"x_min":0,"x_max":0,"o":"m 411 3 b 520 49 450 8 489 24 b 593 160 555 77 579 118 b 613 308 608 208 613 258 b 613 829 613 481 613 655 b 642 874 625 841 636 857 b 590 1008 660 924 638 983 b 470 1022 555 1026 510 1022 b 412 1007 450 1021 429 1017 b 369 962 394 996 380 979 b 356 904 359 945 356 924 b 388 831 355 878 370 851 b 388 289 388 650 388 470 b 378 226 388 266 385 245 b 237 226 360 226 255 226 b 230 227 234 226 231 226 b 219 318 220 256 223 289 b 3 339 203 434 41 450 b -4 293 -3 325 -4 308 b 25 137 -3 239 4 185 b 74 61 36 109 53 82 b 210 3 109 26 161 5 b 411 3 240 1 381 -2 z "},"K":{"ha":731,"x_min":0,"x_max":0,"o":"m 203 -1 b 261 15 223 1 244 5 b 304 60 279 26 293 43 b 317 117 315 76 317 98 b 285 190 318 144 303 170 b 286 316 285 232 285 274 b 297 377 287 337 290 357 b 437 377 314 377 419 377 b 444 375 440 377 444 377 b 453 337 449 363 453 350 b 453 193 453 290 453 241 b 429 161 443 183 435 172 b 419 114 422 147 421 130 b 477 15 416 81 447 30 b 555 1 500 2 528 1 b 639 8 583 1 613 -2 b 700 61 663 18 684 39 b 712 112 708 75 709 95 b 677 193 715 141 697 172 b 676 385 677 258 681 322 b 667 413 674 395 670 403 b 594 547 655 462 631 511 b 679 826 604 582 669 791 b 709 883 693 842 705 862 b 704 946 715 903 711 925 b 666 995 698 966 681 983 b 597 1016 648 1011 621 1016 b 510 1015 585 1016 523 1018 b 447 833 426 997 391 897 b 375 603 423 756 399 679 b 286 601 364 603 297 603 b 286 830 286 677 286 753 b 317 889 301 847 312 868 b 304 958 319 913 315 938 b 232 1014 289 987 265 1005 b 122 1016 214 1019 140 1019 b 67 994 102 1014 82 1007 b 25 923 46 977 30 949 b 61 823 18 887 36 847 b 60 195 61 613 60 404 b 30 148 47 181 36 167 b 82 14 12 98 35 39 b 203 -1 117 -4 162 0 z "},"L":{"ha":664,"x_min":0,"x_max":0,"o":"m 207 1 b 559 1 325 0 441 1 b 671 132 629 1 684 63 b 559 226 661 186 615 226 b 277 226 465 226 371 226 b 277 733 277 395 277 565 b 288 796 277 756 281 777 b 440 796 339 795 389 794 b 500 1000 545 803 584 937 b 416 1022 476 1017 445 1021 b 256 1019 394 1022 278 1022 b 145 973 217 1014 176 998 b 79 880 116 949 93 916 b 53 714 58 829 53 770 b 53 193 53 541 53 367 b 23 148 40 181 29 165 b 115 1 1 83 46 12 b 207 1 127 0 194 1 z "},"M":{"ha":1118,"x_min":0,"x_max":0,"o":"m 591 -3 b 660 17 615 -3 640 4 b 705 74 681 31 697 52 b 712 109 709 85 710 98 b 677 192 714 139 696 170 b 677 711 677 364 677 537 b 675 763 677 728 677 744 b 682 792 675 768 681 788 b 824 793 700 792 806 793 b 831 791 827 793 829 793 b 841 729 838 771 841 750 b 841 189 841 548 841 368 b 817 157 831 179 822 169 b 904 -2 785 88 829 11 b 1003 -2 919 -5 988 -3 b 1048 15 1019 1 1036 7 b 1086 57 1064 26 1076 42 b 1100 108 1096 73 1097 91 b 1065 190 1102 137 1085 168 b 1065 709 1065 363 1065 535 b 1029 896 1065 772 1058 840 b 943 988 1010 934 981 969 b 867 1014 919 1001 894 1009 b 650 1015 834 1019 684 1019 b 563 986 619 1011 590 1001 b 462 1016 532 1002 497 1015 b 288 1018 438 1018 312 1019 b 235 1011 270 1018 252 1015 b 133 1015 220 1015 150 1015 b 60 986 107 1014 78 1004 b 25 920 43 967 29 945 b 68 815 18 882 39 838 b 60 711 61 781 60 746 b 60 192 60 538 60 364 b 30 147 47 179 36 164 b 82 12 12 95 35 38 b 203 -2 117 -7 162 -3 b 260 12 222 -2 243 3 b 304 57 278 24 292 40 b 316 115 315 74 316 95 b 284 189 318 141 302 168 b 284 732 284 370 284 551 b 294 794 284 753 288 774 b 436 795 342 792 388 794 b 443 792 438 795 441 795 b 450 764 444 788 450 768 b 448 711 450 757 448 716 b 448 190 448 537 448 363 b 419 146 436 178 424 162 b 471 11 400 94 423 36 b 591 -3 506 -9 550 -3 z "},"N":{"ha":731,"x_min":0,"x_max":0,"o":"m 203 -1 b 260 15 222 1 243 5 b 304 60 278 26 292 43 b 316 117 315 77 316 98 b 284 190 318 144 302 171 b 284 733 284 371 284 552 b 294 796 284 755 288 777 b 436 796 312 796 417 796 b 443 795 438 796 441 796 b 452 732 450 775 452 753 b 452 193 452 552 452 373 b 429 161 443 183 434 172 b 516 2 398 92 441 15 b 615 2 531 0 600 0 b 660 19 632 5 647 11 b 699 61 675 29 688 45 b 712 112 708 75 709 95 b 677 193 715 141 696 172 b 677 712 677 367 677 540 b 642 900 677 777 670 843 b 556 991 622 936 593 972 b 462 1019 527 1007 494 1018 b 288 1021 438 1021 312 1022 b 235 1014 270 1019 252 1018 b 133 1018 220 1018 150 1018 b 60 988 107 1016 78 1007 b 25 923 43 970 29 946 b 68 817 18 885 39 841 b 60 714 61 784 60 749 b 60 193 60 541 60 367 b 30 148 47 181 36 165 b 82 14 12 98 35 39 b 203 -1 117 -4 162 0 z "},"O":{"ha":682,"x_min":0,"x_max":0,"o":"m 447 4 b 557 49 486 9 526 25 b 627 154 589 75 613 115 b 649 300 644 200 649 251 b 649 709 649 350 649 659 b 637 836 649 751 647 795 b 581 950 627 876 609 918 b 429 1021 544 993 484 1019 b 234 1019 401 1021 262 1022 b 125 973 195 1014 156 998 b 60 885 97 950 76 918 b 32 721 39 834 31 777 b 36 224 32 652 27 293 b 107 67 45 168 67 108 b 252 3 143 28 199 4 b 447 4 280 1 419 0 z m 274 225 b 266 228 271 225 268 225 b 257 290 259 248 257 269 b 257 733 257 439 257 586 b 266 796 257 754 259 775 b 408 796 285 798 390 796 b 415 795 410 796 414 798 b 425 733 422 775 425 753 b 425 290 425 585 425 437 b 415 228 425 269 422 248 b 408 226 414 226 410 226 b 274 225 390 227 290 227 z "},"P":{"ha":681,"x_min":0,"x_max":0,"o":"m 207 0 b 264 15 227 1 248 5 b 308 60 283 26 297 43 b 320 118 318 77 320 98 b 288 191 322 144 307 171 b 288 457 288 280 288 369 b 462 458 315 454 436 454 b 507 467 478 461 493 463 b 587 506 537 475 565 487 b 654 601 617 530 640 565 b 677 691 666 630 670 662 b 679 773 684 718 682 746 b 619 942 672 831 656 894 b 466 1019 583 986 524 1017 b 292 1021 442 1021 316 1022 b 235 1012 273 1019 253 1018 b 222 1017 232 1012 225 1015 b 134 1018 210 1019 148 1018 b 77 1004 114 1018 93 1014 b 33 959 58 993 44 976 b 20 901 23 942 22 921 b 71 812 19 875 49 827 b 64 714 65 779 64 747 b 64 193 64 541 64 367 b 34 148 51 181 40 165 b 86 14 16 98 39 39 b 207 0 121 -4 166 0 z m 298 796 b 440 796 316 796 422 796 b 447 795 443 796 445 796 b 445 683 458 760 457 718 b 288 680 426 680 308 681 b 298 796 288 719 287 760 z "},"Q":{"ha":700,"x_min":0,"x_max":0,"o":"m 568 1 b 627 17 589 1 609 7 b 669 62 644 26 659 43 b 681 112 679 76 680 95 b 625 210 686 144 655 195 b 647 367 644 261 647 314 b 647 704 647 479 647 592 b 635 836 647 749 645 792 b 579 950 625 876 607 918 b 426 1021 541 993 482 1019 b 233 1019 400 1021 259 1022 b 128 977 196 1014 159 1000 b 62 893 100 956 77 925 b 31 746 41 847 32 795 b 30 355 28 697 30 404 b 66 174 28 293 38 228 b 142 90 84 140 109 109 b 250 56 174 70 213 57 b 407 56 303 55 355 55 b 438 21 415 42 425 29 b 568 1 474 -4 524 1 z m 271 280 b 264 282 269 280 265 279 b 254 345 258 301 254 324 b 254 719 254 470 254 594 b 265 796 254 746 257 771 b 406 796 283 798 387 796 b 414 795 408 796 412 798 b 422 735 419 775 422 754 b 422 345 422 604 422 474 b 412 282 422 324 419 301 b 405 280 412 279 408 280 b 271 280 388 280 289 280 z "},"R":{"ha":728,"x_min":0,"x_max":0,"o":"m 207 0 b 265 15 227 1 248 5 b 308 60 283 26 297 43 b 321 117 318 77 321 98 b 288 190 322 144 307 171 b 288 457 288 280 288 368 b 367 455 298 455 357 455 b 370 450 370 455 370 453 b 451 186 398 362 424 275 b 433 161 444 178 437 169 b 481 15 409 109 431 42 b 601 1 517 -5 560 1 b 660 17 622 1 642 7 b 703 61 677 26 692 43 b 716 112 712 75 713 95 b 682 192 717 140 702 171 b 587 506 673 231 600 467 b 654 601 617 531 640 565 b 677 691 666 630 670 662 b 679 773 684 718 682 746 b 619 942 672 831 656 894 b 466 1019 583 986 524 1017 b 292 1021 442 1021 316 1022 b 235 1012 273 1019 253 1018 b 222 1017 232 1012 225 1015 b 134 1018 210 1019 148 1018 b 76 1004 114 1018 93 1014 b 33 959 58 993 44 976 b 20 901 23 942 22 921 b 71 812 19 875 49 827 b 64 714 65 779 64 747 b 64 193 64 541 64 367 b 34 148 51 181 40 165 b 86 14 16 98 39 39 b 207 0 121 -4 166 0 z m 298 796 b 440 796 316 796 422 796 b 447 795 443 796 445 796 b 445 683 458 760 457 718 b 288 680 426 680 308 681 b 298 796 288 719 287 760 z "},"S":{"ha":674,"x_min":0,"x_max":0,"o":"m 391 1 b 540 41 443 3 496 13 b 617 139 575 63 601 101 b 645 287 636 185 645 237 b 645 517 645 363 645 440 b 572 624 645 565 615 607 b 523 630 556 630 540 630 b 252 630 433 630 343 630 b 253 744 252 645 252 730 b 263 796 253 763 258 780 b 413 796 282 796 394 798 b 423 736 419 777 416 754 b 575 673 446 674 516 645 b 640 777 617 691 640 730 b 607 911 639 823 629 871 b 528 991 589 944 561 973 b 413 1021 495 1011 453 1018 b 231 1019 387 1022 256 1022 b 120 973 192 1014 151 998 b 59 888 94 951 73 920 b 28 743 38 843 30 792 b 28 533 28 717 28 560 b 33 480 28 515 28 496 b 140 405 50 435 92 405 b 420 405 234 405 328 405 b 420 289 420 366 420 327 b 411 228 420 268 418 247 b 403 226 411 226 405 226 b 266 226 357 227 312 227 b 260 228 264 226 262 226 b 246 294 249 248 253 273 b 199 353 238 318 218 338 b 143 369 182 364 161 367 b 87 355 123 370 103 362 b 36 296 63 343 47 319 b 30 230 26 276 29 252 b 117 53 36 164 67 97 b 224 5 147 28 185 8 b 391 1 280 0 335 0 z "},"T":{"ha":767,"x_min":0,"x_max":0,"o":"m 462 11 b 517 61 486 21 505 40 b 531 112 527 75 528 95 b 496 193 534 141 516 172 b 498 796 498 395 498 596 b 537 796 503 796 531 796 b 548 704 547 767 544 734 b 765 682 563 589 726 573 b 771 730 770 698 771 713 b 743 886 770 782 763 837 b 672 979 728 921 704 956 b 534 1021 634 1007 583 1021 b 223 1022 496 1021 261 1022 b 88 974 175 1022 125 1005 b 18 871 56 948 32 910 b -4 725 1 824 -4 774 b 213 681 -4 598 165 565 b 220 746 221 701 220 725 b 230 796 221 764 224 781 b 273 796 245 796 259 796 b 272 193 273 596 273 394 b 248 161 262 183 254 172 b 307 11 221 104 249 33 b 462 11 339 -3 430 -3 z "},"U":{"ha":731,"x_min":0,"x_max":0,"o":"m 488 5 b 577 44 520 12 551 25 b 649 138 610 67 633 102 b 677 301 670 189 677 246 b 677 828 677 366 677 764 b 711 892 694 845 706 868 b 628 1016 720 946 680 1002 b 510 1018 608 1022 531 1022 b 455 991 490 1015 469 1005 b 419 925 439 973 425 949 b 453 828 413 892 429 854 b 453 288 453 649 453 469 b 443 227 453 268 450 246 b 434 225 441 224 437 225 b 294 225 418 225 312 225 b 284 289 287 247 284 268 b 284 831 284 470 284 650 b 317 893 300 848 312 871 b 309 951 319 913 315 932 b 270 1000 302 970 287 987 b 202 1022 252 1015 227 1021 b 116 1019 189 1022 129 1022 b 25 925 68 1009 33 973 b 60 829 18 892 35 852 b 60 308 60 655 60 482 b 68 205 60 273 61 240 b 31 153 52 192 38 172 b 82 18 12 101 35 43 b 203 4 117 -2 162 4 b 237 8 209 4 231 10 b 488 5 279 -3 444 -3 z "},"V":{"ha":811,"x_min":0,"x_max":0,"o":"m 508 0 b 620 132 578 0 632 63 b 583 196 615 155 601 178 b 778 806 648 399 714 603 b 784 827 780 810 781 824 b 816 889 799 844 812 865 b 809 946 819 907 815 928 b 771 996 802 966 787 983 b 702 1017 752 1011 726 1017 b 632 1017 679 1017 656 1018 b 551 833 538 1014 489 904 b 404 370 502 679 453 524 b 258 831 355 524 307 679 b 279 868 266 843 275 855 b 227 1003 296 920 273 977 b 105 1017 191 1022 146 1017 b 48 1001 85 1017 65 1012 b 4 956 29 991 15 974 b -8 906 -4 942 -7 923 b 24 826 -11 878 6 848 b 31 806 27 823 29 809 b 229 183 97 599 163 391 b 300 1 171 116 212 12 b 508 0 328 -3 479 0 z "},"W":{"ha":1343,"x_min":0,"x_max":0,"o":"m 1040 0 b 1153 132 1111 0 1164 63 b 1116 196 1148 155 1133 178 b 1311 806 1181 399 1247 603 b 1317 827 1311 810 1314 824 b 1349 889 1332 844 1345 865 b 1342 946 1352 907 1348 928 b 1303 996 1335 966 1319 983 b 1234 1017 1284 1011 1259 1017 b 1165 1017 1212 1017 1189 1018 b 1084 833 1071 1014 1022 904 b 937 370 1035 679 986 524 b 789 831 888 524 838 679 b 702 1018 852 906 799 1017 b 632 1017 679 1018 656 1018 b 551 833 538 1014 489 904 b 404 371 502 679 453 524 b 258 833 355 524 307 679 b 279 868 266 843 275 855 b 227 1003 296 920 273 977 b 105 1017 191 1022 146 1017 b 48 1001 85 1017 65 1012 b 4 958 29 991 15 974 b -8 906 -4 942 -7 924 b 24 827 -11 878 6 848 b 31 806 27 824 29 809 b 229 183 97 599 163 391 b 300 1 171 116 212 12 b 508 0 328 -3 479 0 b 620 132 578 0 632 63 b 583 196 615 155 601 178 b 670 468 613 287 641 377 b 761 183 701 373 730 279 b 833 1 704 116 744 12 b 1040 0 861 -3 1012 0 z "},"X":{"ha":686,"x_min":0,"x_max":0,"o":"m 561 1 b 619 15 581 1 602 5 b 662 60 637 26 651 43 b 675 112 672 75 673 94 b 644 189 678 138 662 168 b 633 214 641 192 634 210 b 474 509 579 312 528 411 b 634 809 528 608 581 708 b 644 828 637 812 642 827 b 675 889 659 845 671 866 b 668 946 678 907 673 928 b 628 995 661 966 645 983 b 560 1016 610 1011 584 1016 b 474 1015 547 1016 487 1018 b 384 927 428 1005 394 972 b 400 845 377 900 384 868 b 348 747 383 812 365 779 b 288 859 328 784 307 821 b 290 946 300 885 300 918 b 253 995 285 966 268 983 b 184 1016 234 1011 208 1016 b 97 1015 171 1016 110 1018 b 61 807 -4 993 -26 862 b 220 509 114 708 167 608 b 62 210 167 409 114 310 b 56 207 61 209 58 209 b 11 150 37 193 20 172 b 63 15 -5 98 17 40 b 184 1 100 -4 145 0 b 243 15 205 1 226 5 b 286 60 260 26 275 43 b 299 118 296 77 297 98 b 288 158 299 132 295 146 b 348 270 307 196 328 234 b 400 172 365 238 383 206 b 382 115 389 157 384 134 b 440 15 379 76 407 33 b 561 1 476 -4 520 0 z "},"Y":{"ha":717,"x_min":0,"x_max":0,"o":"m 459 3 b 570 49 498 8 539 24 b 643 160 604 77 629 118 b 662 309 658 208 662 258 b 662 829 662 481 662 655 b 692 874 675 842 686 857 b 640 1008 709 924 686 983 b 519 1022 604 1027 560 1022 b 461 1007 498 1021 479 1017 b 417 962 444 996 428 979 b 405 905 407 945 406 924 b 438 832 403 878 420 851 b 431 712 438 792 441 750 b 425 701 430 710 430 702 b 341 702 414 701 353 702 b 280 701 333 702 288 701 b 268 824 266 740 268 782 b 301 871 282 837 294 853 b 249 1005 317 923 295 980 b 127 1019 212 1025 167 1019 b 69 1004 107 1019 86 1015 b 26 960 51 994 37 977 b 13 903 16 944 15 923 b 44 831 12 878 27 851 b 46 726 44 796 43 761 b 123 537 51 659 75 585 b 281 477 163 498 225 477 b 438 478 333 477 386 474 b 438 289 438 415 438 352 b 427 226 438 266 434 245 b 287 226 410 226 304 226 b 280 227 284 226 280 226 b 267 318 270 256 271 289 b 51 339 253 434 90 450 b 45 293 45 325 44 308 b 73 137 45 239 52 185 b 124 61 86 109 103 82 b 259 3 159 26 210 5 b 459 3 288 1 431 -2 z "},"Z":{"ha":722,"x_min":0,"x_max":0,"o":"m 605 1 b 679 28 631 1 658 11 b 721 123 706 50 725 88 b 710 168 720 139 717 156 b 642 224 696 193 671 216 b 520 227 623 230 543 230 b 337 226 495 223 362 226 b 662 836 445 429 554 632 b 686 883 671 851 682 867 b 679 947 690 903 686 925 b 641 996 673 966 656 983 b 572 1017 623 1011 596 1017 b 117 1017 516 1018 171 1017 b 42 990 90 1017 62 1007 b -1 895 16 969 -4 930 b 11 850 0 879 3 862 b 77 795 25 824 51 803 b 199 791 98 788 178 788 b 384 792 226 795 358 792 b 58 182 275 589 167 386 b 35 136 51 167 39 153 b 41 71 31 115 34 92 b 80 22 48 52 63 36 b 149 1 98 8 124 1 b 605 1 204 1 549 1 z "},"[":{"ha":522,"x_min":0,"x_max":0,"o":"m 478 174 b 407 220 462 199 436 215 b 267 222 387 223 286 222 b 267 791 267 412 267 602 b 407 792 286 791 387 790 b 488 951 478 805 519 884 b 386 1015 470 992 431 1015 b 159 1015 310 1015 234 1015 b 42 900 94 1015 42 965 b 42 114 42 638 42 376 b 159 -3 42 52 97 -3 b 386 -3 234 -3 310 -3 b 478 174 477 -3 532 100 z "},"\\":{"ha":792,"x_min":0,"x_max":0,"o":"m 645 7 b 704 55 669 13 688 34 b 704 170 725 87 722 136 b 282 958 563 432 422 696 b 223 1008 269 982 247 1000 b 147 1010 199 1018 171 1015 b 88 961 122 1003 102 982 b 88 846 66 930 70 879 b 509 58 228 584 369 320 b 569 7 522 35 544 16 b 645 7 593 -1 620 0 z "},"]":{"ha":522,"x_min":0,"x_max":0,"o":"m 479 115 b 479 900 479 377 479 638 b 363 1015 479 965 426 1015 b 136 1015 287 1015 211 1015 b 78 1000 116 1015 95 1010 b 38 960 61 991 49 976 b 22 904 26 945 24 924 b 115 792 18 853 63 802 b 255 791 134 790 235 791 b 255 222 255 602 255 412 b 115 220 235 222 134 223 b 33 63 42 208 3 129 b 136 -3 52 23 91 -3 b 363 -3 211 -3 287 -3 b 479 115 426 -3 479 52 z "},"^":{"ha":576,"x_min":0,"x_max":0,"o":"m 229 1076 b 285 1137 239 1084 278 1129 b 348 1078 306 1118 327 1098 b 439 1055 370 1056 408 1050 b 485 1074 456 1056 471 1064 b 515 1223 532 1109 546 1172 b 365 1373 499 1248 384 1349 b 240 1404 334 1407 282 1419 b 191 1367 220 1395 205 1383 b 69 1233 150 1323 110 1278 b 44 1160 52 1213 44 1185 b 119 1056 45 1114 76 1070 b 177 1052 138 1049 157 1049 b 229 1076 195 1053 213 1065 z "},"_":{"ha":804,"x_min":0,"x_max":0,"o":"m 876 -34 b 796 0 855 -11 827 0 b 7 0 533 0 270 0 b -96 -160 -76 0 -131 -84 b 7 -224 -77 -200 -38 -224 b 796 -224 270 -224 533 -224 b 876 -34 897 -224 948 -105 z "},"`":{"ha":464,"x_min":0,"x_max":0,"o":"m 397 1230 b 257 1370 379 1250 277 1352 b 194 1418 237 1387 218 1405 b 167 1426 185 1422 177 1426 b 93 1224 54 1438 -4 1286 b 271 1133 115 1210 247 1144 b 323 1107 278 1129 316 1109 b 397 1230 399 1079 452 1171 z "},"a":{"ha":724,"x_min":0,"x_max":0,"o":"m 611 3 b 689 56 643 5 671 31 b 705 112 700 73 703 92 b 680 185 708 137 695 164 b 671 196 678 186 671 192 b 671 624 671 248 671 572 b 647 869 671 705 675 792 b 584 967 635 906 612 941 b 455 1019 550 1000 501 1015 b 290 1021 400 1023 344 1021 b 176 994 250 1021 210 1012 b 96 914 142 976 116 946 b 53 718 62 856 53 785 b 53 196 53 544 53 370 b 44 185 53 193 46 188 b 25 74 18 154 11 112 b 57 28 30 56 43 40 b 109 3 71 14 91 7 b 197 0 121 -2 183 0 b 255 15 217 0 238 5 b 295 56 271 25 284 40 b 311 112 306 71 309 92 b 285 183 312 137 299 162 b 277 192 284 185 277 189 b 277 314 277 233 277 273 b 433 314 298 312 412 314 b 447 314 435 314 447 315 b 447 195 447 273 447 234 b 438 185 447 192 440 188 b 419 76 413 156 405 113 b 451 28 426 57 438 42 b 504 4 465 15 485 8 b 611 3 521 -2 594 1 z m 294 538 b 288 540 291 538 288 537 b 278 583 283 554 280 568 b 277 733 277 603 277 714 b 288 796 277 754 280 777 b 292 796 288 798 291 796 b 435 796 312 796 417 798 b 447 732 444 775 447 753 b 445 583 447 712 448 603 b 437 538 444 568 441 552 b 294 538 417 537 312 538 z "},"b":{"ha":729,"x_min":0,"x_max":0,"o":"m 626 7 b 699 113 670 22 699 66 b 699 373 699 200 699 287 b 649 587 699 447 688 526 b 674 681 661 617 670 649 b 681 715 677 693 681 704 b 659 866 684 766 675 819 b 603 960 648 901 628 935 b 467 1019 568 995 516 1016 b 293 1021 443 1021 317 1022 b 235 1012 273 1019 253 1018 b 223 1016 232 1012 225 1015 b 134 1018 210 1019 148 1018 b 77 1004 115 1018 94 1014 b 33 959 58 993 44 976 b 20 901 23 942 22 921 b 71 812 19 875 49 827 b 64 714 65 779 64 747 b 64 193 64 541 64 367 b 34 148 51 181 40 165 b 124 1 12 83 56 12 b 218 1 138 0 204 1 b 573 1 336 0 455 1 b 626 7 591 1 610 0 z m 298 796 b 440 796 316 796 422 796 b 447 795 443 796 445 796 b 445 683 458 760 457 718 b 288 680 426 680 308 681 b 298 796 288 719 287 760 z m 288 226 b 288 457 288 303 288 380 b 354 456 297 457 346 457 b 452 457 386 456 420 456 b 465 454 457 458 464 458 b 475 408 471 440 473 423 b 475 226 476 384 475 248 b 288 226 413 226 350 226 z "},"c":{"ha":671,"x_min":0,"x_max":0,"o":"m 429 2 b 550 44 471 7 516 19 b 621 138 582 68 606 102 b 649 303 642 190 649 246 b 477 397 649 391 551 446 b 429 336 455 382 436 360 b 424 275 425 317 425 296 b 415 228 424 259 419 244 b 407 225 414 225 410 225 b 267 227 389 225 285 227 b 257 284 261 245 257 265 b 257 733 257 434 257 583 b 267 796 257 754 260 777 b 408 796 285 796 390 796 b 415 795 411 796 414 796 b 426 704 425 766 422 733 b 644 683 442 587 605 572 b 649 729 648 697 649 714 b 621 885 648 782 641 837 b 571 960 609 913 592 939 b 435 1019 536 995 484 1016 b 234 1019 407 1021 264 1023 b 125 973 195 1014 156 998 b 59 880 95 949 73 915 b 32 713 38 827 32 769 b 36 224 32 646 27 291 b 107 67 45 168 67 108 b 253 3 143 28 199 4 b 429 2 311 1 370 -2 z "},"d":{"ha":738,"x_min":0,"x_max":0,"o":"m 626 7 b 699 113 670 22 699 66 b 698 730 699 320 702 524 b 646 930 698 799 685 874 b 493 1021 611 981 556 1014 b 427 1022 483 1021 436 1021 b 293 1021 409 1022 309 1022 b 235 1012 273 1019 253 1018 b 222 1017 232 1012 225 1015 b 134 1018 210 1019 148 1018 b 77 1004 114 1018 93 1014 b 33 959 58 993 44 976 b 20 901 23 942 22 921 b 71 812 19 875 49 827 b 64 714 65 779 64 747 b 64 193 64 541 64 367 b 34 148 51 181 40 165 b 124 1 12 83 56 12 b 218 1 138 0 204 1 b 573 1 336 0 455 1 b 626 7 591 1 610 0 z m 288 225 b 288 733 288 395 288 565 b 298 796 288 756 291 777 b 457 798 321 796 436 795 b 464 796 460 798 464 798 b 475 708 474 768 475 737 b 475 226 475 547 475 385 b 288 225 413 226 350 226 z "},"e":{"ha":697,"x_min":0,"x_max":0,"o":"m 218 1 b 569 1 335 0 453 1 b 681 132 639 1 694 63 b 569 226 671 186 625 226 b 289 226 476 226 383 226 b 289 324 289 258 289 291 b 460 326 314 324 434 321 b 447 547 582 356 572 531 b 289 548 425 549 311 549 b 289 733 289 610 289 671 b 298 796 289 756 291 777 b 440 796 317 796 422 796 b 447 795 443 796 446 796 b 458 704 457 766 454 733 b 676 683 474 587 636 572 b 681 729 680 697 681 714 b 652 885 680 782 673 837 b 603 960 641 913 624 939 b 467 1019 568 995 516 1016 b 293 1021 443 1021 317 1022 b 235 1012 273 1019 253 1018 b 223 1016 232 1012 225 1015 b 134 1018 210 1019 148 1018 b 77 1004 115 1018 94 1014 b 33 959 58 993 44 976 b 20 901 23 942 22 921 b 71 812 19 875 49 827 b 64 714 65 779 64 747 b 64 193 64 541 64 367 b 34 148 51 181 40 165 b 124 1 12 83 56 12 b 218 1 138 0 204 1 z "},"f":{"ha":678,"x_min":0,"x_max":0,"o":"m 207 0 b 264 15 227 1 248 5 b 308 60 283 26 297 43 b 321 118 318 77 321 98 b 288 190 322 144 307 171 b 288 324 288 235 288 279 b 459 326 313 324 434 321 b 447 547 581 356 572 531 b 288 548 424 549 311 549 b 288 733 288 610 288 671 b 298 796 288 756 291 777 b 440 796 316 796 422 796 b 447 795 443 796 445 796 b 458 704 457 766 454 733 b 675 683 473 587 636 572 b 681 729 680 697 681 714 b 652 885 680 782 673 837 b 603 960 640 913 624 939 b 466 1019 567 995 516 1016 b 293 1021 443 1021 316 1022 b 235 1012 273 1019 253 1018 b 222 1016 232 1012 225 1015 b 134 1018 210 1019 148 1018 b 77 1004 114 1018 93 1014 b 33 959 58 993 44 976 b 20 901 23 942 22 921 b 71 812 19 875 49 827 b 64 714 65 779 64 747 b 64 193 64 541 64 367 b 34 148 51 181 40 165 b 86 14 16 98 39 39 b 207 0 121 -4 166 0 z "},"g":{"ha":728,"x_min":0,"x_max":0,"o":"m 626 7 b 699 113 670 22 699 66 b 699 360 699 195 699 277 b 607 472 699 416 662 463 b 503 472 591 475 518 474 b 451 454 485 471 467 465 b 413 413 436 444 423 429 b 401 356 403 397 401 376 b 422 297 399 335 410 314 b 475 255 434 277 454 262 b 475 226 475 245 475 235 b 288 226 413 226 350 226 b 288 733 288 395 288 565 b 298 796 288 756 291 777 b 457 798 321 796 436 795 b 464 796 460 798 464 798 b 476 704 474 767 472 735 b 692 683 490 589 653 573 b 698 730 698 698 699 715 b 670 886 698 784 691 837 b 619 962 657 914 640 941 b 493 1021 587 994 539 1015 b 427 1022 483 1021 436 1021 b 293 1021 409 1022 310 1022 b 235 1012 273 1019 253 1018 b 223 1017 232 1012 225 1015 b 134 1018 210 1019 148 1018 b 77 1004 114 1018 93 1014 b 33 959 58 993 44 976 b 20 901 23 942 22 921 b 71 812 19 875 49 827 b 64 714 65 779 64 747 b 64 193 64 541 64 367 b 34 148 51 181 40 165 b 124 1 12 83 56 12 b 218 1 138 0 204 1 b 573 1 336 0 455 1 b 626 7 591 1 610 0 z "},"h":{"ha":736,"x_min":0,"x_max":0,"o":"m 203 0 b 261 15 223 1 244 5 b 304 60 279 26 293 43 b 317 117 315 77 317 98 b 284 190 318 144 303 171 b 284 314 284 231 284 273 b 415 312 303 312 397 312 b 453 314 427 312 440 312 b 453 193 453 273 453 234 b 429 161 443 183 434 172 b 419 115 422 147 420 130 b 477 15 416 81 447 30 b 555 1 500 2 528 1 b 639 8 583 1 613 -2 b 699 61 663 18 684 39 b 712 112 708 75 709 95 b 677 193 715 141 697 172 b 680 827 678 405 678 615 b 711 889 694 844 707 865 b 628 1014 721 942 680 998 b 510 1015 608 1019 531 1018 b 455 987 490 1012 469 1002 b 419 921 439 969 424 946 b 455 823 413 887 430 848 b 454 624 454 757 454 690 b 443 538 454 596 451 566 b 321 538 426 537 336 538 b 296 538 317 538 298 538 b 286 585 290 552 286 569 b 286 830 286 666 286 747 b 317 889 301 847 312 868 b 304 958 319 913 315 938 b 232 1014 289 987 265 1005 b 122 1016 214 1019 140 1019 b 67 994 102 1014 82 1007 b 25 923 46 977 30 949 b 61 823 18 887 36 847 b 60 195 61 613 60 404 b 30 148 47 181 36 167 b 82 14 12 98 35 39 b 203 0 117 -4 162 0 z "},"i":{"ha":343,"x_min":0,"x_max":0,"o":"m 249 11 b 304 61 272 21 291 40 b 317 112 314 75 315 95 b 283 193 319 141 303 172 b 284 827 283 405 284 615 b 317 889 300 844 312 865 b 232 1014 326 942 286 998 b 116 1015 213 1019 136 1018 b 60 987 95 1012 75 1002 b 25 921 43 969 29 946 b 60 823 18 887 36 848 b 59 193 60 613 59 404 b 35 161 49 183 40 172 b 92 11 8 104 35 33 b 249 11 126 -3 217 -3 z "},"j":{"ha":667,"x_min":0,"x_max":0,"o":"m 411 3 b 520 49 450 8 489 24 b 593 160 555 77 579 118 b 613 308 608 208 613 258 b 613 829 613 481 613 655 b 642 874 625 841 636 857 b 590 1008 660 924 638 983 b 470 1022 555 1026 510 1022 b 412 1007 450 1021 429 1017 b 369 962 394 996 380 979 b 356 904 359 945 356 924 b 388 831 355 878 370 851 b 388 289 388 650 388 470 b 378 226 388 266 385 245 b 237 226 360 226 255 226 b 230 227 234 226 231 226 b 219 318 220 256 223 289 b 3 339 203 434 41 450 b -4 293 -3 325 -4 308 b 25 137 -3 239 4 185 b 74 61 36 109 53 82 b 210 3 109 26 161 5 b 411 3 240 1 381 -2 z "},"k":{"ha":731,"x_min":0,"x_max":0,"o":"m 203 -1 b 261 15 223 1 244 5 b 304 60 279 26 293 43 b 317 117 315 76 317 98 b 285 190 318 144 303 170 b 286 316 285 232 285 274 b 297 377 287 337 290 357 b 437 377 314 377 419 377 b 444 375 440 377 444 377 b 453 337 449 363 453 350 b 453 193 453 290 453 241 b 429 161 443 183 435 172 b 419 114 422 147 421 130 b 477 15 416 81 447 30 b 555 1 500 2 528 1 b 639 8 583 1 613 -2 b 700 61 663 18 684 39 b 712 112 708 75 709 95 b 677 193 715 141 697 172 b 676 385 677 258 681 322 b 667 413 674 395 670 403 b 594 547 655 462 631 511 b 679 826 604 582 669 791 b 709 883 693 842 705 862 b 704 946 715 903 711 925 b 666 995 698 966 681 983 b 597 1016 648 1011 621 1016 b 510 1015 585 1016 523 1018 b 447 833 426 997 391 897 b 375 603 423 756 399 679 b 286 601 364 603 297 603 b 286 830 286 677 286 753 b 317 889 301 847 312 868 b 304 958 319 913 315 938 b 232 1014 289 987 265 1005 b 122 1016 214 1019 140 1019 b 67 994 102 1014 82 1007 b 25 923 46 977 30 949 b 61 823 18 887 36 847 b 60 195 61 613 60 404 b 30 148 47 181 36 167 b 82 14 12 98 35 39 b 203 -1 117 -4 162 0 z "},"l":{"ha":664,"x_min":0,"x_max":0,"o":"m 207 1 b 559 1 325 0 441 1 b 671 132 629 1 684 63 b 559 226 661 186 615 226 b 277 226 465 226 371 226 b 277 733 277 395 277 565 b 288 796 277 756 281 777 b 440 796 339 795 389 794 b 500 1000 545 803 584 937 b 416 1022 476 1017 445 1021 b 256 1019 394 1022 278 1022 b 145 973 217 1014 176 998 b 79 880 116 949 93 916 b 53 714 58 829 53 770 b 53 193 53 541 53 367 b 23 148 40 181 29 165 b 115 1 1 83 46 12 b 207 1 127 0 194 1 z "},"m":{"ha":1118,"x_min":0,"x_max":0,"o":"m 591 -3 b 660 17 615 -3 640 4 b 705 74 681 31 697 52 b 712 109 709 85 710 98 b 677 192 714 139 696 170 b 677 711 677 364 677 537 b 675 763 677 728 677 744 b 682 792 675 768 681 788 b 824 793 700 792 806 793 b 831 791 827 793 829 793 b 841 729 838 771 841 750 b 841 189 841 548 841 368 b 817 157 831 179 822 169 b 904 -2 785 88 829 11 b 1003 -2 919 -5 988 -3 b 1048 15 1019 1 1036 7 b 1086 57 1064 26 1076 42 b 1100 108 1096 73 1097 91 b 1065 190 1102 137 1085 168 b 1065 709 1065 363 1065 535 b 1029 896 1065 772 1058 840 b 943 988 1010 934 981 969 b 867 1014 919 1001 894 1009 b 650 1015 834 1019 684 1019 b 563 986 619 1011 590 1001 b 462 1016 532 1002 497 1015 b 288 1018 438 1018 312 1019 b 235 1011 270 1018 252 1015 b 133 1015 220 1015 150 1015 b 60 986 107 1014 78 1004 b 25 920 43 967 29 945 b 68 815 18 882 39 838 b 60 711 61 781 60 746 b 60 192 60 538 60 364 b 30 147 47 179 36 164 b 82 12 12 95 35 38 b 203 -2 117 -7 162 -3 b 260 12 222 -2 243 3 b 304 57 278 24 292 40 b 316 115 315 74 316 95 b 284 189 318 141 302 168 b 284 732 284 370 284 551 b 294 794 284 753 288 774 b 436 795 342 792 388 794 b 443 792 438 795 441 795 b 450 764 444 788 450 768 b 448 711 450 757 448 716 b 448 190 448 537 448 363 b 419 146 436 178 424 162 b 471 11 400 94 423 36 b 591 -3 506 -9 550 -3 z "},"n":{"ha":731,"x_min":0,"x_max":0,"o":"m 203 -1 b 260 15 222 1 243 5 b 304 60 278 26 292 43 b 316 117 315 77 316 98 b 284 190 318 144 302 171 b 284 733 284 371 284 552 b 294 796 284 755 288 777 b 436 796 312 796 417 796 b 443 795 438 796 441 796 b 452 732 450 775 452 753 b 452 193 452 552 452 373 b 429 161 443 183 434 172 b 516 2 398 92 441 15 b 615 2 531 0 600 0 b 660 19 632 5 647 11 b 699 61 675 29 688 45 b 712 112 708 75 709 95 b 677 193 715 141 696 172 b 677 712 677 367 677 540 b 642 900 677 777 670 843 b 556 991 622 936 593 972 b 462 1019 527 1007 494 1018 b 288 1021 438 1021 312 1022 b 235 1014 270 1019 252 1018 b 133 1018 220 1018 150 1018 b 60 988 107 1016 78 1007 b 25 923 43 970 29 946 b 68 817 18 885 39 841 b 60 714 61 784 60 749 b 60 193 60 541 60 367 b 30 148 47 181 36 165 b 82 14 12 98 35 39 b 203 -1 117 -4 162 0 z "},"o":{"ha":682,"x_min":0,"x_max":0,"o":"m 447 4 b 557 49 486 9 526 25 b 627 154 589 75 613 115 b 649 300 644 200 649 251 b 649 709 649 350 649 659 b 637 836 649 751 647 795 b 581 950 627 876 609 918 b 429 1021 544 993 484 1019 b 234 1019 401 1021 262 1022 b 125 973 195 1014 156 998 b 60 885 97 950 76 918 b 32 721 39 834 31 777 b 36 224 32 652 27 293 b 107 67 45 168 67 108 b 252 3 143 28 199 4 b 447 4 280 1 419 0 z m 274 225 b 266 228 271 225 268 225 b 257 290 259 248 257 269 b 257 733 257 439 257 586 b 266 796 257 754 259 775 b 408 796 285 798 390 796 b 415 795 410 796 414 798 b 425 733 422 775 425 753 b 425 290 425 585 425 437 b 415 228 425 269 422 248 b 408 226 414 226 410 226 b 274 225 390 227 290 227 z "},"p":{"ha":681,"x_min":0,"x_max":0,"o":"m 207 0 b 264 15 227 1 248 5 b 308 60 283 26 297 43 b 320 118 318 77 320 98 b 288 191 322 144 307 171 b 288 457 288 280 288 369 b 462 458 315 454 436 454 b 507 467 478 461 493 463 b 587 506 537 475 565 487 b 654 601 617 530 640 565 b 677 691 666 630 670 662 b 679 773 684 718 682 746 b 619 942 672 831 656 894 b 466 1019 583 986 524 1017 b 292 1021 442 1021 316 1022 b 235 1012 273 1019 253 1018 b 222 1017 232 1012 225 1015 b 134 1018 210 1019 148 1018 b 77 1004 114 1018 93 1014 b 33 959 58 993 44 976 b 20 901 23 942 22 921 b 71 812 19 875 49 827 b 64 714 65 779 64 747 b 64 193 64 541 64 367 b 34 148 51 181 40 165 b 86 14 16 98 39 39 b 207 0 121 -4 166 0 z m 298 796 b 440 796 316 796 422 796 b 447 795 443 796 445 796 b 445 683 458 760 457 718 b 288 680 426 680 308 681 b 298 796 288 719 287 760 z "},"q":{"ha":700,"x_min":0,"x_max":0,"o":"m 568 1 b 627 17 589 1 609 7 b 669 62 644 26 659 43 b 681 112 679 76 680 95 b 625 210 686 144 655 195 b 647 367 644 261 647 314 b 647 704 647 479 647 592 b 635 836 647 749 645 792 b 579 950 625 876 607 918 b 426 1021 541 993 482 1019 b 233 1019 400 1021 259 1022 b 128 977 196 1014 159 1000 b 62 893 100 956 77 925 b 31 746 41 847 32 795 b 30 355 28 697 30 404 b 66 174 28 293 38 228 b 142 90 84 140 109 109 b 250 56 174 70 213 57 b 407 56 303 55 355 55 b 438 21 415 42 425 29 b 568 1 474 -4 524 1 z m 271 280 b 264 282 269 280 265 279 b 254 345 258 301 254 324 b 254 719 254 470 254 594 b 265 796 254 746 257 771 b 406 796 283 798 387 796 b 414 795 408 796 412 798 b 422 735 419 775 422 754 b 422 345 422 604 422 474 b 412 282 422 324 419 301 b 405 280 412 279 408 280 b 271 280 388 280 289 280 z "},"r":{"ha":728,"x_min":0,"x_max":0,"o":"m 207 0 b 265 15 227 1 248 5 b 308 60 283 26 297 43 b 321 117 318 77 321 98 b 288 190 322 144 307 171 b 288 457 288 280 288 368 b 367 455 298 455 357 455 b 370 450 370 455 370 453 b 451 186 398 362 424 275 b 433 161 444 178 437 169 b 481 15 409 109 431 42 b 601 1 517 -5 560 1 b 660 17 622 1 642 7 b 703 61 677 26 692 43 b 716 112 712 75 713 95 b 682 192 717 140 702 171 b 587 506 673 231 600 467 b 654 601 617 531 640 565 b 677 691 666 630 670 662 b 679 773 684 718 682 746 b 619 942 672 831 656 894 b 466 1019 583 986 524 1017 b 292 1021 442 1021 316 1022 b 235 1012 273 1019 253 1018 b 222 1017 232 1012 225 1015 b 134 1018 210 1019 148 1018 b 76 1004 114 1018 93 1014 b 33 959 58 993 44 976 b 20 901 23 942 22 921 b 71 812 19 875 49 827 b 64 714 65 779 64 747 b 64 193 64 541 64 367 b 34 148 51 181 40 165 b 86 14 16 98 39 39 b 207 0 121 -4 166 0 z m 298 796 b 440 796 316 796 422 796 b 447 795 443 796 445 796 b 445 683 458 760 457 718 b 288 680 426 680 308 681 b 298 796 288 719 287 760 z "},"s":{"ha":674,"x_min":0,"x_max":0,"o":"m 391 1 b 540 41 443 3 496 13 b 617 139 575 63 601 101 b 645 287 636 185 645 237 b 645 517 645 363 645 440 b 572 624 645 565 615 607 b 523 630 556 630 540 630 b 252 630 433 630 343 630 b 253 744 252 645 252 730 b 263 796 253 763 258 780 b 413 796 282 796 394 798 b 423 736 419 777 416 754 b 575 673 446 674 516 645 b 640 777 617 691 640 730 b 607 911 639 823 629 871 b 528 991 589 944 561 973 b 413 1021 495 1011 453 1018 b 231 1019 387 1022 256 1022 b 120 973 192 1014 151 998 b 59 888 94 951 73 920 b 28 743 38 843 30 792 b 28 533 28 717 28 560 b 33 480 28 515 28 496 b 140 405 50 435 92 405 b 420 405 234 405 328 405 b 420 289 420 366 420 327 b 411 228 420 268 418 247 b 403 226 411 226 405 226 b 266 226 357 227 312 227 b 260 228 264 226 262 226 b 246 294 249 248 253 273 b 199 353 238 318 218 338 b 143 369 182 364 161 367 b 87 355 123 370 103 362 b 36 296 63 343 47 319 b 30 230 26 276 29 252 b 117 53 36 164 67 97 b 224 5 147 28 185 8 b 391 1 280 0 335 0 z "},"t":{"ha":767,"x_min":0,"x_max":0,"o":"m 462 11 b 517 61 486 21 505 40 b 531 112 527 75 528 95 b 496 193 534 141 516 172 b 498 796 498 395 498 596 b 537 796 503 796 531 796 b 548 704 547 767 544 734 b 765 682 563 589 726 573 b 771 730 770 698 771 713 b 743 886 770 782 763 837 b 672 979 728 921 704 956 b 534 1021 634 1007 583 1021 b 223 1022 496 1021 261 1022 b 88 974 175 1022 125 1005 b 18 871 56 948 32 910 b -4 725 1 824 -4 774 b 213 681 -4 598 165 565 b 220 746 221 701 220 725 b 230 796 221 764 224 781 b 273 796 245 796 259 796 b 272 193 273 596 273 394 b 248 161 262 183 254 172 b 307 11 221 104 249 33 b 462 11 339 -3 430 -3 z "},"u":{"ha":731,"x_min":0,"x_max":0,"o":"m 488 5 b 577 44 520 12 551 25 b 649 138 610 67 633 102 b 677 301 670 189 677 246 b 677 828 677 366 677 764 b 711 892 694 845 706 868 b 628 1016 720 946 680 1002 b 510 1018 608 1022 531 1022 b 455 991 490 1015 469 1005 b 419 925 439 973 425 949 b 453 828 413 892 429 854 b 453 288 453 649 453 469 b 443 227 453 268 450 246 b 434 225 441 224 437 225 b 294 225 418 225 312 225 b 284 289 287 247 284 268 b 284 831 284 470 284 650 b 317 893 300 848 312 871 b 309 951 319 913 315 932 b 270 1000 302 970 287 987 b 202 1022 252 1015 227 1021 b 116 1019 189 1022 129 1022 b 25 925 68 1009 33 973 b 60 829 18 892 35 852 b 60 308 60 655 60 482 b 68 205 60 273 61 240 b 31 153 52 192 38 172 b 82 18 12 101 35 43 b 203 4 117 -2 162 4 b 237 8 209 4 231 10 b 488 5 279 -3 444 -3 z "},"v":{"ha":811,"x_min":0,"x_max":0,"o":"m 508 0 b 620 132 578 0 632 63 b 583 196 615 155 601 178 b 778 806 648 399 714 603 b 784 827 780 810 781 824 b 816 889 799 844 812 865 b 809 946 819 907 815 928 b 771 996 802 966 787 983 b 702 1017 752 1011 726 1017 b 632 1017 679 1017 656 1018 b 551 833 538 1014 489 904 b 404 370 502 679 453 524 b 258 831 355 524 307 679 b 279 868 266 843 275 855 b 227 1003 296 920 273 977 b 105 1017 191 1022 146 1017 b 48 1001 85 1017 65 1012 b 4 956 29 991 15 974 b -8 906 -4 942 -7 923 b 24 826 -11 878 6 848 b 31 806 27 823 29 809 b 229 183 97 599 163 391 b 300 1 171 116 212 12 b 508 0 328 -3 479 0 z "},"w":{"ha":1343,"x_min":0,"x_max":0,"o":"m 1040 0 b 1153 132 1111 0 1164 63 b 1116 196 1148 155 1133 178 b 1311 806 1181 399 1247 603 b 1317 827 1311 810 1314 824 b 1349 889 1332 844 1345 865 b 1342 946 1352 907 1348 928 b 1303 996 1335 966 1319 983 b 1234 1017 1284 1011 1259 1017 b 1165 1017 1212 1017 1189 1018 b 1084 833 1071 1014 1022 904 b 937 370 1035 679 986 524 b 789 831 888 524 838 679 b 702 1018 852 906 799 1017 b 632 1017 679 1018 656 1018 b 551 833 538 1014 489 904 b 404 371 502 679 453 524 b 258 833 355 524 307 679 b 279 868 266 843 275 855 b 227 1003 296 920 273 977 b 105 1017 191 1022 146 1017 b 48 1001 85 1017 65 1012 b 4 958 29 991 15 974 b -8 906 -4 942 -7 924 b 24 827 -11 878 6 848 b 31 806 27 824 29 809 b 229 183 97 599 163 391 b 300 1 171 116 212 12 b 508 0 328 -3 479 0 b 620 132 578 0 632 63 b 583 196 615 155 601 178 b 670 468 613 287 641 377 b 761 183 701 373 730 279 b 833 1 704 116 744 12 b 1040 0 861 -3 1012 0 z "},"x":{"ha":686,"x_min":0,"x_max":0,"o":"m 561 1 b 619 15 581 1 602 5 b 662 60 637 26 651 43 b 675 112 672 75 673 94 b 644 189 678 138 662 168 b 633 214 641 192 634 210 b 474 509 579 312 528 411 b 634 809 528 608 581 708 b 644 828 637 812 642 827 b 675 889 659 845 671 866 b 668 946 678 907 673 928 b 628 995 661 966 645 983 b 560 1016 610 1011 584 1016 b 474 1015 547 1016 487 1018 b 384 927 428 1005 394 972 b 400 845 377 900 384 868 b 348 747 383 812 365 779 b 288 859 328 784 307 821 b 290 946 300 885 300 918 b 253 995 285 966 268 983 b 184 1016 234 1011 208 1016 b 97 1015 171 1016 110 1018 b 61 807 -4 993 -26 862 b 220 509 114 708 167 608 b 62 210 167 409 114 310 b 56 207 61 209 58 209 b 11 150 37 193 20 172 b 63 15 -5 98 17 40 b 184 1 100 -4 145 0 b 243 15 205 1 226 5 b 286 60 260 26 275 43 b 299 118 296 77 297 98 b 288 158 299 132 295 146 b 348 270 307 196 328 234 b 400 172 365 238 383 206 b 382 115 389 157 384 134 b 440 15 379 76 407 33 b 561 1 476 -4 520 0 z "},"y":{"ha":717,"x_min":0,"x_max":0,"o":"m 459 3 b 570 49 498 8 539 24 b 643 160 604 77 629 118 b 662 309 658 208 662 258 b 662 829 662 481 662 655 b 692 874 675 842 686 857 b 640 1008 709 924 686 983 b 519 1022 604 1027 560 1022 b 461 1007 498 1021 479 1017 b 417 962 444 996 428 979 b 405 905 407 945 406 924 b 438 832 403 878 420 851 b 431 712 438 792 441 750 b 425 701 430 710 430 702 b 341 702 414 701 353 702 b 280 701 333 702 288 701 b 268 824 266 740 268 782 b 301 871 282 837 294 853 b 249 1005 317 923 295 980 b 127 1019 212 1025 167 1019 b 69 1004 107 1019 86 1015 b 26 960 51 994 37 977 b 13 903 16 944 15 923 b 44 831 12 878 27 851 b 46 726 44 796 43 761 b 123 537 51 659 75 585 b 281 477 163 498 225 477 b 438 478 333 477 386 474 b 438 289 438 415 438 352 b 427 226 438 266 434 245 b 287 226 410 226 304 226 b 280 227 284 226 280 226 b 267 318 270 256 271 289 b 51 339 253 434 90 450 b 45 293 45 325 44 308 b 73 137 45 239 52 185 b 124 61 86 109 103 82 b 259 3 159 26 210 5 b 459 3 288 1 431 -2 z "},"z":{"ha":722,"x_min":0,"x_max":0,"o":"m 605 1 b 679 28 631 1 658 11 b 721 123 706 50 725 88 b 710 168 720 139 717 156 b 642 224 696 193 671 216 b 520 227 623 230 543 230 b 337 226 495 223 362 226 b 662 836 445 429 554 632 b 686 883 671 851 682 867 b 679 947 690 903 686 925 b 641 996 673 966 656 983 b 572 1017 623 1011 596 1017 b 117 1017 516 1018 171 1017 b 42 990 90 1017 62 1007 b -1 895 16 969 -4 930 b 11 850 0 879 3 862 b 77 795 25 824 51 803 b 199 791 98 788 178 788 b 384 792 226 795 358 792 b 58 182 275 589 167 386 b 35 136 51 167 39 153 b 41 71 31 115 34 92 b 80 22 48 52 63 36 b 149 1 98 8 124 1 b 605 1 204 1 549 1 z "},"{":{"ha":642,"x_min":0,"x_max":0,"o":"m 570 202 b 508 226 553 216 530 223 b 498 342 497 262 498 303 b 473 414 498 367 487 393 b 361 495 459 433 379 482 b 471 607 397 533 435 569 b 497 659 485 621 492 641 b 498 708 501 676 498 691 b 508 795 498 738 499 767 b 571 820 530 798 554 805 b 596 850 581 829 589 839 b 519 1018 638 913 595 1005 b 372 976 469 1025 413 1007 b 300 879 340 952 316 916 b 274 725 281 830 274 777 b 100 551 216 668 157 609 b 73 480 81 533 76 505 b 87 424 72 460 80 440 b 131 380 96 405 114 391 b 274 283 178 348 226 316 b 327 91 275 218 289 146 b 494 2 365 38 428 3 b 570 202 603 -1 654 131 z "},"}":{"ha":640,"x_min":0,"x_max":0,"o":"m 282 55 b 336 135 304 77 324 104 b 366 283 357 181 364 233 b 526 391 385 297 506 379 b 540 551 573 425 580 510 b 366 725 482 610 423 667 b 334 893 366 782 357 841 b 254 986 315 930 289 965 b 154 1018 224 1004 189 1017 b 81 1003 129 1021 102 1017 b 46 969 68 993 54 983 b 130 795 1 897 46 805 l 132 795 b 141 693 141 763 141 726 b 141 679 141 688 140 683 b 168 607 143 654 150 625 b 280 495 205 569 242 533 b 184 429 268 487 195 438 b 144 363 162 415 150 389 b 142 276 140 352 143 289 b 132 226 140 259 137 241 b 70 201 109 223 86 216 b 43 171 60 192 50 182 b 28 115 33 154 29 135 b 42 59 26 96 33 76 b 83 17 52 42 67 28 b 282 55 137 -19 233 10 z "},"~":{"ha":789,"x_min":0,"x_max":0,"o":"m 569 211 b 722 309 628 222 687 260 b 753 361 733 326 746 341 b 575 484 792 467 663 558 b 532 432 558 470 550 446 b 481 442 520 425 492 438 b 299 516 419 467 362 502 b 165 509 255 526 207 525 b 43 403 115 491 71 449 b 28 335 31 383 27 358 b 212 258 36 244 143 201 b 244 297 224 269 233 285 b 259 295 247 302 255 296 b 436 220 320 275 374 237 b 569 211 478 209 526 202 z "}," ":{"ha":406,"x_min":0,"x_max":0,"o":""},"¡":{"ha":368,"x_min":0,"x_max":0,"o":"m 267 804 b 330 888 299 818 324 853 b 323 945 333 907 328 927 b 283 994 316 965 300 982 b 215 1017 265 1010 239 1017 b 129 1014 202 1017 142 1017 b 38 922 82 1004 47 969 b 45 863 34 902 38 881 b 83 813 52 843 68 828 b 152 792 103 798 128 792 b 267 804 191 792 232 788 z m 263 10 b 317 60 285 20 305 39 b 330 111 327 76 328 94 b 296 194 333 140 316 171 b 296 621 296 337 296 480 b 104 703 296 722 176 774 b 72 621 83 680 72 654 b 72 192 72 478 72 335 b 47 160 62 182 52 173 b 106 10 21 104 48 34 b 263 10 139 -3 230 -4 z "},"¢":{"ha":696,"x_min":0,"x_max":0,"o":"m 447 -102 b 481 -55 463 -91 473 -72 b 487 10 491 -35 488 -11 b 565 49 515 18 543 31 b 630 137 593 71 616 104 b 658 301 651 189 658 245 b 485 395 658 390 560 444 b 439 335 463 381 445 359 b 432 273 434 316 434 294 b 424 227 432 258 429 243 b 415 224 422 224 418 224 b 275 226 399 224 293 226 b 265 283 269 244 265 264 b 265 732 265 433 265 582 b 275 795 265 753 269 775 b 417 795 293 795 398 795 b 424 794 419 795 424 795 b 435 703 433 764 432 732 b 652 682 450 586 613 571 b 658 728 656 696 658 712 b 630 884 658 781 651 836 b 579 959 617 912 600 938 b 474 1014 551 987 512 1006 b 421 1094 471 1046 446 1076 b 365 1109 404 1104 384 1108 b 309 1095 345 1111 326 1102 b 254 1018 281 1081 261 1049 b 126 966 208 1015 160 997 b 67 879 101 943 80 912 b 41 713 46 826 41 769 b 41 312 41 579 41 445 b 73 126 41 248 46 182 b 138 45 89 96 111 66 b 262 2 174 18 219 3 b 271 -53 264 -17 265 -36 b 376 -128 286 -97 330 -128 b 447 -102 401 -128 426 -116 z "},"£":{"ha":814,"x_min":0,"x_max":0,"o":"m 276 0 b 628 0 393 -1 510 0 b 740 130 698 0 751 62 b 628 224 730 185 684 224 b 346 224 534 224 440 224 b 346 391 346 279 346 335 b 417 429 372 393 398 410 b 442 520 438 452 445 488 b 346 613 438 565 391 609 b 347 743 346 630 346 726 b 357 795 347 762 351 778 b 508 795 407 794 458 792 b 569 999 614 802 653 935 b 485 1021 545 1015 514 1020 b 325 1018 462 1021 347 1021 b 208 966 283 1011 239 994 b 135 837 172 934 147 885 b 121 613 116 764 121 689 b 60 588 99 612 77 602 b 121 390 -17 523 22 400 b 121 192 121 324 121 258 b 92 147 109 180 98 164 b 183 0 69 82 113 11 b 276 0 196 -1 263 0 z "},"¥":{"ha":793,"x_min":0,"x_max":0,"o":"m 478 2 b 589 48 517 7 558 23 b 656 145 618 73 642 108 b 743 312 738 152 785 242 b 682 362 731 336 707 355 b 682 390 682 372 682 382 b 682 603 781 427 781 566 b 682 828 682 678 682 752 b 711 873 694 840 705 856 b 659 1007 728 923 705 982 b 538 1021 623 1026 579 1021 b 480 1006 518 1020 498 1016 b 436 961 463 995 447 978 b 424 904 426 944 425 923 b 457 831 422 877 439 850 b 450 711 457 791 460 749 b 445 700 449 708 449 701 b 360 701 433 700 372 701 b 299 700 352 701 307 700 b 287 823 285 739 287 781 b 320 870 301 836 313 851 b 268 1004 336 922 314 979 b 146 1018 231 1024 187 1018 b 88 1003 126 1018 105 1014 b 45 959 70 993 56 976 b 32 902 35 943 34 922 b 63 830 31 877 46 850 b 64 725 63 795 62 760 b 130 549 70 662 90 596 b 278 477 167 506 223 480 b 335 476 296 476 315 476 b 359 425 339 457 346 439 b 407 391 372 410 388 398 b 456 384 422 386 439 384 b 456 368 457 384 457 368 b 408 362 439 368 423 366 b 349 311 384 352 362 334 b 339 224 334 286 331 252 b 299 224 325 224 311 223 b 286 317 289 254 290 286 b 70 338 272 433 109 449 b 64 292 64 324 63 307 b 92 136 64 238 71 184 b 143 60 105 108 122 81 b 277 2 178 25 228 4 b 478 2 307 0 450 -3 z "},"«":{"ha":924,"x_min":0,"x_max":0,"o":"m 437 14 b 478 55 454 21 468 38 b 494 110 489 70 492 91 b 452 198 497 142 476 175 b 305 339 403 245 354 293 b 448 442 353 375 400 408 b 488 508 469 457 480 484 b 464 600 496 538 482 574 b 417 634 453 616 434 625 b 340 635 394 645 366 641 b 304 614 328 631 315 623 b 60 439 274 593 91 460 b 33 296 16 408 8 341 b 72 252 43 279 58 267 b 309 27 151 177 229 102 b 382 -1 328 8 355 -1 b 437 14 400 -1 420 6 z m 834 -5 b 874 35 851 3 863 20 b 890 91 886 51 888 72 b 849 180 893 124 873 157 b 702 320 800 226 751 274 b 845 424 750 355 797 389 b 884 489 866 438 877 464 b 860 581 893 520 879 555 b 814 614 849 598 831 607 b 737 616 790 626 762 623 b 701 595 723 612 712 603 b 457 419 671 574 486 440 b 416 334 430 401 419 366 b 422 296 414 321 419 309 b 469 233 428 271 451 251 b 705 7 548 159 626 83 b 779 -19 724 -11 752 -19 b 834 -5 797 -19 816 -14 z "},"­":{"ha":0,"x_min":0,"x_max":0,"o":""},"»":{"ha":925,"x_min":0,"x_max":0,"o":"m 217 7 b 481 260 250 38 449 229 b 508 331 499 278 505 306 b 457 426 511 368 487 405 b 206 606 427 449 237 585 b 112 616 181 624 142 624 b 41 537 77 606 49 572 b 63 438 31 504 39 466 b 222 320 83 415 196 338 b 59 166 201 302 79 185 b 32 94 42 147 35 119 b 46 38 31 75 39 55 b 87 -4 55 20 72 7 b 217 7 123 -29 186 -22 z m 614 27 b 878 279 646 58 846 247 b 864 439 918 320 911 405 b 603 626 832 462 635 603 b 509 635 576 644 538 642 b 438 557 474 626 446 591 b 460 457 428 522 436 484 b 617 339 478 435 593 358 b 456 184 597 320 475 203 b 429 112 437 167 432 138 b 443 56 428 94 435 74 b 484 15 452 39 468 27 b 614 27 520 -10 583 -4 z "},"¿":{"ha":713,"x_min":0,"x_max":0,"o":"m 453 4 b 561 52 492 7 531 27 b 625 143 589 76 610 109 b 642 292 646 189 655 244 b 593 352 635 317 614 337 b 537 367 578 363 557 366 b 481 353 519 369 499 360 b 425 255 447 337 426 293 b 409 224 423 241 423 224 b 273 224 364 226 318 226 b 266 227 271 224 268 224 b 257 287 259 247 257 268 b 257 404 257 327 257 366 b 537 404 350 404 443 404 b 635 460 578 404 616 425 b 648 495 642 471 645 484 b 649 533 652 508 649 520 b 648 666 649 551 650 648 b 624 718 643 684 634 703 b 576 752 613 733 594 743 b 519 757 560 760 538 759 b 440 704 488 754 458 729 b 425 628 426 683 425 655 b 126 628 386 628 165 631 b 32 516 73 623 32 568 b 32 286 32 439 32 362 b 80 100 32 222 46 154 b 247 2 116 42 178 7 b 453 4 315 -3 384 -3 z m 614 805 b 676 923 656 825 683 875 b 618 1004 670 955 648 989 b 498 1018 583 1024 538 1018 b 384 889 429 1018 374 958 b 442 808 390 857 412 823 b 614 805 478 788 575 788 z "},"À":{"ha":724,"x_min":0,"x_max":0,"o":"m 212 1227 b 390 1136 235 1213 367 1147 b 441 1109 397 1131 434 1112 b 515 1233 517 1081 571 1174 b 376 1373 498 1252 396 1354 b 312 1420 357 1390 336 1408 b 287 1429 305 1425 295 1429 b 212 1227 172 1440 116 1289 z m 670 193 b 670 742 670 262 672 673 b 626 914 668 801 657 864 b 456 1019 590 977 528 1015 b 256 1019 427 1021 284 1023 b 145 973 217 1014 176 998 b 79 881 116 949 93 916 b 53 714 58 829 53 770 b 53 193 53 541 53 367 b 23 148 40 181 29 165 b 75 14 6 98 29 39 b 196 0 111 -4 156 0 b 254 15 217 1 238 5 b 298 60 271 26 287 43 b 311 118 308 77 309 98 b 277 191 312 144 295 171 b 277 314 277 233 277 273 b 407 313 295 313 390 313 b 445 314 420 313 433 313 b 445 193 445 273 445 234 b 421 161 437 184 427 172 b 508 3 390 93 435 15 b 609 3 525 0 594 0 b 654 20 625 6 640 11 b 692 62 670 29 682 45 b 705 112 702 76 703 95 b 670 193 707 142 691 172 z m 445 593 b 435 538 445 575 441 555 b 288 538 417 536 308 538 b 277 614 280 562 277 589 b 278 744 277 631 277 728 b 288 796 278 763 283 780 b 428 796 305 796 412 796 b 435 795 431 796 435 796 b 445 732 442 775 445 753 b 445 593 445 686 445 639 z "},"Á":{"ha":724,"x_min":0,"x_max":0,"o":"m 298 1099 b 327 1112 308 1102 317 1106 b 550 1228 360 1130 522 1204 b 466 1423 630 1300 573 1430 b 243 1234 404 1419 288 1276 b 214 1185 229 1221 218 1204 b 298 1099 203 1134 246 1089 z m 669 193 b 669 742 669 262 672 673 b 626 914 668 801 657 864 b 456 1019 589 977 528 1015 b 256 1019 427 1021 284 1023 b 145 973 217 1014 176 998 b 79 880 116 949 93 915 b 53 713 58 828 53 770 b 53 193 53 541 53 367 b 23 148 40 181 29 165 b 75 14 6 98 29 39 b 196 0 111 -5 156 0 b 254 15 217 1 238 5 b 298 60 271 26 287 43 b 311 118 308 77 309 98 b 277 191 312 144 295 171 b 277 314 277 233 277 273 b 407 312 295 312 390 312 b 445 314 420 312 433 312 b 445 193 445 273 445 234 b 421 161 437 183 427 172 b 508 3 390 92 435 15 b 609 3 525 0 594 0 b 654 19 625 5 640 11 b 692 62 670 29 682 45 b 705 112 702 76 703 95 b 669 193 707 142 690 172 z m 445 593 b 435 538 445 575 441 555 b 288 538 417 536 308 538 b 277 614 280 562 277 589 b 278 744 277 631 277 728 b 288 796 278 763 282 780 b 428 796 305 796 411 796 b 435 795 431 796 435 796 b 445 732 442 775 445 753 b 445 593 445 686 445 639 z "},"Â":{"ha":724,"x_min":0,"x_max":0,"o":"m 669 193 b 669 742 669 262 672 673 b 626 914 668 801 657 864 b 456 1019 589 977 528 1015 b 256 1019 427 1021 284 1023 b 145 973 217 1014 176 998 b 79 880 116 949 93 915 b 53 713 58 828 53 770 b 53 193 53 541 53 367 b 23 148 40 181 29 165 b 75 14 6 98 29 39 b 196 0 111 -5 156 0 b 254 15 217 1 238 5 b 298 60 271 26 287 43 b 311 118 308 77 309 98 b 277 191 312 144 295 171 b 277 314 277 233 277 273 b 407 312 295 312 390 312 b 445 314 420 312 433 312 b 445 193 445 273 445 234 b 421 161 437 183 427 172 b 508 3 390 92 435 15 b 609 3 525 0 594 0 b 654 19 625 5 640 11 b 692 62 670 29 682 45 b 705 112 702 76 703 95 b 669 193 707 142 690 172 z m 445 593 b 435 538 445 575 441 555 b 288 538 417 536 308 538 b 277 614 280 562 277 589 b 278 744 277 631 277 728 b 288 796 278 763 282 780 b 428 796 305 796 411 796 b 435 795 431 796 435 796 b 445 732 442 775 445 753 b 445 593 445 686 445 639 z m 209 1064 b 265 1060 228 1059 247 1059 b 319 1085 285 1063 303 1074 b 375 1147 329 1092 366 1137 b 438 1087 396 1127 417 1106 b 529 1063 460 1066 498 1060 b 575 1082 546 1064 561 1073 b 605 1231 622 1117 634 1182 b 453 1381 589 1258 474 1359 b 329 1412 424 1416 372 1429 b 281 1377 310 1405 295 1391 b 159 1242 240 1332 200 1287 b 134 1168 142 1223 132 1195 b 209 1064 134 1122 166 1080 z "},"Ã":{"ha":724,"x_min":0,"x_max":0,"o":"m 159 1075 b 254 1066 186 1057 225 1054 b 317 1123 282 1075 305 1097 b 490 1064 371 1095 428 1064 b 608 1108 532 1064 576 1081 b 685 1234 646 1140 672 1186 b 681 1291 691 1252 686 1273 b 633 1352 674 1317 653 1336 b 577 1367 616 1362 595 1366 b 521 1352 557 1369 538 1360 b 472 1296 498 1342 482 1318 b 389 1338 444 1310 417 1325 b 263 1356 350 1356 305 1364 b 180 1317 233 1350 204 1336 b 106 1192 144 1286 118 1240 b 110 1135 101 1174 106 1153 b 159 1075 117 1109 138 1089 z m 669 193 b 669 742 669 262 672 673 b 626 914 668 801 657 864 b 456 1019 589 977 528 1015 b 256 1019 427 1021 284 1023 b 145 973 217 1014 176 998 b 79 880 116 949 93 915 b 53 713 58 828 53 770 b 53 193 53 541 53 367 b 23 148 40 181 29 165 b 75 14 6 98 29 39 b 196 0 111 -5 156 0 b 254 15 217 1 238 5 b 298 60 271 26 287 43 b 311 118 308 77 309 98 b 277 191 312 144 295 171 b 277 314 277 233 277 273 b 407 312 295 312 390 312 b 445 314 420 312 433 312 b 445 193 445 273 445 234 b 421 161 437 183 427 172 b 508 3 390 92 435 15 b 609 3 525 0 594 0 b 654 19 625 5 640 11 b 692 62 670 29 682 45 b 705 112 702 76 703 95 b 669 193 707 142 690 172 z m 445 593 b 435 538 445 575 441 555 b 288 538 417 536 308 538 b 277 614 280 562 277 589 b 278 744 277 631 277 728 b 288 796 278 763 282 780 b 428 796 305 796 411 796 b 435 795 431 796 435 796 b 445 732 442 775 445 753 b 445 593 445 686 445 639 z "},"Ä":{"ha":724,"x_min":0,"x_max":0,"o":"m 669 193 b 669 742 669 262 672 673 b 626 914 668 801 657 864 b 456 1019 589 977 528 1015 b 256 1019 427 1021 284 1023 b 145 973 216 1014 176 998 b 79 880 116 949 93 915 b 52 713 58 828 52 770 b 52 193 52 541 52 367 b 23 148 40 181 29 165 b 75 14 6 98 29 39 b 196 0 111 -5 156 0 b 254 15 217 1 238 5 b 298 60 271 26 287 43 b 310 118 308 77 309 98 b 277 191 312 144 295 171 b 277 314 277 233 277 273 b 407 312 295 312 390 312 b 445 314 420 312 433 312 b 445 193 445 273 445 234 b 421 161 437 183 427 172 b 508 3 390 92 435 15 b 609 3 525 0 594 0 b 654 19 625 5 640 11 b 692 62 670 29 682 45 b 705 112 702 76 703 95 b 669 193 707 142 690 172 z m 445 593 b 435 538 445 575 441 555 b 288 538 417 536 308 538 b 277 614 280 562 277 589 b 278 744 277 631 277 728 b 288 796 278 763 282 780 b 428 796 305 796 411 796 b 435 795 431 796 435 796 b 445 732 442 775 445 753 b 445 593 445 686 445 639 z m 465 1088 b 585 1074 500 1068 545 1074 b 699 1202 654 1074 709 1134 b 641 1284 693 1235 671 1269 b 469 1287 603 1304 507 1304 b 407 1169 425 1268 400 1217 b 465 1088 411 1137 435 1103 z m 96 1085 b 216 1071 131 1066 176 1071 b 330 1200 285 1073 340 1132 b 273 1282 325 1233 302 1266 b 100 1285 235 1303 138 1301 b 38 1168 58 1265 31 1216 b 96 1085 43 1134 66 1101 z "},"Å":{"ha":724,"x_min":0,"x_max":0,"o":"m 669 193 b 669 742 669 262 672 673 b 626 914 668 801 657 864 b 456 1019 589 977 528 1015 b 256 1019 427 1021 284 1023 b 145 973 217 1014 176 998 b 79 880 116 949 93 915 b 53 713 58 828 53 770 b 53 193 53 541 53 367 b 23 148 40 181 29 165 b 75 14 6 98 29 39 b 196 0 111 -5 156 0 b 254 15 217 1 238 5 b 298 60 271 26 287 43 b 311 118 308 77 309 98 b 277 191 312 144 295 171 b 277 314 277 233 277 273 b 407 312 295 312 390 312 b 445 314 420 312 433 312 b 445 193 445 273 445 234 b 421 161 437 183 427 172 b 508 3 390 92 435 15 b 609 3 525 0 594 0 b 654 19 625 5 640 11 b 692 62 670 29 682 45 b 705 112 702 76 703 95 b 669 193 707 142 690 172 z m 445 593 b 435 538 445 575 441 555 b 288 538 417 536 308 538 b 277 614 280 562 277 589 b 278 744 277 631 277 728 b 288 796 278 763 282 780 b 428 796 305 796 411 796 b 435 795 431 796 435 796 b 445 732 442 775 445 753 b 445 593 445 686 445 639 z m 219 1094 b 312 1057 243 1071 280 1060 b 413 1059 326 1057 400 1057 b 510 1105 449 1059 487 1077 b 545 1211 534 1134 543 1173 b 545 1342 546 1228 545 1325 b 527 1409 545 1354 532 1398 b 412 1485 504 1455 462 1484 b 311 1485 399 1485 325 1486 b 222 1451 280 1483 246 1474 b 177 1359 197 1429 183 1392 b 176 1207 173 1336 175 1230 b 219 1094 179 1167 191 1123 z m 315 1357 b 399 1359 326 1359 388 1357 b 403 1356 400 1359 403 1359 b 410 1270 413 1329 410 1298 b 404 1185 410 1241 414 1211 b 320 1185 393 1184 332 1185 b 312 1200 313 1183 313 1193 b 309 1272 310 1210 309 1262 b 315 1357 309 1300 305 1331 z "},"Æ":{"ha":1076,"x_min":0,"x_max":0,"o":"m 951 223 b 670 223 857 223 764 223 b 670 323 670 257 670 289 b 834 324 694 323 812 320 b 904 366 861 328 887 345 b 820 547 958 439 910 541 b 670 547 801 548 690 547 b 670 742 670 571 670 717 b 679 795 670 760 673 778 b 820 795 697 795 802 795 b 827 794 823 795 827 795 b 837 746 833 778 836 761 b 844 680 838 724 837 701 b 1053 673 879 585 1012 580 b 1061 728 1060 690 1061 710 b 1036 876 1061 778 1054 829 b 983 959 1023 906 1007 935 b 847 1018 948 994 896 1015 b 673 1019 823 1019 697 1021 b 615 1011 653 1018 634 1017 b 603 1015 614 1011 605 1014 b 514 1017 590 1018 528 1017 b 489 1015 510 1017 492 1014 b 241 1017 447 1025 283 1025 b 146 973 206 1010 172 996 b 75 871 113 947 90 909 b 53 714 57 820 53 767 b 53 194 53 541 53 368 l 52 194 b 70 17 0 142 8 56 b 196 0 106 -6 154 0 b 303 72 244 1 284 28 b 310 111 307 84 308 98 b 277 191 312 140 296 170 b 277 314 277 233 277 274 b 401 313 294 313 384 313 b 444 314 415 313 429 313 b 444 192 444 274 444 233 l 443 192 b 461 16 391 140 399 55 b 598 0 500 -8 552 0 b 949 -1 715 -1 833 -1 b 1061 131 1019 -1 1074 62 b 951 223 1053 185 1005 223 z m 444 575 b 436 538 444 569 437 544 b 306 538 419 537 324 538 b 287 540 300 538 290 534 b 278 614 280 564 278 589 b 278 744 278 631 278 728 b 287 796 279 763 282 780 b 429 796 306 796 411 796 b 436 795 432 796 435 796 b 444 746 442 780 446 763 b 444 575 443 725 444 597 z "},"Ç":{"ha":671,"x_min":0,"x_max":0,"o":"m 477 397 b 430 336 455 383 437 360 b 423 255 423 310 427 282 b 343 279 399 269 369 280 b 263 238 312 278 282 261 b 257 285 260 254 257 269 b 257 733 257 435 257 583 b 267 797 257 754 260 777 b 408 797 285 797 390 797 b 415 795 411 797 414 797 b 427 704 425 766 422 733 b 644 683 442 588 605 572 b 650 729 648 697 650 714 b 622 885 648 783 641 837 b 571 961 609 913 592 940 b 435 1019 536 996 484 1017 b 234 1019 407 1021 264 1024 b 125 973 195 1014 156 998 b 59 881 95 949 73 916 b 32 714 38 827 32 770 b 37 224 32 646 27 292 b 107 67 45 168 67 108 b 245 3 142 29 195 7 b 210 -123 223 -35 208 -80 b 241 -215 212 -156 223 -188 b 359 -306 269 -257 313 -288 b 417 -309 376 -313 397 -311 b 481 -266 442 -304 464 -286 b 502 -213 494 -252 499 -231 b 495 -156 506 -193 501 -174 b 445 -99 487 -132 466 -114 b 516 25 470 -59 499 -19 b 621 139 562 48 602 91 b 649 303 642 191 649 247 b 477 397 650 391 552 446 z "},"È":{"ha":697,"x_min":0,"x_max":0,"o":"m 568 226 b 288 226 476 226 382 226 b 288 324 288 258 288 292 b 459 327 313 324 434 321 b 447 547 581 356 571 531 b 288 548 424 550 310 550 b 288 733 288 610 288 672 b 298 796 288 756 291 777 b 440 796 316 796 421 796 b 447 795 442 796 445 796 b 458 704 456 766 454 733 b 675 683 473 587 636 572 b 681 729 679 697 681 714 b 651 885 679 782 672 837 b 602 961 640 913 623 940 b 466 1019 567 996 515 1017 b 292 1021 442 1021 316 1022 b 235 1012 273 1019 253 1018 b 222 1017 232 1012 225 1015 b 134 1018 210 1019 148 1018 b 76 1004 114 1018 93 1014 b 33 959 58 993 44 976 b 20 902 23 942 22 921 b 71 812 19 875 49 827 b 64 714 65 779 64 747 b 64 193 64 541 64 367 b 34 148 51 181 40 165 b 124 1 12 83 56 12 b 218 1 138 0 204 1 b 569 1 335 0 452 1 b 681 132 639 1 694 63 b 568 226 671 186 624 226 z m 327 1225 b 505 1134 349 1211 481 1146 b 556 1108 512 1130 549 1110 b 630 1231 631 1080 685 1172 b 490 1371 613 1251 509 1353 b 427 1419 470 1388 451 1406 b 402 1427 418 1423 410 1427 b 327 1225 287 1439 229 1287 z "},"É":{"ha":697,"x_min":0,"x_max":0,"o":"m 364 1105 b 393 1116 375 1106 385 1112 b 617 1234 425 1134 589 1210 b 532 1427 697 1305 639 1436 b 309 1240 472 1423 354 1282 b 280 1190 297 1225 284 1209 b 364 1105 268 1140 313 1094 z m 568 226 b 288 226 476 226 382 226 b 288 324 288 258 288 292 b 459 327 313 324 434 321 b 447 547 581 356 571 531 b 288 548 424 550 310 550 b 288 733 288 610 288 672 b 298 796 288 756 291 777 b 440 796 316 796 421 796 b 447 795 442 796 445 796 b 458 704 456 766 454 733 b 675 683 473 587 636 572 b 681 729 679 697 681 714 b 651 885 679 782 672 837 b 602 961 640 913 623 940 b 466 1019 567 996 515 1017 b 292 1021 442 1021 316 1022 b 235 1012 273 1019 253 1018 b 222 1017 232 1012 225 1015 b 134 1018 210 1019 148 1018 b 76 1004 114 1018 93 1014 b 33 959 58 993 44 976 b 20 902 23 942 22 921 b 71 812 19 875 49 827 b 64 714 65 779 64 747 b 64 193 64 541 64 367 b 34 148 51 181 40 165 b 124 1 12 83 56 12 b 218 1 138 0 204 1 b 569 1 335 0 452 1 b 681 132 639 1 694 63 b 568 226 671 186 624 226 z "},"Ê":{"ha":697,"x_min":0,"x_max":0,"o":"m 183 1057 b 240 1053 201 1050 221 1050 b 292 1077 260 1054 277 1066 b 350 1139 302 1085 341 1130 b 411 1080 369 1119 391 1099 b 504 1056 434 1057 472 1052 b 549 1076 519 1057 536 1066 b 578 1224 597 1111 609 1174 b 428 1374 563 1249 448 1350 b 304 1405 397 1408 347 1421 b 256 1369 285 1397 268 1384 b 134 1234 215 1324 175 1279 b 107 1161 116 1215 107 1186 b 183 1057 109 1115 139 1071 z m 568 226 b 288 226 476 226 382 226 b 288 324 288 258 288 292 b 459 327 313 324 434 321 b 447 547 581 356 571 531 b 288 548 424 550 310 550 b 288 733 288 610 288 672 b 298 796 288 756 291 777 b 440 796 316 796 421 796 b 447 795 442 796 445 796 b 458 704 456 766 454 733 b 675 683 473 587 636 572 b 681 729 679 697 681 714 b 651 885 679 782 672 837 b 602 961 640 913 623 940 b 466 1019 567 996 515 1017 b 292 1021 442 1021 316 1022 b 235 1012 273 1019 253 1018 b 222 1017 232 1012 225 1015 b 134 1018 210 1019 148 1018 b 77 1004 114 1018 93 1014 b 33 959 58 993 44 976 b 20 902 23 942 22 921 b 71 812 19 875 49 827 b 64 714 65 779 64 747 b 64 193 64 541 64 367 b 34 148 51 181 40 165 b 124 1 12 83 56 12 b 218 1 138 0 204 1 b 569 1 335 0 452 1 b 681 132 639 1 694 63 b 568 226 671 186 624 226 z "},"Ë":{"ha":697,"x_min":0,"x_max":0,"o":"m 661 1284 b 489 1287 623 1305 527 1305 b 427 1171 445 1268 420 1218 b 485 1088 431 1137 455 1105 b 605 1074 520 1068 565 1074 b 719 1203 674 1075 729 1134 b 661 1284 713 1235 691 1269 z m 116 1087 b 236 1073 151 1067 196 1071 b 350 1200 305 1073 360 1133 b 292 1283 344 1234 322 1266 b 120 1284 256 1303 158 1303 b 58 1168 78 1266 51 1216 b 116 1087 64 1136 86 1102 z m 298 796 b 440 796 316 796 422 796 b 447 795 442 796 445 796 b 458 704 457 766 454 733 b 675 683 473 587 636 572 b 681 729 679 697 681 714 b 651 885 679 782 673 837 b 602 961 640 913 623 940 b 466 1019 567 996 516 1017 b 293 1021 443 1021 316 1022 b 235 1012 273 1019 253 1018 b 222 1017 232 1012 225 1015 b 134 1018 210 1019 148 1018 b 77 1004 114 1018 93 1014 b 33 959 58 993 44 976 b 21 902 23 942 22 921 b 71 812 19 875 49 827 b 64 714 65 779 64 747 b 64 193 64 541 64 367 b 35 148 51 181 40 165 b 124 1 12 83 56 12 b 218 1 138 0 204 1 b 569 1 335 0 453 1 b 681 132 639 1 694 63 b 569 226 671 186 625 226 b 289 226 476 226 382 226 b 289 324 289 258 289 291 b 460 326 314 324 434 321 b 447 547 582 356 572 531 b 289 548 425 549 311 549 b 289 733 289 610 289 672 b 298 796 288 756 291 777 z "},"Ì":{"ha":343,"x_min":0,"x_max":0,"o":"m 231 1108 b 305 1231 307 1080 360 1172 b 165 1371 287 1251 185 1353 b 102 1419 145 1388 126 1407 b 75 1428 94 1423 85 1428 b 1 1226 -38 1439 -96 1287 b 179 1134 23 1212 155 1146 b 231 1108 186 1130 224 1110 z m 316 892 b 232 1018 326 946 286 1003 b 116 1019 213 1022 136 1022 b 67 998 98 1017 81 1010 b 25 925 46 980 30 953 b 60 827 18 892 35 852 b 58 198 60 617 58 406 b 33 164 49 188 39 176 b 92 14 8 108 35 38 b 255 17 127 0 221 0 b 310 76 279 29 298 50 b 317 116 314 88 315 102 b 283 198 319 146 303 175 b 284 831 283 408 284 620 b 316 892 300 848 312 869 z "},"Í":{"ha":343,"x_min":0,"x_max":0,"o":"m 317 892 b 234 1018 327 946 286 1003 b 116 1019 213 1022 136 1022 b 69 998 100 1017 81 1010 b 25 925 46 980 31 953 b 60 827 20 892 36 852 b 59 198 60 617 59 406 b 35 164 49 188 41 176 b 94 14 8 108 36 38 b 255 17 129 0 222 0 b 310 76 279 29 300 50 b 317 116 316 88 317 102 b 283 198 320 146 303 175 b 285 831 283 408 285 620 b 317 892 300 848 313 869 z m 69 1116 b 293 1234 101 1134 265 1210 b 209 1427 373 1305 315 1436 b -14 1239 147 1423 29 1282 b -45 1190 -28 1225 -41 1209 b 39 1105 -56 1140 -11 1094 b 69 1116 51 1106 60 1112 z "},"Î":{"ha":343,"x_min":0,"x_max":0,"o":"m 317 893 b 233 1018 327 947 286 1004 b 116 1019 213 1024 136 1024 b 67 998 98 1017 81 1010 b 25 927 46 980 29 953 b 60 829 18 892 35 852 b 59 198 60 618 59 408 b 33 165 49 188 39 178 b 92 15 8 109 35 39 b 255 18 127 1 221 1 b 310 77 279 29 299 52 b 317 116 314 90 315 104 b 283 199 320 146 303 177 b 285 831 283 409 285 621 b 317 893 300 850 313 871 z m 394 1224 b 244 1374 378 1249 263 1350 b 119 1405 213 1408 161 1421 b 70 1369 100 1397 84 1384 b -52 1234 29 1324 -11 1279 b -77 1161 -69 1215 -77 1186 b -2 1057 -76 1115 -45 1071 b 56 1053 17 1050 36 1050 b 108 1077 74 1055 92 1066 b 164 1139 118 1085 157 1130 b 227 1080 185 1119 206 1099 b 318 1056 249 1057 287 1052 b 364 1076 335 1057 350 1066 b 394 1224 411 1110 425 1174 z "},"Ï":{"ha":342,"x_min":0,"x_max":0,"o":"m 132 1200 b 75 1283 127 1234 104 1266 b -98 1284 37 1303 -60 1303 b -159 1168 -140 1266 -166 1216 b -102 1087 -155 1136 -131 1102 b 19 1073 -67 1067 -22 1071 b 132 1200 87 1073 142 1133 z m 316 894 b 233 1019 326 948 285 1004 b 116 1021 212 1025 135 1023 b 68 1000 99 1018 80 1011 b 24 927 46 981 30 955 b 60 829 19 893 36 854 b 58 199 60 618 58 409 b 34 167 48 189 40 178 b 93 17 8 109 36 39 b 254 18 127 1 221 3 b 309 77 278 31 299 53 b 316 118 315 89 316 104 b 283 199 319 147 302 178 b 284 833 283 411 284 621 b 316 894 299 850 312 871 z m 444 1284 b 271 1287 406 1305 309 1305 b 210 1171 228 1268 201 1218 b 267 1088 214 1137 238 1105 b 388 1074 302 1068 347 1074 b 500 1203 456 1075 511 1134 b 444 1284 496 1235 473 1269 z "},"Ð":{"ha":794,"x_min":0,"x_max":0,"o":"m 756 730 b 703 930 755 799 742 874 b 550 1021 669 981 613 1014 b 484 1022 541 1021 492 1021 b 349 1021 467 1022 368 1022 b 293 1012 330 1019 312 1018 b 279 1017 291 1012 282 1015 b 192 1018 267 1019 206 1018 b 135 1004 173 1018 152 1014 b 91 959 117 993 103 976 b 77 902 80 942 79 921 b 129 812 77 875 105 827 b 121 638 118 754 121 695 b 44 611 94 638 65 628 b 5 545 24 594 12 571 b 5 507 2 533 3 520 b 120 413 9 453 65 413 l 121 413 b 121 193 121 339 121 266 b 91 148 108 181 97 165 b 183 1 69 82 113 12 b 275 1 195 0 263 1 b 630 1 394 0 512 1 b 683 7 648 1 666 0 b 758 113 728 22 758 66 b 756 730 757 320 759 524 z m 533 226 b 345 226 470 226 408 226 b 345 414 345 287 345 350 b 410 428 368 414 390 418 b 460 485 433 439 449 463 b 460 562 470 509 467 537 b 413 621 455 588 433 607 b 345 638 393 635 369 638 b 356 797 345 690 340 746 b 515 798 378 797 493 795 b 522 797 518 798 520 798 b 533 708 532 768 533 738 b 533 226 533 547 533 386 z "},"Ñ":{"ha":731,"x_min":0,"x_max":0,"o":"m 92 1071 b 189 1063 119 1053 158 1052 b 250 1120 216 1073 238 1094 b 423 1061 305 1092 363 1061 b 542 1105 465 1060 510 1077 b 619 1231 580 1136 607 1183 b 615 1289 624 1249 619 1270 b 566 1348 608 1314 587 1334 b 510 1363 551 1359 530 1362 b 454 1349 490 1366 472 1357 b 405 1293 431 1339 416 1315 b 322 1335 377 1307 350 1321 b 196 1353 284 1352 238 1360 b 114 1314 166 1348 137 1334 b 40 1189 77 1282 53 1235 b 44 1132 35 1171 39 1150 b 92 1071 50 1106 71 1087 z m 677 196 b 677 715 677 370 677 543 b 642 903 677 780 670 846 b 556 994 622 940 593 974 b 462 1022 527 1010 494 1021 b 288 1024 438 1024 312 1025 b 235 1017 270 1022 252 1021 b 133 1021 220 1021 150 1021 b 60 991 107 1019 78 1010 b 25 925 43 973 29 949 b 68 820 18 888 39 844 b 60 717 61 787 60 752 b 60 196 60 544 60 370 b 30 151 47 184 36 168 b 82 17 12 101 35 42 b 203 3 117 -1 162 3 b 260 18 222 4 243 8 b 304 63 279 29 293 46 b 316 121 315 80 316 101 b 284 194 318 147 302 174 b 284 736 284 374 284 555 b 294 799 284 759 288 780 b 436 799 312 799 417 799 b 443 798 438 799 441 799 b 452 735 450 779 452 756 b 452 196 452 555 452 376 b 429 164 443 187 434 175 b 516 6 398 96 441 18 b 615 6 531 3 600 3 b 660 23 632 9 647 14 b 699 65 675 32 688 48 b 712 115 708 79 709 98 b 677 196 715 144 696 175 z "},"Ò":{"ha":682,"x_min":0,"x_max":0,"o":"m 166 1228 b 344 1137 188 1214 320 1148 b 394 1111 351 1133 387 1113 b 469 1234 470 1083 525 1175 b 330 1374 452 1254 349 1356 b 265 1422 310 1391 289 1409 b 240 1430 258 1426 248 1430 b 166 1228 125 1442 69 1290 z m 637 834 b 562 966 625 883 600 932 b 429 1019 527 998 477 1018 b 234 1018 401 1019 262 1022 b 125 972 195 1012 156 997 b 60 883 97 949 76 917 b 32 719 39 833 31 775 b 36 224 32 652 27 292 b 107 66 45 167 67 108 b 253 1 143 27 199 3 b 447 3 281 1 419 -1 b 557 49 487 8 526 24 b 623 142 586 73 609 107 b 649 299 642 191 649 245 b 649 708 649 349 649 658 b 637 834 649 750 647 794 z m 425 289 b 415 227 425 268 422 247 b 408 226 414 224 410 226 b 274 226 390 226 290 226 b 267 227 271 226 268 224 b 257 290 260 247 257 268 b 257 732 257 437 257 585 b 267 794 257 753 260 774 b 274 795 267 797 271 795 b 408 795 290 795 390 795 b 415 794 410 795 414 797 b 425 732 422 774 425 753 b 425 289 425 585 425 436 z "},"Ó":{"ha":682,"x_min":0,"x_max":0,"o":"m 637 834 b 562 966 626 883 600 932 b 429 1019 527 998 477 1018 b 234 1018 401 1019 262 1022 b 125 972 195 1012 156 997 b 60 883 97 949 76 917 b 32 719 39 833 31 775 b 36 224 32 652 27 292 b 107 66 45 167 67 108 b 252 1 143 27 199 3 b 447 3 281 1 419 -1 b 557 49 487 8 526 24 b 623 142 586 73 609 107 b 649 299 642 191 649 245 b 649 708 649 349 649 658 b 637 834 649 750 647 794 z m 425 289 b 415 227 425 268 422 247 b 408 226 414 224 410 226 b 274 226 390 226 290 226 b 267 227 271 226 268 224 b 257 290 260 247 257 268 b 257 732 257 437 257 585 b 267 794 257 753 260 774 b 274 795 267 797 271 795 b 408 795 290 795 390 795 b 415 794 410 795 414 797 b 425 732 422 774 425 753 b 425 289 425 585 425 436 z m 202 1108 b 232 1119 213 1109 223 1115 b 456 1237 265 1137 428 1213 b 372 1430 536 1308 478 1439 b 149 1242 310 1426 192 1284 b 118 1193 135 1228 122 1211 b 202 1108 107 1143 152 1097 z "},"Ô":{"ha":682,"x_min":0,"x_max":0,"o":"m 175 1060 b 231 1056 193 1053 213 1053 b 285 1080 251 1057 268 1068 b 341 1141 294 1088 332 1133 b 404 1083 362 1122 383 1102 b 495 1059 426 1060 464 1055 b 540 1078 512 1060 527 1069 b 571 1227 587 1113 600 1177 b 419 1377 555 1252 440 1353 b 294 1408 390 1411 338 1423 b 247 1371 276 1399 261 1387 b 125 1237 206 1327 165 1282 b 100 1164 108 1217 98 1189 b 175 1060 100 1118 132 1074 z m 637 831 b 581 946 627 874 609 914 b 429 1017 544 989 484 1015 b 234 1015 401 1018 262 1019 b 125 970 195 1010 156 994 b 60 882 97 946 76 914 b 32 718 39 830 31 772 b 36 221 32 649 27 289 b 107 63 45 164 67 105 b 253 -2 143 24 199 0 b 447 0 281 -2 419 -3 b 557 46 487 5 526 21 b 627 150 589 73 613 111 b 649 297 644 198 649 247 b 649 705 649 346 649 656 b 637 831 649 747 646 791 z m 425 286 b 415 224 425 265 422 244 b 408 223 414 221 409 223 b 273 223 390 223 290 223 b 266 224 271 223 268 223 b 257 287 259 245 257 266 b 257 729 257 435 257 582 b 266 791 257 750 259 771 b 273 794 266 794 271 794 b 408 794 290 792 390 792 b 415 791 409 794 414 794 b 425 729 422 771 425 750 b 425 286 425 582 425 435 z "},"Õ":{"ha":682,"x_min":0,"x_max":0,"o":"m 114 1054 b 209 1045 139 1036 178 1035 b 271 1102 236 1056 258 1076 b 443 1043 325 1074 383 1043 b 562 1087 485 1043 530 1060 b 640 1213 600 1119 627 1165 b 635 1271 644 1231 640 1252 b 586 1331 628 1296 607 1316 b 530 1346 571 1342 550 1345 b 474 1332 512 1348 492 1339 b 425 1276 452 1321 436 1299 b 342 1317 397 1289 370 1304 b 216 1335 304 1335 258 1344 b 135 1296 187 1330 157 1316 b 60 1171 97 1265 73 1219 b 64 1114 55 1153 59 1132 b 114 1054 72 1088 93 1068 z m 637 834 b 562 966 625 883 600 932 b 429 1019 527 998 477 1018 b 234 1018 401 1019 262 1022 b 125 972 195 1012 156 997 b 60 883 97 949 76 917 b 32 719 39 833 31 775 b 36 224 32 652 27 292 b 107 66 45 167 67 108 b 253 1 143 27 199 3 b 447 3 281 1 419 -1 b 557 49 487 8 526 24 b 623 142 586 73 609 107 b 649 299 642 191 649 245 b 649 708 649 349 649 658 b 637 834 649 750 647 794 z m 425 289 b 415 227 425 268 422 247 b 408 226 414 224 410 226 b 274 226 390 226 290 226 b 267 227 271 226 268 224 b 257 290 260 247 257 268 b 257 732 257 437 257 585 b 267 794 257 753 260 774 b 274 795 267 797 271 795 b 408 795 290 795 390 795 b 415 794 410 795 414 797 b 425 732 422 774 425 753 b 425 289 425 585 425 436 z "},"Ö":{"ha":682,"x_min":0,"x_max":0,"o":"m 76 1090 b 197 1076 111 1070 156 1074 b 310 1203 265 1076 320 1136 b 253 1286 305 1237 282 1269 b 80 1287 215 1305 118 1305 b 19 1171 38 1269 12 1218 b 76 1090 23 1139 47 1105 z m 638 836 b 581 951 629 878 609 918 b 429 1021 544 993 486 1019 b 236 1019 403 1021 263 1024 b 127 973 197 1014 156 998 b 62 885 97 951 76 918 b 33 721 40 834 33 777 b 38 226 34 653 28 293 b 107 67 47 168 68 109 b 254 3 143 28 201 4 b 448 4 281 3 421 0 b 558 51 487 10 528 25 b 628 154 591 77 614 115 b 651 300 644 201 651 251 b 650 710 651 351 650 661 b 638 836 650 752 648 795 z m 425 290 b 415 229 425 269 422 248 b 408 227 415 226 411 227 b 275 227 392 227 292 227 b 268 229 272 227 268 226 b 258 292 261 248 258 271 b 258 733 258 439 258 586 b 268 795 258 754 261 775 b 275 796 268 798 272 796 b 408 796 292 796 392 796 b 417 795 411 796 415 798 b 425 733 422 775 425 754 b 425 290 425 586 425 437 z m 622 1287 b 449 1290 584 1308 487 1308 b 387 1174 406 1270 379 1221 b 445 1091 392 1140 415 1108 b 566 1077 480 1071 525 1077 b 678 1206 634 1078 689 1137 b 622 1287 673 1238 651 1272 z "},"×":{"ha":618,"x_min":0,"x_max":0,"o":"m 211 136 b 309 233 226 147 296 219 b 393 150 337 205 365 177 b 581 201 455 88 558 117 b 564 293 589 231 582 268 b 469 391 553 310 483 377 b 564 489 483 405 553 473 b 577 593 585 519 590 557 b 408 645 551 662 467 687 b 309 550 391 634 323 564 b 210 645 295 564 226 634 b 138 665 189 659 163 665 b 83 645 118 665 100 655 b 45 602 66 635 55 618 b 55 488 25 569 32 519 b 150 391 66 473 136 405 b 55 293 136 377 66 309 b 45 181 31 261 28 218 b 211 136 75 118 153 97 z "},"Ø":{"ha":893,"x_min":0,"x_max":0,"o":"m 788 942 b 704 903 757 942 725 925 b 649 972 690 930 672 954 b 554 1015 621 994 588 1008 b 327 1018 518 1022 363 1022 b 217 972 288 1012 248 997 b 153 884 189 949 167 917 b 123 719 130 833 123 775 b 125 311 125 583 125 447 b 123 293 125 307 126 296 b 10 171 105 275 23 192 b 163 18 -48 72 65 -39 b 208 58 181 28 194 44 b 352 2 245 23 300 4 b 539 3 380 -1 512 -1 b 649 49 578 9 619 24 b 715 142 679 73 701 107 b 742 299 735 191 742 246 b 742 619 742 338 742 579 b 874 757 759 637 858 738 b 788 942 934 831 882 942 z m 518 311 b 508 227 518 283 516 254 b 499 226 506 224 502 226 b 368 226 483 226 384 226 b 518 383 417 278 467 331 b 518 311 518 359 518 335 z m 349 531 b 349 732 349 599 349 665 b 359 794 349 753 352 774 b 366 795 359 796 363 795 b 499 795 383 795 483 795 b 508 794 502 795 507 796 b 518 708 516 766 518 736 b 349 531 462 649 405 590 z "},"Ù":{"ha":729,"x_min":0,"x_max":0,"o":"m 699 959 b 633 1014 685 984 660 1005 b 567 1019 612 1021 590 1019 b 472 1003 535 1021 500 1019 b 419 924 444 987 426 955 b 453 827 413 890 429 853 b 453 287 453 648 453 468 b 443 226 453 266 450 245 b 434 224 441 223 437 224 b 294 224 417 224 312 224 b 284 287 287 244 284 266 b 284 830 284 468 284 649 b 315 886 298 846 311 865 b 221 1018 329 948 284 1008 b 116 1018 204 1022 133 1022 b 25 924 68 1008 33 972 b 60 827 18 890 35 851 b 60 307 60 653 60 481 b 68 203 60 272 62 237 b 31 151 52 189 38 171 b 26 92 24 133 22 112 b 67 26 32 67 47 43 b 115 4 81 14 98 10 b 235 7 137 -2 213 1 b 488 4 279 -4 444 -4 b 585 48 523 11 556 25 b 646 129 611 69 632 98 b 677 300 668 182 677 243 b 677 827 677 364 677 763 b 711 890 694 844 706 866 b 699 959 713 904 706 947 z m 218 1228 b 396 1137 241 1214 372 1148 b 447 1111 403 1133 440 1113 b 521 1234 522 1083 576 1175 b 382 1374 504 1254 401 1356 b 318 1422 361 1391 342 1409 b 292 1430 309 1426 301 1430 b 218 1228 178 1442 120 1290 z "},"Ú":{"ha":729,"x_min":0,"x_max":0,"o":"m 306 1108 b 336 1119 316 1109 326 1115 b 559 1237 368 1137 532 1213 b 475 1430 639 1308 581 1439 b 252 1242 414 1426 297 1284 b 222 1193 238 1228 227 1211 b 306 1108 211 1143 256 1097 z m 699 959 b 633 1014 685 984 660 1005 b 567 1021 612 1021 590 1019 b 472 1003 535 1021 500 1019 b 419 924 444 987 426 955 b 453 827 413 890 429 853 b 453 289 453 648 453 468 b 443 226 453 268 450 245 b 434 224 441 223 437 224 b 294 224 417 224 312 224 b 284 287 287 245 284 266 b 284 830 284 468 284 649 b 315 886 298 846 311 865 b 221 1019 329 948 284 1008 b 116 1018 204 1022 133 1022 b 25 924 68 1008 33 973 b 60 827 18 890 35 851 b 60 307 60 653 60 481 b 68 203 60 273 62 238 b 31 151 52 191 38 172 b 26 92 24 133 22 112 b 67 26 32 67 47 43 b 115 5 81 14 98 10 b 235 7 137 -2 213 1 b 488 4 279 -4 444 -4 b 585 48 523 11 556 25 b 646 129 611 70 632 98 b 677 300 668 182 677 243 b 677 827 677 364 677 763 b 711 890 694 844 706 866 b 699 959 713 906 706 947 z "},"Û":{"ha":729,"x_min":0,"x_max":0,"o":"m 201 1060 b 259 1056 219 1053 239 1053 b 311 1080 277 1057 295 1068 b 367 1141 321 1088 360 1133 b 430 1083 388 1122 409 1102 b 521 1059 452 1060 490 1055 b 567 1078 538 1060 553 1069 b 597 1227 614 1113 628 1177 b 447 1377 581 1252 466 1353 b 322 1408 416 1411 364 1423 b 273 1371 302 1399 287 1387 b 151 1237 232 1327 192 1282 b 126 1164 134 1217 126 1189 b 201 1060 127 1118 158 1074 z m 699 961 b 633 1015 685 986 660 1005 b 567 1021 612 1022 590 1021 b 472 1004 535 1022 500 1021 b 419 924 444 987 426 956 b 453 829 413 892 429 853 b 453 289 453 649 453 468 b 443 227 453 268 450 247 b 434 224 441 224 437 224 b 294 226 417 226 312 226 b 284 289 287 245 284 268 b 284 830 284 470 284 651 b 315 888 298 847 311 867 b 221 1019 329 949 284 1008 b 116 1019 204 1024 133 1024 b 25 925 68 1008 33 973 b 60 827 18 892 35 853 b 60 308 60 655 60 481 b 68 205 60 273 62 238 b 31 153 52 191 38 172 b 26 94 24 133 22 113 b 67 26 32 69 47 45 b 115 5 81 15 98 11 b 235 8 137 0 213 3 b 488 5 279 -3 444 -3 b 585 49 523 12 556 26 b 646 130 611 70 632 99 b 677 301 668 184 677 242 b 677 827 677 366 677 763 b 711 892 694 846 706 868 b 699 961 713 906 706 948 z "},"Ü":{"ha":729,"x_min":0,"x_max":0,"o":"m 455 1091 b 577 1077 492 1071 536 1077 b 689 1206 646 1078 701 1137 b 632 1287 685 1238 661 1272 b 461 1290 595 1308 499 1308 b 398 1174 417 1271 391 1221 b 455 1091 403 1140 426 1108 z m 86 1090 b 208 1076 123 1070 168 1074 b 321 1203 277 1076 332 1136 b 265 1286 316 1237 294 1269 b 92 1287 227 1305 130 1305 b 30 1171 49 1269 22 1218 b 86 1090 34 1139 58 1105 z m 699 961 b 633 1015 685 984 660 1005 b 567 1021 612 1022 590 1019 b 472 1004 535 1022 500 1019 b 419 924 444 987 426 955 b 453 829 413 890 429 853 b 453 289 453 648 453 468 b 443 227 453 268 450 247 b 434 224 441 224 437 224 b 294 224 417 224 312 226 b 284 289 287 245 284 266 b 284 830 284 468 284 649 b 315 886 298 847 311 865 b 221 1019 329 949 284 1008 b 116 1019 204 1022 133 1022 b 25 925 68 1008 33 973 b 60 827 18 892 35 853 b 60 308 60 655 60 481 b 68 205 60 273 62 238 b 31 151 52 191 38 172 b 26 94 24 133 22 112 b 67 26 32 68 47 45 b 115 5 81 15 98 10 b 235 8 137 0 213 1 b 488 5 279 -3 444 -3 b 585 49 523 11 556 26 b 646 130 611 70 632 99 b 677 300 668 182 677 242 b 677 827 677 364 677 763 b 711 892 694 845 706 868 b 699 961 713 906 706 947 z "},"Ý":{"ha":715,"x_min":0,"x_max":0,"o":"m 285 1108 b 315 1119 296 1109 306 1115 b 539 1237 348 1137 511 1213 b 455 1430 619 1308 561 1439 b 232 1242 393 1426 275 1284 b 201 1193 218 1228 205 1211 b 285 1108 190 1143 235 1097 z m 644 1004 b 473 1011 609 1026 512 1026 b 417 960 449 1003 431 982 b 405 904 407 944 406 923 b 438 830 403 876 420 850 b 427 701 438 786 441 742 b 319 701 413 698 334 701 b 280 700 313 701 284 700 b 268 823 266 739 268 781 b 301 869 282 836 294 851 b 253 1001 317 920 298 973 b 82 1010 218 1025 121 1025 b 26 959 58 1000 40 980 b 13 902 16 942 15 921 b 44 830 12 876 27 850 b 46 725 44 795 43 760 b 123 536 51 658 75 583 b 281 475 163 496 225 475 b 438 477 302 475 417 475 b 438 287 438 413 438 350 b 427 224 438 266 434 244 b 287 224 410 224 303 224 b 280 226 284 224 280 224 b 266 325 268 258 273 293 b 232 384 261 348 249 369 b 58 353 179 433 92 418 b 46 291 48 335 44 312 b 74 136 46 238 53 184 b 130 54 86 105 106 77 b 259 1 165 24 212 4 b 459 1 288 0 431 -3 b 570 47 499 7 539 22 b 644 167 606 77 632 122 b 662 307 658 212 662 259 b 662 827 662 479 662 653 b 644 1004 714 879 706 965 z "},"à":{"ha":724,"x_min":0,"x_max":0,"o":"m 212 1229 b 390 1137 235 1214 367 1149 b 441 1111 397 1133 434 1114 b 515 1234 517 1083 571 1175 b 376 1374 498 1254 396 1356 b 312 1422 357 1391 336 1409 b 287 1430 305 1426 295 1430 b 212 1229 172 1442 116 1290 z m 670 195 b 670 743 670 264 672 675 b 626 916 668 802 657 865 b 456 1021 590 979 528 1017 b 256 1021 427 1022 284 1025 b 145 975 217 1015 176 1000 b 79 882 116 951 93 917 b 53 715 58 830 53 771 b 53 195 53 543 53 369 b 23 150 40 182 29 167 b 75 15 6 100 29 41 b 196 1 111 -3 156 1 b 254 17 217 3 238 7 b 298 62 271 28 287 45 b 311 119 308 79 309 100 b 277 192 312 146 295 173 b 277 316 277 234 277 275 b 407 314 295 314 390 314 b 445 316 420 314 433 314 b 445 195 445 275 445 236 b 421 163 437 185 427 174 b 508 4 390 94 435 17 b 609 4 525 2 594 2 b 654 21 625 7 640 13 b 692 63 670 31 682 46 b 705 114 702 77 703 97 b 670 195 707 143 691 174 z m 445 595 b 435 540 445 576 441 557 b 288 540 417 537 308 540 b 277 616 280 564 277 590 b 278 746 277 633 277 729 b 288 798 278 764 283 781 b 428 798 305 798 412 798 b 435 797 431 798 435 798 b 445 733 442 777 445 755 b 445 595 445 687 445 641 z "},"á":{"ha":724,"x_min":0,"x_max":0,"o":"m 298 1101 b 327 1113 308 1104 317 1108 b 550 1230 360 1132 522 1206 b 466 1425 630 1301 573 1432 b 243 1235 404 1421 288 1278 b 214 1186 229 1223 218 1206 b 298 1101 203 1136 246 1091 z m 669 195 b 669 743 669 264 672 675 b 626 916 668 802 657 865 b 456 1021 589 979 528 1017 b 256 1021 427 1022 284 1025 b 145 975 217 1015 176 1000 b 79 882 116 951 93 917 b 53 715 58 830 53 771 b 53 195 53 543 53 369 b 23 150 40 182 29 167 b 75 15 6 99 29 40 b 196 1 111 -3 156 1 b 254 17 217 3 238 7 b 298 62 271 28 287 45 b 311 119 308 78 309 100 b 277 192 312 146 295 172 b 277 315 277 234 277 275 b 407 314 295 314 390 314 b 445 315 420 314 433 314 b 445 195 445 275 445 235 b 421 163 437 185 427 174 b 508 4 390 94 435 17 b 609 4 525 1 594 1 b 654 21 625 7 640 13 b 692 63 670 31 682 46 b 705 114 702 77 703 97 b 669 195 707 143 690 174 z m 445 595 b 435 540 445 576 441 557 b 288 540 417 537 308 540 b 277 616 280 564 277 590 b 278 746 277 633 277 729 b 288 798 278 764 282 781 b 428 798 305 798 411 798 b 435 797 431 798 435 798 b 445 733 442 777 445 755 b 445 595 445 687 445 641 z "},"â":{"ha":724,"x_min":0,"x_max":0,"o":"m 209 1066 b 265 1062 228 1060 247 1060 b 319 1087 285 1064 303 1076 b 375 1149 329 1094 366 1139 b 438 1088 396 1129 417 1108 b 529 1064 460 1067 498 1062 b 575 1084 546 1066 561 1074 b 605 1233 622 1119 634 1184 b 453 1383 589 1259 474 1360 b 329 1414 424 1418 372 1430 b 281 1379 310 1407 295 1393 b 159 1244 240 1334 200 1289 b 134 1170 142 1224 132 1196 b 209 1066 134 1123 166 1081 z m 669 195 b 669 743 669 264 672 675 b 626 916 668 802 657 865 b 456 1021 589 979 528 1017 b 256 1021 427 1022 284 1025 b 145 975 217 1015 176 1000 b 79 882 116 951 93 917 b 53 715 58 830 53 771 b 53 195 53 543 53 369 b 23 150 40 182 29 167 b 75 15 6 99 29 40 b 196 1 111 -3 156 1 b 254 17 217 3 238 7 b 298 62 271 28 287 45 b 311 119 308 78 309 100 b 277 192 312 146 295 172 b 277 315 277 234 277 275 b 407 314 295 314 390 314 b 445 315 420 314 433 314 b 445 195 445 275 445 235 b 421 163 437 185 427 174 b 508 4 390 94 435 17 b 609 4 525 1 594 1 b 654 21 625 7 640 13 b 692 63 670 31 682 46 b 705 114 702 77 703 97 b 669 195 707 143 690 174 z m 445 595 b 435 540 445 576 441 557 b 288 540 417 537 308 540 b 277 616 280 564 277 590 b 278 746 277 633 277 729 b 288 798 278 764 282 781 b 428 798 305 798 411 798 b 435 797 431 798 435 798 b 445 733 442 777 445 755 b 445 595 445 687 445 641 z "},"ã":{"ha":724,"x_min":0,"x_max":0,"o":"m 159 1077 b 254 1067 186 1059 225 1056 b 317 1125 282 1077 305 1098 b 490 1066 371 1097 428 1066 b 608 1109 532 1066 576 1083 b 685 1236 646 1142 672 1188 b 681 1293 691 1254 686 1275 b 633 1353 674 1318 653 1338 b 577 1369 616 1363 595 1367 b 521 1353 557 1370 538 1362 b 472 1297 498 1344 482 1320 b 389 1339 444 1311 417 1327 b 263 1358 350 1358 305 1366 b 180 1318 233 1352 204 1338 b 106 1194 144 1288 118 1241 b 110 1136 101 1175 106 1154 b 159 1077 117 1111 138 1091 z m 669 195 b 669 743 669 264 672 675 b 626 916 668 802 657 865 b 456 1021 589 979 528 1017 b 256 1021 427 1022 284 1025 b 145 975 217 1015 176 1000 b 79 882 116 951 93 917 b 53 715 58 830 53 771 b 53 195 53 543 53 369 b 23 150 40 182 29 167 b 75 15 6 99 29 40 b 196 1 111 -3 156 1 b 254 17 217 3 238 7 b 298 62 271 28 287 45 b 311 119 308 78 309 100 b 277 192 312 146 295 172 b 277 315 277 234 277 275 b 407 314 295 314 390 314 b 445 315 420 314 433 314 b 445 195 445 275 445 235 b 421 163 437 185 427 174 b 508 4 390 94 435 17 b 609 4 525 1 594 1 b 654 21 625 7 640 13 b 692 63 670 31 682 46 b 705 114 702 77 703 97 b 669 195 707 143 690 174 z m 445 595 b 435 540 445 576 441 557 b 288 540 417 537 308 540 b 277 616 280 564 277 590 b 278 746 277 633 277 729 b 288 798 278 764 282 781 b 428 798 305 798 411 798 b 435 797 431 798 435 798 b 445 733 442 777 445 755 b 445 595 445 687 445 641 z "},"ä":{"ha":724,"x_min":0,"x_max":0,"o":"m 465 1090 b 585 1076 500 1070 545 1076 b 699 1203 654 1076 709 1136 b 641 1286 693 1237 671 1271 b 469 1289 603 1306 507 1306 b 407 1171 425 1269 400 1219 b 465 1090 411 1139 435 1105 z m 669 195 b 669 743 669 264 672 675 b 626 916 668 802 657 865 b 456 1021 589 979 528 1017 b 256 1021 427 1022 284 1025 b 145 975 216 1015 176 1000 b 79 882 116 951 93 917 b 52 715 58 830 52 771 b 52 195 52 543 52 369 b 23 150 40 182 29 167 b 75 15 6 99 29 40 b 196 1 111 -3 156 1 b 254 17 217 3 238 7 b 298 62 271 28 287 45 b 310 119 308 78 309 100 b 277 192 312 146 295 172 b 277 315 277 234 277 275 b 407 314 295 314 390 314 b 445 315 420 314 433 314 b 445 195 445 275 445 235 b 421 163 437 185 427 174 b 508 4 390 94 435 17 b 609 4 525 1 594 1 b 654 21 625 7 640 13 b 692 63 670 31 682 46 b 705 114 702 77 703 97 b 669 195 707 143 690 174 z m 445 595 b 435 540 445 576 441 557 b 288 540 417 537 308 540 b 277 616 280 564 277 590 b 278 746 277 633 277 729 b 288 798 278 764 282 781 b 428 798 305 798 411 798 b 435 797 431 798 435 798 b 445 733 442 777 445 755 b 445 595 445 687 445 641 z m 96 1087 b 216 1073 131 1067 176 1073 b 330 1202 285 1074 340 1133 b 273 1283 325 1234 302 1268 b 100 1286 235 1304 138 1303 b 38 1170 58 1267 31 1217 b 96 1087 43 1136 66 1102 z "},"å":{"ha":724,"x_min":0,"x_max":0,"o":"m 669 195 b 669 743 669 264 672 675 b 626 916 668 802 657 865 b 456 1021 589 979 528 1017 b 256 1021 427 1022 284 1025 b 145 975 217 1015 176 1000 b 79 882 116 951 93 917 b 53 715 58 830 53 771 b 53 195 53 543 53 369 b 23 150 40 182 29 167 b 75 15 6 99 29 40 b 196 1 111 -3 156 1 b 254 17 217 3 238 7 b 298 62 271 28 287 45 b 311 119 308 78 309 100 b 277 192 312 146 295 172 b 277 315 277 234 277 275 b 407 314 295 314 390 314 b 445 315 420 314 433 314 b 445 195 445 275 445 235 b 421 163 437 185 427 174 b 508 4 390 94 435 17 b 609 4 525 1 594 1 b 654 21 625 7 640 13 b 692 63 670 31 682 46 b 705 114 702 77 703 97 b 669 195 707 143 690 174 z m 445 595 b 435 540 445 576 441 557 b 288 540 417 537 308 540 b 277 616 280 564 277 590 b 278 746 277 633 277 729 b 288 798 278 764 282 781 b 428 798 305 798 411 798 b 435 797 431 798 435 798 b 445 733 442 777 445 755 b 445 595 445 687 445 641 z m 219 1095 b 312 1059 243 1073 280 1062 b 413 1060 326 1059 400 1059 b 510 1106 449 1060 487 1078 b 545 1213 534 1136 543 1175 b 545 1343 546 1230 545 1327 b 527 1411 545 1356 532 1399 b 412 1486 504 1457 462 1485 b 311 1486 399 1486 325 1488 b 222 1453 280 1485 246 1475 b 177 1360 197 1430 183 1394 b 176 1209 173 1338 175 1231 b 219 1095 179 1168 191 1125 z m 315 1359 b 399 1360 326 1360 388 1359 b 403 1357 400 1360 403 1360 b 410 1272 413 1331 410 1300 b 404 1187 410 1243 414 1213 b 320 1187 393 1185 332 1187 b 312 1202 313 1185 313 1195 b 309 1273 310 1212 309 1264 b 315 1359 309 1301 305 1332 z "},"æ":{"ha":1076,"x_min":0,"x_max":0,"o":"m 951 225 b 670 225 857 225 764 225 b 670 324 670 258 670 290 b 834 326 694 324 812 321 b 904 368 861 330 887 347 b 820 548 958 441 910 543 b 670 548 801 550 690 548 b 670 743 670 572 670 718 b 679 797 670 762 673 780 b 820 797 697 797 802 797 b 827 795 823 797 827 797 b 837 748 833 780 836 763 b 844 682 838 725 837 703 b 1053 675 879 586 1012 582 b 1061 729 1060 691 1061 711 b 1036 878 1061 780 1054 830 b 983 961 1023 907 1007 937 b 847 1020 948 996 896 1017 b 673 1021 823 1021 697 1023 b 615 1013 653 1020 634 1018 b 603 1017 614 1013 605 1015 b 514 1018 590 1020 528 1018 b 489 1017 510 1018 492 1015 b 241 1018 447 1027 283 1027 b 146 975 206 1011 172 997 b 75 872 113 948 90 910 b 53 715 57 822 53 769 b 53 195 53 543 53 369 l 52 195 b 70 18 0 143 8 58 b 196 2 106 -4 154 2 b 303 73 244 3 284 30 b 310 112 307 86 308 100 b 277 192 312 142 296 171 b 277 316 277 235 277 275 b 401 314 294 314 384 314 b 444 316 415 314 429 314 b 444 194 444 275 444 235 l 443 194 b 461 17 391 142 399 56 b 598 2 500 -7 552 2 b 949 0 715 0 833 0 b 1061 132 1019 0 1074 64 b 951 225 1053 187 1005 225 z m 444 576 b 436 540 444 571 437 546 b 306 540 419 539 324 540 b 287 541 300 540 290 536 b 278 616 280 565 278 590 b 278 746 278 633 278 729 b 287 798 279 764 282 781 b 429 798 306 798 411 798 b 436 797 432 798 435 798 b 444 748 442 781 446 764 b 444 576 443 726 444 599 z "},"ç":{"ha":671,"x_min":0,"x_max":0,"o":"m 477 398 b 430 338 455 384 437 362 b 423 257 423 311 427 283 b 343 281 399 271 369 282 b 263 240 312 279 282 262 b 257 286 260 255 257 271 b 257 735 257 436 257 585 b 267 798 257 756 260 778 b 408 798 285 798 390 798 b 415 797 411 798 414 798 b 427 706 425 767 422 735 b 644 685 442 589 605 574 b 650 731 648 699 650 715 b 622 887 648 784 641 839 b 571 962 609 915 592 941 b 435 1021 536 997 484 1018 b 234 1021 407 1023 264 1025 b 125 975 195 1015 156 1000 b 59 882 95 951 73 917 b 32 715 38 829 32 771 b 37 226 32 648 27 293 b 107 69 45 170 67 110 b 245 4 142 31 195 9 b 210 -122 223 -33 208 -78 b 241 -213 212 -154 223 -186 b 359 -304 269 -255 313 -286 b 417 -307 376 -311 397 -310 b 481 -265 442 -303 464 -284 b 502 -212 494 -251 499 -230 b 495 -154 506 -192 501 -172 b 445 -98 487 -130 466 -112 b 516 27 470 -57 499 -18 b 621 140 562 49 602 93 b 649 304 642 192 649 248 b 477 398 650 393 552 447 z "},"è":{"ha":697,"x_min":0,"x_max":0,"o":"m 327 1222 b 505 1131 349 1208 481 1142 b 556 1105 512 1127 549 1107 b 630 1228 631 1077 685 1169 b 490 1368 613 1248 509 1350 b 427 1416 470 1385 451 1403 b 402 1424 418 1420 410 1424 b 327 1222 287 1436 229 1284 z m 568 223 b 288 223 476 223 382 223 b 288 321 288 255 288 288 b 459 323 313 321 434 318 b 447 544 581 353 571 528 b 288 545 424 546 310 546 b 288 730 288 607 288 668 b 298 793 288 753 291 774 b 440 793 316 793 421 793 b 447 792 442 793 445 793 b 458 701 456 762 454 730 b 675 680 473 584 636 569 b 681 726 679 694 681 711 b 651 882 679 779 672 834 b 602 957 640 910 623 936 b 466 1016 567 992 515 1013 b 292 1018 442 1018 316 1019 b 235 1009 273 1016 253 1015 b 222 1013 232 1009 225 1012 b 134 1015 210 1016 148 1015 b 76 1001 114 1015 93 1011 b 33 956 58 990 44 973 b 20 898 23 939 22 918 b 71 809 19 872 49 824 b 64 710 65 776 64 744 b 64 190 64 538 64 364 b 34 145 51 178 40 162 b 124 -2 12 79 56 9 b 218 -2 138 -3 204 -2 b 569 -2 335 -3 452 -2 b 681 128 639 -2 694 60 b 568 223 671 183 624 223 z "},"é":{"ha":697,"x_min":0,"x_max":0,"o":"m 364 1102 b 393 1113 375 1103 385 1109 b 617 1231 425 1131 589 1207 b 532 1424 697 1302 639 1433 b 309 1236 472 1420 354 1278 b 280 1187 297 1222 284 1205 b 364 1102 268 1137 313 1091 z m 568 223 b 288 223 476 223 382 223 b 288 321 288 255 288 288 b 459 323 313 321 434 318 b 447 544 581 353 571 528 b 288 545 424 546 310 546 b 288 730 288 607 288 668 b 298 793 288 753 291 774 b 440 793 316 793 421 793 b 447 792 442 793 445 793 b 458 701 456 762 454 730 b 675 680 473 584 636 569 b 681 726 679 694 681 711 b 651 882 679 779 672 834 b 602 957 640 910 623 936 b 466 1016 567 992 515 1013 b 292 1018 442 1018 316 1019 b 235 1009 273 1016 253 1015 b 222 1013 232 1009 225 1012 b 134 1015 210 1016 148 1015 b 76 1001 114 1015 93 1011 b 33 956 58 990 44 973 b 20 898 23 939 22 918 b 71 809 19 872 49 824 b 64 710 65 776 64 744 b 64 190 64 538 64 364 b 34 145 51 178 40 162 b 124 -2 12 79 56 9 b 218 -2 138 -3 204 -2 b 569 -2 335 -3 452 -2 b 681 128 639 -2 694 60 b 568 223 671 183 624 223 z "},"ê":{"ha":697,"x_min":0,"x_max":0,"o":"m 183 1054 b 240 1050 201 1047 221 1047 b 292 1074 260 1051 277 1063 b 350 1136 302 1082 341 1127 b 411 1077 369 1116 391 1096 b 504 1053 434 1054 472 1049 b 549 1073 519 1054 536 1063 b 578 1221 597 1108 609 1171 b 428 1371 563 1246 448 1347 b 304 1402 397 1405 347 1418 b 256 1366 285 1394 268 1381 b 134 1231 215 1321 175 1276 b 107 1158 116 1212 107 1183 b 183 1054 109 1112 139 1068 z m 568 223 b 288 223 476 223 382 223 b 288 321 288 255 288 288 b 459 323 313 321 434 318 b 447 544 581 353 571 528 b 288 545 424 546 310 546 b 288 730 288 607 288 668 b 298 793 288 753 291 774 b 440 793 316 793 421 793 b 447 792 442 793 445 793 b 458 701 456 762 454 730 b 675 680 473 584 636 569 b 681 726 679 694 681 711 b 651 882 679 779 672 834 b 602 957 640 910 623 936 b 466 1016 567 992 515 1013 b 292 1018 442 1018 316 1019 b 235 1009 273 1016 253 1015 b 222 1013 232 1009 225 1012 b 134 1015 210 1016 148 1015 b 77 1001 114 1015 93 1011 b 33 956 58 990 44 973 b 20 898 23 939 22 918 b 71 809 19 872 49 824 b 64 710 65 776 64 744 b 64 190 64 538 64 364 b 34 145 51 178 40 162 b 124 -2 12 79 56 9 b 218 -2 138 -3 204 -2 b 569 -2 335 -3 452 -2 b 681 128 639 -2 694 60 b 568 223 671 183 624 223 z "},"ë":{"ha":697,"x_min":0,"x_max":0,"o":"m 661 1281 b 489 1284 623 1302 527 1302 b 427 1168 445 1265 420 1215 b 485 1085 431 1134 455 1102 b 605 1071 520 1065 565 1071 b 719 1200 674 1072 729 1131 b 661 1281 713 1232 691 1266 z m 116 1084 b 236 1070 151 1064 196 1068 b 350 1197 305 1070 360 1130 b 292 1280 344 1231 322 1263 b 120 1281 256 1299 158 1299 b 58 1165 78 1263 51 1213 b 116 1084 64 1133 86 1099 z m 298 793 b 440 793 316 793 422 793 b 447 792 442 793 445 793 b 458 701 457 763 454 730 b 675 680 473 584 636 569 b 681 726 679 694 681 711 b 651 882 679 779 673 834 b 602 957 640 910 623 936 b 466 1016 567 993 516 1013 b 293 1018 443 1018 316 1019 b 235 1009 273 1016 253 1015 b 222 1013 232 1009 225 1012 b 134 1015 210 1016 148 1015 b 77 1001 114 1015 93 1011 b 33 956 58 990 44 973 b 21 898 23 939 22 918 b 71 809 19 872 49 824 b 64 711 65 776 64 744 b 64 190 64 538 64 364 b 35 145 51 178 40 162 b 124 -2 12 80 56 9 b 218 -2 138 -3 204 -2 b 569 -2 335 -3 453 -2 b 681 129 639 -2 694 60 b 569 223 671 183 625 223 b 289 223 476 223 382 223 b 289 321 289 255 289 288 b 460 323 314 321 434 318 b 447 544 582 353 572 528 b 289 545 425 546 311 546 b 289 730 289 607 289 668 b 298 793 288 753 291 774 z "},"ì":{"ha":343,"x_min":0,"x_max":0,"o":"m 231 1105 b 305 1228 307 1077 360 1169 b 165 1368 287 1248 185 1350 b 102 1416 145 1385 126 1403 b 75 1424 94 1420 85 1424 b 1 1222 -38 1436 -96 1284 b 179 1131 23 1208 155 1142 b 231 1105 186 1127 224 1107 z m 316 889 b 232 1015 326 943 286 999 b 116 1016 213 1019 136 1019 b 67 995 98 1013 81 1006 b 25 922 46 977 30 950 b 60 824 18 889 35 849 b 58 194 60 614 58 403 b 33 161 49 185 39 173 b 92 11 8 105 35 35 b 255 14 127 -3 221 -3 b 310 73 279 26 298 47 b 317 113 314 85 315 99 b 283 195 319 143 303 172 b 284 828 283 405 284 617 b 316 889 300 845 312 866 z "},"í":{"ha":343,"x_min":0,"x_max":0,"o":"m 317 889 b 234 1015 327 943 286 999 b 116 1016 213 1019 136 1019 b 69 995 100 1013 81 1006 b 25 922 46 977 31 950 b 60 824 20 889 36 849 b 59 194 60 614 59 403 b 35 161 49 185 41 173 b 94 11 8 105 36 35 b 255 14 129 -3 222 -3 b 310 73 279 26 300 47 b 317 113 316 85 317 99 b 283 195 320 143 303 172 b 285 828 283 405 285 617 b 317 889 300 845 313 866 z m 69 1113 b 293 1231 101 1131 265 1207 b 209 1424 373 1302 315 1433 b -14 1236 147 1420 29 1278 b -45 1187 -28 1222 -41 1205 b 39 1102 -56 1137 -11 1090 b 69 1113 51 1103 60 1109 z "},"î":{"ha":343,"x_min":0,"x_max":0,"o":"m 317 890 b 232 1015 326 943 286 1001 b 116 1016 213 1020 136 1020 b 67 995 98 1013 81 1006 b 25 924 46 977 29 950 b 60 825 18 889 35 849 b 59 194 60 615 59 405 b 33 162 49 185 39 175 b 92 12 8 106 35 36 b 255 15 127 -2 221 -2 b 310 74 279 26 299 49 b 317 113 314 86 315 100 b 283 196 320 143 303 173 b 285 828 283 406 285 618 b 317 890 300 847 312 868 z m 394 1221 b 244 1371 379 1246 263 1347 b 119 1402 213 1405 161 1417 b 70 1366 100 1394 84 1381 b -52 1231 29 1321 -11 1276 b -77 1158 -69 1211 -77 1183 b -2 1054 -76 1112 -45 1068 b 56 1050 17 1047 36 1047 b 108 1074 74 1052 92 1063 b 164 1136 118 1082 157 1127 b 227 1077 185 1116 206 1096 b 318 1053 249 1054 287 1049 b 364 1073 335 1054 350 1063 b 394 1221 411 1107 425 1171 z "},"ï":{"ha":342,"x_min":0,"x_max":0,"o":"m 132 1197 b 75 1280 127 1231 104 1263 b -98 1281 37 1300 -60 1300 b -159 1165 -140 1263 -166 1213 b -102 1084 -155 1133 -131 1099 b 19 1070 -67 1064 -22 1068 b 132 1197 87 1070 142 1130 z m 444 1281 b 271 1284 406 1302 309 1302 b 210 1168 228 1265 201 1215 b 267 1085 214 1134 238 1102 b 388 1071 302 1065 347 1071 b 500 1200 456 1072 511 1131 b 444 1281 496 1232 473 1266 z m 316 891 b 234 1016 326 945 285 1001 b 116 1018 212 1022 135 1020 b 68 997 99 1015 81 1008 b 25 924 46 978 30 952 b 60 825 19 890 36 851 b 58 196 60 615 58 406 b 34 164 48 186 40 175 b 93 14 8 106 36 36 b 255 15 127 -2 221 0 b 309 74 278 28 299 50 b 316 114 315 86 316 100 b 283 196 319 144 302 175 b 284 830 283 407 284 618 b 316 891 299 847 312 868 z "},"ð":{"ha":794,"x_min":0,"x_max":0,"o":"m 683 6 b 758 113 728 22 758 65 b 756 730 758 319 759 524 b 703 929 755 799 742 873 b 550 1020 669 981 613 1013 b 484 1021 541 1020 492 1020 b 349 1020 467 1021 368 1021 b 293 1012 330 1019 311 1017 b 279 1016 290 1012 282 1014 b 192 1017 267 1019 206 1017 b 135 1003 173 1017 152 1013 b 91 958 117 992 102 975 b 77 901 80 942 79 920 b 129 811 77 874 105 827 b 121 637 118 754 121 695 b 44 611 94 637 65 628 b 5 545 24 594 12 570 b 5 507 2 532 3 520 b 120 413 9 452 65 413 l 121 413 b 121 193 121 339 121 266 b 91 148 108 180 97 165 b 183 1 69 82 112 12 b 275 1 195 -1 263 1 b 630 1 394 -1 512 1 b 683 6 648 1 666 -1 z m 345 225 b 345 413 345 287 345 350 b 410 427 368 413 390 417 b 460 484 434 438 449 462 b 460 561 470 508 467 536 b 413 620 454 587 434 606 b 345 637 393 634 369 637 b 356 796 345 689 340 745 b 515 797 378 796 492 794 b 522 796 518 797 520 797 b 533 707 532 768 533 737 b 533 225 533 546 533 385 b 345 225 470 225 408 225 z "},"ñ":{"ha":731,"x_min":0,"x_max":0,"o":"m 92 1071 b 189 1063 119 1053 158 1052 b 250 1120 216 1073 238 1094 b 423 1061 305 1092 363 1061 b 542 1105 465 1060 510 1077 b 619 1231 580 1136 607 1183 b 615 1289 624 1249 619 1270 b 566 1348 608 1314 587 1334 b 510 1363 551 1359 530 1362 b 454 1349 490 1366 472 1357 b 405 1293 431 1339 416 1315 b 322 1335 377 1307 350 1321 b 196 1353 284 1352 238 1360 b 114 1314 166 1348 137 1334 b 40 1189 77 1282 53 1235 b 44 1132 35 1171 39 1150 b 92 1071 50 1106 71 1087 z m 677 196 b 677 715 677 370 677 543 b 642 903 677 780 670 846 b 556 994 622 940 593 974 b 462 1022 527 1010 494 1021 b 288 1024 438 1024 312 1025 b 235 1017 270 1022 252 1021 b 133 1021 220 1021 150 1021 b 60 991 107 1019 78 1010 b 25 926 43 973 29 949 b 68 820 18 888 39 844 b 60 717 61 787 60 752 b 60 196 60 544 60 370 b 30 151 47 184 36 168 b 82 17 12 101 35 42 b 203 3 117 -1 162 3 b 260 18 222 4 243 8 b 304 63 279 30 293 46 b 316 121 315 80 316 101 b 284 194 318 147 302 174 b 284 736 284 375 284 555 b 294 800 284 759 288 780 b 436 800 312 800 417 800 b 443 798 438 800 441 800 b 452 735 450 779 452 756 b 452 197 452 556 452 376 b 429 164 443 187 434 176 b 516 6 398 96 441 19 b 615 6 531 3 600 3 b 660 23 632 9 647 14 b 699 65 675 33 688 48 b 712 115 708 79 709 99 b 677 196 715 144 696 175 z "},"ò":{"ha":682,"x_min":0,"x_max":0,"o":"m 637 834 b 562 966 625 883 600 932 b 429 1019 527 998 477 1018 b 234 1018 401 1019 262 1022 b 125 972 195 1012 156 997 b 60 883 97 949 76 917 b 32 719 39 833 31 775 b 36 224 32 652 27 292 b 107 66 45 167 67 108 b 253 1 143 27 199 3 b 447 3 281 1 419 -1 b 557 49 487 8 526 24 b 623 142 586 73 609 107 b 649 299 642 191 649 245 b 649 708 649 349 649 658 b 637 834 649 750 647 794 z m 425 289 b 415 227 425 268 422 247 b 408 226 414 224 410 226 b 274 226 390 226 290 226 b 267 227 271 226 268 224 b 257 290 260 247 257 268 b 257 732 257 437 257 585 b 267 794 257 753 260 774 b 274 795 267 797 271 795 b 408 795 290 795 390 795 b 415 794 410 795 414 797 b 425 732 422 774 425 753 b 425 289 425 585 425 436 z m 166 1228 b 344 1137 188 1214 320 1148 b 394 1111 351 1133 387 1113 b 469 1234 470 1083 525 1175 b 330 1374 452 1254 349 1356 b 265 1422 310 1391 289 1409 b 240 1430 258 1426 248 1430 b 166 1228 125 1442 69 1290 z "},"ó":{"ha":682,"x_min":0,"x_max":0,"o":"m 202 1108 b 232 1119 213 1109 223 1115 b 456 1237 265 1137 428 1213 b 372 1430 536 1308 478 1439 b 149 1242 310 1426 192 1284 b 118 1193 135 1228 122 1211 b 202 1108 107 1143 152 1097 z m 637 834 b 562 966 626 883 600 932 b 429 1019 527 998 477 1018 b 234 1018 401 1019 262 1022 b 125 972 195 1012 156 997 b 60 883 97 949 76 917 b 32 719 39 833 31 775 b 36 224 32 652 27 292 b 107 66 45 167 67 108 b 252 1 143 27 199 3 b 447 3 281 1 419 -1 b 557 49 487 8 526 24 b 623 142 586 73 609 107 b 649 299 642 191 649 245 b 649 708 649 349 649 658 b 637 834 649 750 647 794 z m 425 289 b 415 227 425 268 422 247 b 408 226 414 224 410 226 b 274 226 390 226 290 226 b 267 227 271 226 268 224 b 257 290 260 247 257 268 b 257 732 257 437 257 585 b 267 794 257 753 260 774 b 274 795 267 797 271 795 b 408 795 290 795 390 795 b 415 794 410 795 414 797 b 425 732 422 774 425 753 b 425 289 425 585 425 436 z "},"ô":{"ha":682,"x_min":0,"x_max":0,"o":"m 637 831 b 581 946 627 874 609 914 b 429 1017 544 989 484 1015 b 234 1015 401 1018 262 1019 b 125 970 195 1010 156 994 b 60 882 97 946 76 914 b 32 718 39 830 31 772 b 36 221 32 649 27 289 b 107 63 45 164 67 105 b 253 -2 143 24 199 0 b 447 0 281 -2 419 -3 b 557 46 487 5 526 21 b 627 150 589 73 613 111 b 649 297 644 198 649 247 b 649 705 649 346 649 656 b 637 831 649 747 646 791 z m 425 286 b 415 224 425 265 422 244 b 408 223 414 222 409 223 b 273 223 390 223 290 223 b 266 224 271 223 268 223 b 257 287 259 245 257 266 b 257 729 257 435 257 582 b 266 791 257 750 259 771 b 273 794 266 794 271 794 b 408 794 290 792 390 792 b 415 791 409 794 414 794 b 425 729 422 771 425 750 b 425 286 425 582 425 435 z m 175 1060 b 231 1056 193 1053 213 1053 b 285 1080 251 1057 268 1068 b 341 1141 294 1088 332 1133 b 404 1083 362 1122 383 1102 b 495 1059 426 1060 464 1055 b 540 1078 512 1060 527 1069 b 571 1227 587 1114 600 1177 b 419 1377 555 1252 440 1353 b 294 1408 390 1411 338 1423 b 247 1371 276 1400 261 1387 b 125 1237 206 1327 165 1282 b 100 1164 108 1217 98 1189 b 175 1060 100 1118 132 1074 z "},"õ":{"ha":682,"x_min":0,"x_max":0,"o":"m 114 1054 b 209 1045 139 1036 178 1035 b 271 1102 236 1056 258 1076 b 443 1043 325 1074 383 1043 b 562 1087 485 1043 530 1060 b 640 1213 600 1119 627 1165 b 635 1271 644 1231 640 1252 b 586 1331 628 1296 607 1316 b 530 1346 571 1342 550 1345 b 474 1332 512 1348 492 1339 b 425 1276 452 1321 436 1299 b 342 1317 397 1289 370 1304 b 216 1335 304 1335 258 1344 b 135 1296 187 1330 157 1316 b 60 1171 97 1265 73 1219 b 64 1114 55 1153 59 1132 b 114 1054 72 1088 93 1068 z m 637 834 b 562 966 625 883 600 932 b 429 1019 527 998 477 1018 b 234 1018 401 1019 262 1022 b 125 972 195 1012 156 997 b 60 883 97 949 76 917 b 32 719 39 833 31 775 b 36 224 32 652 27 292 b 107 66 45 167 67 108 b 253 1 143 27 199 3 b 447 3 281 1 419 -1 b 557 49 487 8 526 24 b 623 142 586 73 609 107 b 649 299 642 191 649 245 b 649 708 649 349 649 658 b 637 834 649 750 647 794 z m 425 289 b 415 227 425 268 422 247 b 408 226 414 224 410 226 b 274 226 390 226 290 226 b 267 227 271 226 268 224 b 257 290 260 247 257 268 b 257 732 257 437 257 585 b 267 794 257 753 260 774 b 274 795 267 797 271 795 b 408 795 290 795 390 795 b 415 794 410 795 414 797 b 425 732 422 774 425 753 b 425 289 425 585 425 436 z "},"ö":{"ha":682,"x_min":0,"x_max":0,"o":"m 76 1090 b 197 1076 111 1070 156 1074 b 310 1203 265 1076 320 1136 b 253 1286 305 1237 282 1269 b 80 1287 215 1306 118 1306 b 19 1171 38 1269 12 1219 b 76 1090 23 1139 47 1105 z m 622 1287 b 449 1290 584 1308 487 1308 b 387 1174 406 1270 379 1221 b 445 1091 392 1140 415 1108 b 566 1077 480 1071 525 1077 b 678 1206 634 1078 689 1137 b 622 1287 673 1238 651 1272 z m 638 836 b 581 951 629 878 609 918 b 429 1021 544 993 486 1019 b 236 1019 403 1021 263 1024 b 127 973 197 1014 156 998 b 62 885 97 951 76 918 b 33 721 40 834 33 777 b 38 226 34 653 28 293 b 107 67 47 168 68 109 b 254 3 143 28 201 4 b 448 4 281 3 421 0 b 558 51 487 10 528 25 b 628 154 591 77 614 115 b 651 300 644 201 651 251 b 650 710 651 351 650 661 b 638 836 650 752 648 795 z m 425 290 b 415 229 425 269 422 248 b 408 227 415 226 411 227 b 275 227 392 227 292 227 b 268 229 272 227 268 226 b 258 292 261 248 258 271 b 258 733 258 439 258 586 b 268 795 258 754 261 775 b 275 796 268 798 272 796 b 408 796 292 796 392 796 b 417 795 411 796 415 798 b 425 733 422 775 425 754 b 425 290 425 586 425 437 z "},"÷":{"ha":829,"x_min":0,"x_max":0,"o":"m 750 352 b 644 504 777 426 722 504 b 186 504 491 504 339 504 b 80 429 139 504 95 474 b 186 279 53 356 108 279 b 645 279 339 279 492 279 b 750 352 691 279 735 309 z m 449 526 b 562 653 517 526 572 586 b 505 736 557 687 534 721 b 332 739 468 756 372 756 b 271 621 290 719 264 669 b 328 540 276 589 299 555 b 449 526 363 520 408 526 z m 507 46 b 562 159 548 70 569 114 b 505 241 558 192 534 226 b 334 244 468 261 371 261 b 283 195 313 234 296 215 b 271 145 273 181 272 161 b 329 45 268 111 299 60 b 404 31 352 32 378 31 b 507 46 439 30 478 28 z "},"ø":{"ha":893,"x_min":0,"x_max":0,"o":"m 788 942 b 704 903 757 942 725 926 b 649 972 690 930 672 954 b 554 1015 621 994 588 1008 b 327 1018 518 1022 363 1022 b 217 972 288 1012 248 997 b 153 884 189 949 167 917 b 123 719 130 833 123 775 b 125 311 125 583 125 447 b 123 293 125 307 126 296 b 10 171 105 275 23 192 b 163 18 -48 72 65 -39 b 208 58 181 28 194 44 b 352 2 245 23 300 4 b 539 3 380 -1 512 -1 b 649 49 578 9 619 24 b 715 142 679 73 701 107 b 742 299 735 191 742 246 b 742 619 742 338 742 579 b 874 757 759 637 858 738 b 788 942 934 831 882 942 z m 518 311 b 508 227 518 283 516 254 b 499 226 506 224 502 226 b 368 226 483 226 384 226 b 518 383 417 278 467 331 b 518 311 518 359 518 335 z m 349 531 b 349 732 349 599 349 665 b 359 794 349 753 352 774 b 366 795 359 796 363 795 b 499 795 383 795 483 795 b 508 794 502 795 507 796 b 518 708 516 766 518 736 b 349 531 462 649 405 590 z "},"ù":{"ha":729,"x_min":0,"x_max":0,"o":"m 699 959 b 633 1014 685 984 660 1005 b 567 1020 612 1021 590 1020 b 472 1003 535 1021 500 1020 b 419 924 444 987 426 955 b 453 827 413 890 429 853 b 453 287 453 648 453 468 b 443 226 453 266 450 245 b 434 224 441 223 437 224 b 294 224 417 224 312 224 b 284 287 287 244 284 266 b 284 830 284 468 284 649 b 315 886 298 846 311 865 b 221 1018 329 948 284 1008 b 116 1018 204 1022 133 1022 b 25 924 68 1008 33 972 b 60 827 18 890 35 851 b 60 307 60 653 60 481 b 68 203 60 272 62 237 b 31 151 52 189 38 171 b 26 92 24 133 22 112 b 67 26 32 67 47 43 b 115 4 81 14 98 10 b 235 7 137 -2 213 1 b 488 4 279 -4 444 -4 b 585 48 523 11 556 25 b 646 129 611 69 632 98 b 677 300 668 182 677 243 b 677 827 677 365 677 763 b 711 890 694 844 706 866 b 699 959 713 904 706 947 z m 218 1228 b 396 1137 241 1214 372 1148 b 447 1111 403 1133 440 1113 b 521 1234 522 1083 576 1175 b 382 1374 504 1254 401 1356 b 318 1422 361 1391 342 1409 b 292 1430 309 1426 301 1430 b 218 1228 178 1442 120 1290 z "},"ú":{"ha":729,"x_min":0,"x_max":0,"o":"m 306 1108 b 336 1119 316 1109 326 1115 b 559 1237 368 1137 532 1213 b 475 1430 639 1308 581 1439 b 252 1242 414 1426 297 1284 b 222 1193 238 1228 227 1211 b 306 1108 211 1143 256 1097 z m 699 959 b 633 1014 685 984 660 1005 b 567 1021 612 1021 590 1020 b 472 1003 535 1021 500 1020 b 419 924 444 987 426 955 b 453 827 413 890 429 853 b 453 289 453 648 453 468 b 443 226 453 268 450 245 b 434 224 441 223 437 224 b 294 224 417 224 312 224 b 284 287 287 245 284 266 b 284 830 284 468 284 649 b 315 886 298 846 311 865 b 221 1019 329 948 284 1008 b 116 1018 204 1022 133 1022 b 25 924 68 1008 33 973 b 60 827 18 890 35 851 b 60 307 60 653 60 481 b 68 203 60 273 62 238 b 31 151 52 191 38 172 b 26 92 24 133 22 112 b 67 26 32 67 47 43 b 115 5 81 14 98 10 b 235 7 137 -2 213 1 b 488 4 279 -4 444 -4 b 585 48 523 11 556 25 b 646 129 611 70 632 98 b 677 300 668 182 677 243 b 677 827 677 365 677 763 b 711 890 694 844 706 866 b 699 959 713 906 706 947 z "},"û":{"ha":729,"x_min":0,"x_max":0,"o":"m 201 1060 b 259 1056 219 1053 239 1053 b 311 1080 277 1057 295 1068 b 367 1141 321 1088 360 1133 b 430 1083 388 1122 409 1102 b 521 1059 452 1060 490 1055 b 567 1078 538 1060 553 1069 b 597 1227 614 1114 628 1177 b 447 1377 581 1252 466 1353 b 322 1408 416 1411 364 1423 b 273 1371 302 1400 287 1387 b 151 1237 232 1327 192 1282 b 126 1164 134 1217 126 1189 b 201 1060 127 1118 158 1074 z m 699 961 b 633 1015 685 986 660 1005 b 567 1021 612 1022 590 1021 b 472 1004 535 1022 500 1021 b 419 924 444 987 426 956 b 453 829 413 892 429 853 b 453 289 453 649 453 468 b 443 227 453 268 450 247 b 434 224 441 224 437 224 b 294 226 417 226 312 226 b 284 289 287 245 284 268 b 284 830 284 470 284 651 b 315 888 298 847 311 867 b 221 1019 329 949 284 1008 b 116 1019 204 1024 133 1024 b 25 926 68 1008 33 973 b 60 827 18 892 35 853 b 60 308 60 655 60 481 b 68 205 60 273 62 238 b 31 153 52 191 38 172 b 26 94 24 133 22 113 b 67 26 32 69 47 45 b 115 5 81 15 98 11 b 235 8 137 0 213 3 b 488 5 279 -3 444 -3 b 585 49 523 12 556 26 b 646 130 611 70 632 99 b 677 301 668 184 677 242 b 677 827 677 366 677 763 b 711 892 694 846 706 868 b 699 961 713 906 706 948 z "},"ü":{"ha":729,"x_min":0,"x_max":0,"o":"m 86 1090 b 208 1076 123 1070 168 1074 b 321 1203 277 1076 332 1136 b 265 1286 316 1237 294 1269 b 92 1287 227 1306 130 1306 b 30 1171 49 1269 22 1219 b 86 1090 34 1139 58 1105 z m 455 1091 b 577 1077 492 1071 536 1077 b 689 1206 646 1078 701 1137 b 632 1287 685 1238 661 1272 b 461 1290 595 1308 499 1308 b 398 1174 417 1271 391 1221 b 455 1091 403 1140 426 1108 z m 699 961 b 633 1015 685 984 660 1005 b 567 1021 612 1022 590 1020 b 472 1004 535 1022 500 1020 b 419 924 444 987 426 955 b 453 829 413 890 429 853 b 453 289 453 648 453 468 b 443 227 453 268 450 247 b 434 224 441 224 437 224 b 294 224 417 224 312 226 b 284 289 287 245 284 266 b 284 830 284 468 284 649 b 315 886 298 847 311 865 b 221 1019 329 949 284 1008 b 116 1019 204 1022 133 1022 b 25 926 68 1008 33 973 b 60 827 18 892 35 853 b 60 308 60 655 60 481 b 68 205 60 273 62 238 b 31 151 52 191 38 172 b 26 94 24 133 22 112 b 67 26 32 68 47 45 b 115 5 81 15 98 10 b 235 8 137 0 213 1 b 488 5 279 -3 444 -3 b 585 49 523 11 556 26 b 646 130 611 70 632 99 b 677 300 668 182 677 242 b 677 827 677 364 677 763 b 711 892 694 845 706 868 b 699 961 713 906 706 947 z "},"ý":{"ha":715,"x_min":0,"x_max":0,"o":"m 285 1108 b 315 1119 296 1109 306 1115 b 539 1237 348 1137 511 1213 b 455 1430 619 1308 561 1439 b 232 1242 393 1426 275 1284 b 201 1193 218 1228 205 1211 b 285 1108 190 1143 235 1097 z m 644 1004 b 473 1011 609 1026 512 1026 b 417 960 449 1003 431 982 b 405 904 407 944 406 923 b 438 830 403 876 420 850 b 427 701 438 786 441 742 b 319 701 413 698 334 701 b 280 700 313 701 284 700 b 268 823 266 739 268 781 b 301 869 282 836 294 851 b 253 1001 317 920 298 973 b 82 1010 218 1025 121 1025 b 26 959 58 1000 40 980 b 13 902 16 942 15 921 b 44 830 12 876 27 850 b 46 725 44 795 43 760 b 123 536 51 658 75 583 b 281 475 163 496 225 475 b 438 477 302 475 417 475 b 438 287 438 413 438 350 b 427 224 438 266 434 244 b 287 224 410 224 303 224 b 280 226 284 224 280 224 b 266 325 268 258 273 293 b 232 384 261 348 249 369 b 58 353 179 433 92 418 b 46 291 48 335 44 312 b 74 136 46 238 53 184 b 130 54 86 105 106 77 b 259 1 165 24 212 4 b 459 1 288 0 431 -3 b 570 47 499 7 539 22 b 644 167 606 77 632 122 b 662 307 658 212 662 259 b 662 827 662 479 662 653 b 644 1004 714 879 706 965 z "},"ÿ":{"ha":715,"x_min":0,"x_max":0,"o":"m 81 1090 b 203 1076 118 1070 163 1074 b 316 1203 272 1076 327 1136 b 260 1286 311 1237 289 1269 b 87 1287 222 1306 125 1306 b 25 1171 44 1269 17 1219 b 81 1090 29 1139 53 1105 z m 450 1091 b 572 1077 487 1071 532 1077 b 684 1206 641 1078 696 1137 b 627 1287 680 1238 656 1272 b 456 1290 590 1308 494 1308 b 393 1174 412 1271 386 1221 b 450 1091 398 1140 421 1108 z m 644 1004 b 473 1011 609 1026 512 1026 b 417 960 449 1003 431 982 b 405 904 407 944 406 923 b 438 830 403 876 420 850 b 427 701 438 786 441 742 b 319 701 413 698 334 701 b 280 700 313 701 284 700 b 268 823 266 739 268 781 b 301 869 282 836 294 851 b 253 1001 317 920 298 973 b 82 1010 218 1025 121 1025 b 26 959 58 1000 40 980 b 13 902 16 942 15 921 b 44 830 12 876 27 850 b 46 725 44 795 43 760 b 123 536 51 658 75 583 b 281 475 163 496 225 475 b 438 477 302 475 417 475 b 438 287 438 413 438 350 b 427 224 438 266 434 244 b 287 224 410 224 303 224 b 280 226 284 224 280 224 b 266 325 268 258 273 293 b 232 384 261 348 249 369 b 58 353 179 433 92 418 b 46 291 48 335 44 312 b 74 136 46 238 53 184 b 130 54 86 105 106 77 b 259 1 165 24 212 4 b 459 1 288 0 431 -3 b 570 47 499 7 539 22 b 644 167 606 77 632 122 b 662 307 658 212 662 259 b 662 827 662 479 662 653 b 644 1004 714 879 706 965 z "},"Ā":{"ha":724,"x_min":0,"x_max":0,"o":"m 112 1127 b 610 1127 279 1127 444 1127 b 699 1200 649 1127 685 1157 b 610 1352 722 1274 676 1352 b 112 1352 444 1352 279 1352 b 23 1277 72 1352 36 1322 b 112 1127 1 1204 47 1127 z m 670 193 b 670 742 670 262 672 673 b 626 914 668 801 657 864 b 456 1019 590 977 528 1015 b 256 1019 427 1021 284 1023 b 145 973 217 1014 176 998 b 79 880 116 949 93 915 b 53 713 58 828 53 770 b 53 193 53 541 53 367 b 23 148 40 181 29 165 b 75 14 6 98 29 39 b 196 0 112 -5 156 0 b 255 15 217 1 238 5 b 298 60 271 26 287 43 b 311 118 308 77 309 98 b 277 191 312 144 295 171 b 277 314 277 233 277 273 b 407 312 295 312 391 312 b 445 314 420 312 433 312 b 445 193 445 273 445 234 b 421 161 437 183 427 172 b 508 3 391 92 435 15 b 609 3 525 0 594 0 b 654 19 625 5 640 11 b 692 62 670 29 682 45 b 705 112 702 76 703 95 b 670 193 707 142 691 172 z m 445 593 b 435 538 445 575 441 555 b 288 538 417 536 308 538 b 277 614 280 562 277 589 b 278 744 277 631 277 728 b 288 796 278 763 283 780 b 428 796 305 796 412 796 b 435 795 431 796 435 796 b 445 732 442 775 445 753 b 445 593 445 686 445 639 z "},"ā":{"ha":724,"x_min":0,"x_max":0,"o":"m 112 1129 b 610 1129 279 1129 444 1129 b 699 1202 649 1129 685 1158 b 610 1353 722 1276 676 1353 b 112 1353 444 1353 279 1353 b 23 1279 72 1353 36 1324 b 112 1129 1 1206 47 1129 z m 670 195 b 670 743 670 264 672 675 b 626 916 668 802 657 865 b 456 1021 590 979 528 1017 b 256 1021 427 1022 284 1025 b 145 975 217 1015 176 1000 b 79 882 116 951 93 917 b 53 715 58 830 53 771 b 53 195 53 543 53 369 b 23 150 40 182 29 167 b 75 15 6 99 29 40 b 196 1 112 -3 156 1 b 255 17 217 3 238 7 b 298 62 271 28 287 45 b 311 119 308 78 309 100 b 277 192 312 146 295 172 b 277 315 277 234 277 275 b 407 314 295 314 391 314 b 445 315 420 314 433 314 b 445 195 445 275 445 235 b 421 163 437 185 427 174 b 508 4 391 94 435 17 b 609 4 525 1 594 1 b 654 21 625 7 640 13 b 692 63 670 31 682 46 b 705 114 702 77 703 97 b 670 195 707 143 691 174 z m 445 595 b 435 540 445 576 441 557 b 288 540 417 537 308 540 b 277 616 280 564 277 590 b 278 746 277 633 277 729 b 288 798 278 764 283 781 b 428 798 305 798 412 798 b 435 797 431 798 435 798 b 445 733 442 777 445 755 b 445 595 445 687 445 641 z "},"Ă":{"ha":724,"x_min":0,"x_max":0,"o":"m 301 1097 b 426 1067 330 1062 382 1050 b 473 1102 444 1074 459 1088 b 595 1236 514 1147 555 1191 b 621 1311 612 1256 622 1284 b 545 1414 621 1357 588 1399 b 489 1419 527 1420 507 1420 b 435 1393 469 1416 451 1405 b 379 1332 426 1386 388 1341 b 316 1392 358 1351 337 1372 b 225 1416 294 1413 256 1419 b 179 1396 208 1414 193 1406 b 149 1248 133 1361 120 1297 b 301 1097 165 1221 280 1120 z m 669 193 b 669 742 669 262 672 673 b 626 914 668 801 657 864 b 456 1019 589 977 528 1015 b 256 1019 427 1021 284 1023 b 145 973 217 1014 176 998 b 79 880 116 949 93 915 b 53 713 58 828 53 770 b 53 193 53 541 53 367 b 23 148 40 181 29 165 b 75 14 6 98 29 39 b 196 0 111 -5 156 0 b 254 15 217 1 238 5 b 298 60 271 26 287 43 b 311 118 308 77 309 98 b 277 191 312 144 295 171 b 277 314 277 233 277 273 b 407 312 295 312 390 312 b 445 314 420 312 433 312 b 445 193 445 273 445 234 b 421 161 437 183 427 172 b 508 3 390 92 435 15 b 609 3 525 0 594 0 b 654 19 625 5 640 11 b 692 62 670 29 682 45 b 705 112 702 76 703 95 b 669 193 707 142 690 172 z m 445 593 b 435 538 445 575 441 555 b 288 538 417 536 308 538 b 277 614 280 562 277 589 b 278 744 277 631 277 728 b 288 796 278 763 282 780 b 428 796 305 796 411 796 b 435 795 431 796 435 796 b 445 732 442 775 445 753 b 445 593 445 686 445 639 z "},"ă":{"ha":724,"x_min":0,"x_max":0,"o":"m 301 1099 b 426 1068 330 1064 382 1051 b 473 1103 444 1075 459 1089 b 595 1238 514 1148 555 1193 b 621 1312 612 1258 622 1286 b 545 1416 621 1359 588 1401 b 489 1420 527 1422 507 1422 b 435 1395 469 1417 451 1406 b 379 1333 426 1388 388 1343 b 316 1394 358 1353 337 1374 b 225 1417 294 1415 256 1420 b 179 1398 208 1416 193 1408 b 149 1249 133 1363 120 1298 b 301 1099 165 1223 280 1122 z m 669 195 b 669 743 669 264 672 675 b 626 916 668 802 657 865 b 456 1021 589 979 528 1017 b 256 1021 427 1022 284 1025 b 145 975 217 1015 176 1000 b 79 882 116 951 93 917 b 53 715 58 830 53 771 b 53 195 53 543 53 369 b 23 150 40 182 29 167 b 75 15 6 99 29 40 b 196 1 111 -3 156 1 b 254 17 217 3 238 7 b 298 62 271 28 287 45 b 311 119 308 78 309 100 b 277 192 312 146 295 172 b 277 315 277 234 277 275 b 407 314 295 314 390 314 b 445 315 420 314 433 314 b 445 195 445 275 445 235 b 421 163 437 185 427 174 b 508 4 390 94 435 17 b 609 4 525 1 594 1 b 654 21 625 7 640 13 b 692 63 670 31 682 46 b 705 114 702 77 703 97 b 669 195 707 143 690 174 z m 445 595 b 435 540 445 576 441 557 b 288 540 417 537 308 540 b 277 616 280 564 277 590 b 278 746 277 633 277 729 b 288 798 278 764 282 781 b 428 798 305 798 411 798 b 435 797 431 798 435 798 b 445 733 442 777 445 755 b 445 595 445 687 445 641 z "},"Ą":{"ha":724,"x_min":0,"x_max":0,"o":"m 698 -87 b 646 -43 684 -70 660 -62 b 656 7 639 -32 652 -4 b 667 31 659 15 663 23 b 692 62 676 40 685 50 b 705 112 702 76 703 95 b 670 194 707 142 691 172 b 670 742 670 262 672 673 b 626 914 668 801 657 864 b 456 1019 590 977 528 1015 b 256 1019 427 1021 284 1024 b 145 973 217 1014 176 998 b 79 880 116 949 93 916 b 53 714 58 829 53 770 b 53 193 53 541 53 367 b 23 148 40 181 29 165 b 75 14 6 98 29 39 b 196 0 112 -4 156 0 b 255 15 217 1 238 5 b 298 60 271 26 287 43 b 311 118 308 77 309 98 b 277 191 312 144 295 171 b 277 314 277 233 277 273 b 407 313 295 313 391 313 b 445 314 420 313 433 313 b 445 193 445 273 445 234 b 421 161 437 184 427 172 b 434 49 404 122 411 81 b 425 -81 423 8 417 -39 b 523 -234 436 -140 474 -199 b 575 -265 540 -245 555 -258 b 698 -87 681 -304 773 -175 z m 435 538 b 288 538 417 536 308 538 b 277 614 280 562 277 589 b 278 744 277 631 277 728 b 288 796 278 763 283 780 b 428 796 305 796 412 796 b 435 795 431 796 435 796 b 445 732 442 775 445 753 b 445 593 445 686 445 639 b 435 538 445 575 441 555 z "},"ą":{"ha":724,"x_min":0,"x_max":0,"o":"m 698 -85 b 646 -42 684 -68 660 -60 b 656 9 639 -31 652 -3 b 667 32 659 17 663 24 b 692 63 676 41 685 51 b 705 114 702 77 703 97 b 670 195 707 143 691 174 b 670 743 670 264 672 675 b 626 916 668 802 657 865 b 456 1021 590 979 528 1017 b 256 1021 427 1022 284 1025 b 145 975 217 1015 176 1000 b 79 882 116 951 93 917 b 53 715 58 830 53 771 b 53 195 53 543 53 369 b 23 150 40 182 29 167 b 75 15 6 100 29 41 b 196 1 112 -3 156 1 b 255 17 217 3 238 7 b 298 62 271 28 287 45 b 311 119 308 79 309 100 b 277 192 312 146 295 173 b 277 316 277 234 277 275 b 407 314 295 314 391 314 b 445 316 420 314 433 314 b 445 195 445 275 445 236 b 421 163 437 185 427 174 b 434 51 404 124 411 82 b 425 -79 423 10 417 -37 b 523 -232 436 -138 474 -197 b 575 -263 540 -244 555 -256 b 698 -85 681 -303 773 -174 z m 435 540 b 288 540 417 537 308 540 b 277 616 280 564 277 590 b 278 746 277 633 277 729 b 288 798 278 764 283 781 b 428 798 305 798 412 798 b 435 797 431 798 435 798 b 445 733 442 777 445 755 b 445 595 445 687 445 641 b 435 540 445 576 441 557 z "},"Ć":{"ha":671,"x_min":0,"x_max":0,"o":"m 477 396 b 429 336 455 382 436 360 b 424 274 425 316 425 295 b 415 228 424 259 419 243 b 407 225 414 225 410 225 b 267 227 389 225 285 227 b 257 284 261 245 257 265 b 257 733 257 434 257 583 b 267 796 257 754 260 776 b 408 796 285 796 390 796 b 415 795 411 796 414 796 b 426 704 425 765 422 733 b 644 683 442 587 605 572 b 649 729 648 697 649 713 b 621 884 648 782 641 837 b 571 960 609 912 592 939 b 435 1019 536 995 484 1016 b 234 1019 407 1020 264 1023 b 125 973 195 1013 156 998 b 59 880 95 949 73 915 b 32 713 38 827 32 769 b 36 224 32 646 27 291 b 107 67 45 168 67 107 b 253 2 143 28 199 4 b 429 2 311 1 370 -2 b 550 44 471 7 516 19 b 621 138 582 68 606 102 b 649 302 642 190 649 246 b 477 396 649 391 551 445 z m 297 1105 b 326 1116 308 1106 318 1112 b 550 1234 358 1134 522 1210 b 465 1427 630 1305 571 1436 b 242 1240 405 1423 287 1282 b 213 1190 229 1225 217 1209 b 297 1105 201 1140 246 1094 z "},"ć":{"ha":671,"x_min":0,"x_max":0,"o":"m 477 398 b 429 338 455 384 436 361 b 424 276 425 318 425 297 b 415 230 424 261 419 245 b 407 227 414 227 410 227 b 267 228 389 227 285 228 b 257 286 261 246 257 266 b 257 735 257 436 257 584 b 267 798 257 756 260 778 b 408 798 285 798 390 798 b 415 796 411 798 414 798 b 426 705 425 767 422 735 b 644 684 442 589 605 573 b 649 730 648 698 649 715 b 621 886 648 784 641 838 b 571 962 609 914 592 941 b 435 1021 536 997 484 1018 b 234 1021 407 1022 264 1025 b 125 974 195 1015 156 1000 b 59 882 95 950 73 917 b 32 715 38 828 32 771 b 36 225 32 648 27 293 b 107 68 45 169 67 109 b 253 4 143 29 199 5 b 429 4 311 3 370 0 b 550 46 471 8 516 21 b 621 140 582 70 606 103 b 649 304 642 192 649 248 b 477 398 649 392 551 447 z m 297 1107 b 326 1118 308 1108 318 1114 b 550 1236 358 1136 522 1212 b 465 1429 630 1307 571 1437 b 242 1241 405 1425 287 1283 b 213 1192 229 1227 217 1210 b 297 1107 201 1142 246 1095 z "},"Č":{"ha":671,"x_min":0,"x_max":0,"o":"m 477 396 b 429 336 455 382 436 360 b 424 274 425 316 425 295 b 415 228 424 259 419 243 b 407 225 414 225 410 225 b 267 227 389 225 285 227 b 257 284 261 245 257 265 b 257 733 257 434 257 583 b 267 796 257 754 260 776 b 408 796 285 796 390 796 b 415 795 411 796 414 796 b 426 704 425 765 422 733 b 644 683 442 587 605 572 b 649 729 648 697 649 713 b 621 884 648 782 641 837 b 571 960 609 912 592 939 b 435 1019 536 995 484 1016 b 234 1019 407 1020 264 1023 b 125 973 195 1013 156 998 b 59 880 95 949 73 915 b 32 713 38 827 32 769 b 36 224 32 646 27 291 b 107 67 45 168 67 107 b 253 2 143 28 199 4 b 429 2 311 1 370 -2 b 550 44 471 7 516 19 b 621 138 582 68 606 102 b 649 302 642 190 649 246 b 477 396 649 391 551 445 z m 263 1089 b 388 1058 294 1055 344 1042 b 435 1094 406 1066 423 1079 b 557 1229 476 1139 517 1184 b 584 1302 576 1248 584 1276 b 508 1405 583 1348 552 1392 b 451 1410 490 1412 471 1412 b 399 1386 431 1408 415 1397 b 342 1324 389 1377 350 1332 b 280 1383 322 1344 301 1363 b 187 1407 258 1405 220 1411 b 143 1387 172 1405 155 1397 b 113 1238 95 1352 82 1289 b 263 1089 128 1213 243 1112 z "},"č":{"ha":671,"x_min":0,"x_max":0,"o":"m 477 398 b 429 338 455 384 436 361 b 424 276 425 318 425 297 b 415 230 424 261 419 245 b 407 227 414 227 410 227 b 267 228 389 227 285 228 b 257 286 261 246 257 266 b 257 735 257 436 257 584 b 267 798 257 756 260 778 b 408 798 285 798 390 798 b 415 796 411 798 414 798 b 426 705 425 767 422 735 b 644 684 442 589 605 573 b 649 730 648 698 649 715 b 621 886 648 784 641 838 b 571 962 609 914 592 941 b 435 1021 536 997 484 1018 b 234 1021 407 1022 264 1025 b 125 974 195 1015 156 1000 b 59 882 95 950 73 917 b 32 715 38 828 32 771 b 36 225 32 648 27 293 b 107 68 45 169 67 109 b 253 4 143 29 199 5 b 429 4 311 3 370 0 b 550 46 471 8 516 21 b 621 140 582 70 606 103 b 649 304 642 192 649 248 b 477 398 649 392 551 447 z m 263 1090 b 388 1059 294 1057 344 1044 b 435 1096 406 1068 423 1080 b 557 1230 476 1141 517 1186 b 584 1303 576 1250 584 1278 b 508 1407 583 1350 552 1393 b 451 1411 490 1414 471 1414 b 399 1387 431 1410 415 1399 b 342 1326 389 1379 350 1334 b 280 1384 322 1345 301 1365 b 187 1408 258 1407 220 1413 b 143 1389 172 1407 155 1399 b 113 1240 95 1354 82 1291 b 263 1090 128 1215 243 1114 z "},"Ď":{"ha":738,"x_min":0,"x_max":0,"o":"m 698 730 b 646 930 698 799 685 874 b 493 1021 611 981 556 1014 b 427 1022 483 1021 436 1021 b 293 1021 409 1022 309 1022 b 235 1012 273 1019 253 1018 b 222 1017 232 1012 225 1015 b 134 1018 210 1019 148 1018 b 77 1004 115 1018 94 1014 b 33 959 58 993 44 976 b 21 902 23 942 22 921 b 71 812 19 875 49 827 b 64 714 65 779 64 747 b 64 193 64 541 64 367 b 35 148 51 181 40 165 b 124 1 12 83 56 12 b 218 1 138 0 204 1 b 573 1 336 0 455 1 b 626 7 591 1 610 0 b 699 113 670 22 699 66 b 698 730 699 320 702 524 z m 475 226 b 288 226 413 226 350 226 b 288 733 288 395 288 565 b 298 797 288 756 291 777 b 457 798 321 797 436 795 b 464 797 459 798 464 798 b 475 708 473 768 475 738 b 475 226 475 547 475 386 z m 283 1089 b 408 1058 314 1055 364 1042 b 456 1094 426 1066 443 1079 b 578 1229 496 1139 537 1184 b 604 1302 596 1248 604 1276 b 529 1405 603 1348 572 1392 b 471 1410 510 1412 491 1412 b 419 1386 452 1408 435 1397 b 362 1324 409 1377 370 1332 b 300 1383 342 1344 321 1363 b 208 1407 278 1405 240 1411 b 163 1387 192 1405 175 1397 b 133 1238 115 1352 102 1289 b 283 1089 149 1213 264 1112 z "},"Ē":{"ha":697,"x_min":0,"x_max":0,"o":"m 600 1352 b 102 1352 434 1352 268 1352 b 13 1277 62 1352 26 1322 b 102 1127 -9 1204 36 1127 b 600 1127 268 1127 434 1127 b 689 1200 639 1127 675 1157 b 600 1352 711 1274 666 1352 z m 298 796 b 439 796 316 796 421 796 b 446 795 442 796 445 796 b 458 704 456 766 453 733 b 675 683 473 587 636 572 b 681 729 679 697 681 714 b 651 885 679 782 672 837 b 602 961 640 913 623 940 b 466 1019 567 996 515 1017 b 292 1021 442 1021 316 1022 b 235 1012 273 1019 253 1018 b 222 1017 232 1012 225 1015 b 134 1018 210 1019 148 1018 b 76 1004 114 1018 93 1014 b 33 959 58 993 44 976 b 20 902 23 942 22 921 b 71 812 19 875 48 827 b 64 714 65 779 64 747 b 64 193 64 541 64 367 b 34 148 51 181 40 165 b 124 1 12 83 55 12 b 218 1 138 0 204 1 b 569 1 334 0 452 1 b 681 132 639 1 693 63 b 569 226 671 186 625 226 b 288 226 476 226 382 226 b 288 324 288 258 288 291 b 459 326 313 324 434 321 b 447 547 581 356 572 531 b 288 548 424 549 311 549 b 288 733 288 610 288 672 b 298 796 288 756 291 777 z "},"ē":{"ha":697,"x_min":0,"x_max":0,"o":"m 600 1348 b 102 1348 434 1348 268 1348 b 13 1274 62 1348 26 1319 b 102 1124 -9 1201 36 1124 b 600 1124 268 1124 434 1124 b 689 1197 639 1124 675 1153 b 600 1348 711 1271 666 1348 z m 298 793 b 439 793 316 793 421 793 b 446 792 442 793 445 793 b 458 701 456 763 453 730 b 675 680 473 584 636 569 b 681 726 679 694 681 711 b 651 882 679 779 672 834 b 602 957 640 910 623 936 b 466 1016 567 993 515 1013 b 292 1018 442 1018 316 1019 b 235 1009 273 1016 253 1015 b 222 1013 232 1009 225 1012 b 134 1015 210 1016 148 1015 b 76 1001 114 1015 93 1011 b 33 956 58 990 44 973 b 20 898 23 939 22 918 b 71 809 19 872 48 824 b 64 711 65 776 64 744 b 64 190 64 538 64 364 b 34 145 51 178 40 162 b 124 -2 12 80 55 9 b 218 -2 138 -3 204 -2 b 569 -2 334 -3 452 -2 b 681 129 639 -2 693 60 b 569 223 671 183 625 223 b 288 223 476 223 382 223 b 288 321 288 255 288 288 b 459 323 313 321 434 318 b 447 544 581 353 572 528 b 288 545 424 546 311 546 b 288 730 288 607 288 668 b 298 793 288 753 291 774 z "},"Ė":{"ha":697,"x_min":0,"x_max":0,"o":"m 243 1088 b 364 1074 278 1068 323 1074 b 477 1203 432 1075 487 1134 b 420 1285 472 1235 449 1269 b 247 1287 382 1306 285 1306 b 186 1171 204 1268 179 1219 b 243 1088 190 1137 214 1105 z m 568 226 b 288 226 476 226 382 226 b 288 324 288 258 288 292 b 459 327 313 324 434 321 b 447 547 581 356 571 531 b 288 548 424 550 310 550 b 288 733 288 610 288 672 b 298 796 288 756 291 777 b 440 796 316 796 421 796 b 447 795 442 796 445 796 b 458 704 456 766 454 733 b 675 683 473 587 636 572 b 681 729 679 697 681 714 b 651 885 679 782 672 837 b 602 961 640 913 623 940 b 466 1019 567 996 515 1017 b 292 1021 442 1021 316 1022 b 235 1012 273 1019 253 1018 b 222 1017 232 1012 225 1015 b 134 1018 210 1019 148 1018 b 76 1004 114 1018 93 1014 b 33 959 58 993 44 976 b 20 902 23 942 22 921 b 71 812 19 875 49 827 b 64 714 65 779 64 747 b 64 193 64 541 64 367 b 34 148 51 181 40 165 b 124 1 12 83 56 12 b 218 1 138 0 204 1 b 569 1 335 0 452 1 b 681 132 639 1 694 63 b 568 226 671 186 624 226 z "},"ė":{"ha":697,"x_min":0,"x_max":0,"o":"m 568 223 b 288 223 476 223 382 223 b 288 321 288 255 288 288 b 459 323 313 321 434 318 b 447 544 581 353 571 528 b 288 545 424 546 310 546 b 288 730 288 607 288 668 b 298 793 288 753 291 774 b 440 793 316 793 421 793 b 447 792 442 793 445 793 b 458 701 456 762 454 730 b 675 680 473 584 636 569 b 681 726 679 694 681 711 b 651 882 679 779 672 834 b 602 957 640 910 623 936 b 466 1016 567 992 515 1013 b 292 1018 442 1018 316 1019 b 235 1009 273 1016 253 1015 b 222 1013 232 1009 225 1012 b 134 1015 210 1016 148 1015 b 76 1001 114 1015 93 1011 b 33 956 58 990 44 973 b 20 898 23 939 22 918 b 71 809 19 872 49 824 b 64 710 65 776 64 744 b 64 190 64 538 64 364 b 34 145 51 178 40 162 b 124 -2 12 79 56 9 b 218 -2 138 -3 204 -2 b 569 -2 335 -3 452 -2 b 681 128 639 -2 694 60 b 568 223 671 183 624 223 z m 243 1085 b 364 1071 278 1065 323 1071 b 477 1200 432 1072 487 1131 b 420 1281 472 1232 449 1266 b 247 1284 382 1302 285 1302 b 186 1168 204 1265 179 1215 b 243 1085 190 1134 214 1102 z "},"Ę":{"ha":697,"x_min":0,"x_max":0,"o":"m 568 226 b 288 226 476 226 382 226 b 288 324 288 258 288 292 b 459 327 313 324 434 321 b 447 547 581 356 571 531 b 288 548 424 550 310 550 b 288 733 288 610 288 672 b 298 796 288 756 291 777 b 440 796 316 796 421 796 b 447 795 442 796 445 796 b 458 704 456 766 454 733 b 675 683 473 587 636 572 b 681 729 679 697 681 714 b 651 885 679 782 672 837 b 602 961 640 913 623 940 b 466 1019 567 996 515 1017 b 292 1021 442 1021 316 1022 b 235 1012 273 1019 253 1018 b 222 1017 232 1012 225 1015 b 134 1018 210 1019 148 1018 b 76 1004 114 1018 93 1014 b 33 959 58 993 44 976 b 20 902 23 942 22 921 b 71 812 19 875 49 827 b 64 714 65 779 64 747 b 64 193 64 541 64 367 b 34 148 51 181 40 165 b 124 1 12 83 56 12 b 218 1 138 0 204 1 b 569 1 335 0 452 1 b 681 132 639 1 694 63 b 568 226 671 186 624 226 z m 508 -116 b 518 -65 501 -104 514 -76 b 548 1 527 -43 538 -21 l 304 1 b 297 -20 302 -6 299 -13 b 287 -154 285 -62 278 -110 b 385 -307 298 -213 336 -271 b 437 -337 402 -318 417 -330 b 560 -159 543 -377 635 -248 b 508 -116 546 -142 522 -134 z "},"ę":{"ha":697,"x_min":0,"x_max":0,"o":"m 568 223 b 288 223 476 223 382 223 b 288 321 288 255 288 288 b 459 323 313 321 434 318 b 447 544 581 353 571 528 b 288 545 424 546 310 546 b 288 730 288 607 288 668 b 298 793 288 753 291 774 b 440 793 316 793 421 793 b 447 792 442 793 445 793 b 458 701 456 762 454 730 b 675 680 473 584 636 569 b 681 726 679 694 681 711 b 651 882 679 779 672 834 b 602 957 640 910 623 936 b 466 1016 567 992 515 1013 b 292 1018 442 1018 316 1019 b 235 1009 273 1016 253 1015 b 222 1013 232 1009 225 1012 b 134 1015 210 1016 148 1015 b 76 1001 114 1015 93 1011 b 33 956 58 990 44 973 b 20 898 23 939 22 918 b 71 809 19 872 49 824 b 64 710 65 776 64 744 b 64 190 64 538 64 364 b 34 145 51 178 40 162 b 124 -2 12 79 56 9 b 218 -2 138 -3 204 -2 b 569 -2 335 -3 452 -2 b 681 128 639 -2 694 60 b 568 223 671 183 624 223 z m 508 -119 b 518 -68 501 -108 514 -79 b 548 -2 527 -46 538 -24 l 304 -2 b 297 -23 302 -9 299 -16 b 287 -157 285 -65 278 -113 b 385 -310 298 -216 336 -275 b 437 -340 402 -321 417 -333 b 560 -163 543 -380 635 -251 b 508 -119 546 -145 522 -137 z "},"Ě":{"ha":697,"x_min":0,"x_max":0,"o":"m 274 1089 b 399 1058 305 1055 355 1042 b 446 1094 417 1066 434 1079 b 568 1229 487 1139 528 1184 b 595 1302 587 1248 595 1276 b 519 1405 594 1348 563 1392 b 462 1410 501 1412 482 1412 b 410 1386 442 1408 426 1397 b 353 1324 400 1377 361 1332 b 291 1383 333 1344 312 1363 b 199 1407 269 1405 231 1411 b 154 1387 183 1405 166 1397 b 124 1238 106 1352 93 1289 b 274 1089 139 1213 254 1112 z m 568 226 b 288 226 476 226 382 226 b 288 324 288 258 288 292 b 459 327 313 324 434 321 b 447 547 581 356 571 531 b 288 548 424 550 310 550 b 288 733 288 610 288 672 b 298 796 288 756 291 777 b 440 796 316 796 421 796 b 447 795 442 796 445 796 b 458 704 456 766 454 733 b 675 683 473 587 636 572 b 681 729 679 697 681 714 b 651 885 679 782 672 837 b 602 961 640 913 623 940 b 466 1019 567 996 515 1017 b 292 1021 442 1021 316 1022 b 235 1012 273 1019 253 1018 b 222 1017 232 1012 225 1015 b 134 1018 210 1019 148 1018 b 76 1004 114 1018 93 1014 b 33 959 58 993 44 976 b 20 902 23 942 22 921 b 71 812 19 875 49 827 b 64 714 65 779 64 747 b 64 193 64 541 64 367 b 34 148 51 181 40 165 b 124 1 12 83 56 12 b 218 1 138 0 204 1 b 569 1 335 0 452 1 b 681 132 639 1 694 63 b 568 226 671 186 624 226 z "},"ě":{"ha":697,"x_min":0,"x_max":0,"o":"m 274 1086 b 399 1055 305 1052 355 1039 b 446 1091 417 1063 434 1076 b 568 1226 487 1136 528 1181 b 595 1299 587 1245 595 1273 b 519 1402 594 1345 563 1388 b 462 1407 501 1409 482 1409 b 410 1383 442 1405 426 1394 b 353 1321 400 1374 361 1329 b 291 1380 333 1341 312 1360 b 199 1404 269 1402 231 1408 b 154 1384 183 1402 166 1394 b 124 1235 106 1349 93 1286 b 274 1086 139 1210 254 1109 z m 568 223 b 288 223 476 223 382 223 b 288 321 288 255 288 288 b 459 323 313 321 434 318 b 447 544 581 353 571 528 b 288 545 424 546 310 546 b 288 730 288 607 288 668 b 298 793 288 753 291 774 b 440 793 316 793 421 793 b 447 792 442 793 445 793 b 458 701 456 762 454 730 b 675 680 473 584 636 569 b 681 726 679 694 681 711 b 651 882 679 779 672 834 b 602 957 640 910 623 936 b 466 1016 567 992 515 1013 b 292 1018 442 1018 316 1019 b 235 1009 273 1016 253 1015 b 222 1013 232 1009 225 1012 b 134 1015 210 1016 148 1015 b 76 1001 114 1015 93 1011 b 33 956 58 990 44 973 b 20 898 23 939 22 918 b 71 809 19 872 49 824 b 64 710 65 776 64 744 b 64 190 64 538 64 364 b 34 145 51 178 40 162 b 124 -2 12 79 56 9 b 218 -2 138 -3 204 -2 b 569 -2 335 -3 452 -2 b 681 128 639 -2 694 60 b 568 223 671 183 624 223 z "},"Ğ":{"ha":728,"x_min":0,"x_max":0,"o":"m 607 472 b 503 472 591 475 518 474 b 451 454 485 471 467 465 b 413 413 436 444 423 429 b 401 356 403 397 401 376 b 422 297 399 335 410 314 b 475 255 434 277 454 262 b 475 226 475 245 475 235 b 288 226 413 226 350 226 b 288 733 288 395 288 565 b 298 796 288 756 291 777 b 457 798 321 796 436 795 b 464 796 460 798 464 798 b 476 704 474 767 472 735 b 692 683 490 589 653 573 b 698 730 698 698 699 715 b 670 886 698 784 691 837 b 619 962 657 914 640 941 b 493 1021 587 994 539 1015 b 427 1022 483 1021 436 1021 b 293 1021 409 1022 309 1022 b 235 1012 273 1019 253 1018 b 223 1017 232 1012 225 1015 b 134 1018 210 1019 148 1018 b 77 1004 114 1018 93 1014 b 33 959 58 993 44 976 b 20 902 23 942 22 921 b 71 812 19 875 49 827 b 64 714 65 779 64 747 b 64 193 64 541 64 367 b 34 148 51 181 40 165 b 124 1 12 83 56 12 b 218 1 138 0 204 1 b 573 1 336 0 455 1 b 626 7 591 1 610 0 b 699 113 670 22 699 66 b 699 360 699 195 699 277 b 607 472 699 416 662 463 z m 283 1089 b 408 1058 314 1055 364 1042 b 455 1094 426 1066 443 1079 b 577 1229 496 1139 537 1184 b 604 1302 595 1248 604 1276 b 528 1405 603 1348 572 1392 b 471 1410 510 1412 490 1412 b 419 1386 451 1408 434 1397 b 362 1324 409 1377 370 1332 b 300 1383 342 1344 321 1363 b 207 1407 277 1405 239 1411 b 162 1387 192 1405 175 1397 b 133 1238 115 1352 102 1289 b 283 1089 148 1213 263 1112 z "},"ğ":{"ha":728,"x_min":0,"x_max":0,"o":"m 607 469 b 503 469 591 472 518 471 b 451 451 485 468 467 462 b 413 410 436 441 423 426 b 401 353 403 394 401 373 b 422 294 399 332 410 311 b 475 252 434 274 454 259 b 475 223 475 242 475 232 b 288 223 413 223 350 223 b 288 730 288 392 288 562 b 298 793 288 753 291 774 b 457 795 321 793 436 792 b 464 793 460 795 464 795 b 476 701 474 764 472 732 b 692 680 490 586 653 570 b 698 727 698 695 699 712 b 670 883 698 781 691 834 b 619 959 657 911 640 938 b 493 1018 587 991 539 1012 b 427 1019 483 1018 436 1018 b 293 1018 409 1019 309 1019 b 235 1009 273 1016 253 1015 b 223 1013 232 1009 225 1012 b 134 1015 210 1016 148 1015 b 77 1001 114 1015 93 1011 b 33 956 58 990 44 973 b 20 898 23 939 22 918 b 71 809 19 872 49 824 b 64 711 65 776 64 744 b 64 190 64 538 64 364 b 34 145 51 178 40 162 b 124 -2 12 80 56 9 b 218 -2 138 -3 204 -2 b 573 -2 336 -3 455 -2 b 626 4 591 -2 610 -3 b 699 110 670 19 699 63 b 699 357 699 192 699 274 b 607 469 699 413 662 460 z m 283 1086 b 408 1055 314 1052 364 1039 b 455 1091 426 1063 443 1076 b 577 1226 496 1136 537 1181 b 604 1299 595 1245 604 1273 b 528 1402 603 1345 572 1388 b 471 1407 510 1409 490 1409 b 419 1383 451 1405 434 1394 b 362 1321 409 1374 370 1329 b 300 1380 342 1341 321 1360 b 207 1404 277 1402 239 1408 b 162 1384 192 1402 175 1394 b 133 1235 115 1349 102 1286 b 283 1086 148 1210 263 1109 z "},"Ī":{"ha":343,"x_min":0,"x_max":0,"o":"m 419 1352 b -79 1352 253 1352 88 1352 b -168 1277 -119 1352 -155 1322 b -79 1127 -190 1204 -144 1127 b 419 1127 88 1127 253 1127 b 508 1200 458 1127 494 1157 b 419 1352 531 1274 485 1352 z m 316 894 b 233 1019 326 948 285 1004 b 115 1021 212 1025 135 1023 b 68 1000 99 1018 80 1011 b 24 927 45 981 30 955 b 59 829 19 893 36 854 b 58 199 59 618 58 409 b 34 167 48 189 40 178 b 93 17 7 109 36 39 b 254 18 127 1 221 3 b 309 77 278 31 299 53 b 316 118 315 89 316 104 b 282 199 319 147 302 178 b 284 833 282 411 284 621 b 316 894 299 850 312 871 z "},"ī":{"ha":343,"x_min":0,"x_max":0,"o":"m 419 1348 b -79 1348 253 1348 88 1348 b -168 1274 -119 1348 -155 1319 b -79 1124 -190 1201 -144 1124 b 419 1124 88 1124 253 1124 b 508 1197 458 1124 494 1153 b 419 1348 531 1271 485 1348 z m 316 891 b 233 1016 326 945 285 1001 b 115 1018 212 1022 135 1020 b 68 997 98 1015 80 1008 b 24 924 45 978 30 952 b 59 825 19 890 35 851 b 58 196 59 615 58 406 b 34 164 48 186 40 175 b 93 14 7 106 35 36 b 254 15 127 -2 221 0 b 309 74 278 28 299 50 b 316 114 315 86 316 100 b 282 196 319 144 302 175 b 284 830 282 407 284 618 b 316 891 299 847 312 868 z "},"İ":{"ha":342,"x_min":0,"x_max":0,"o":"m 82 1087 b 203 1073 117 1067 162 1071 b 316 1200 271 1073 326 1133 b 259 1283 311 1234 288 1266 b 86 1284 221 1303 124 1303 b 25 1168 44 1266 18 1216 b 82 1087 29 1136 53 1102 z m 316 894 b 233 1019 326 948 285 1004 b 115 1021 212 1025 135 1023 b 68 1000 99 1018 80 1011 b 24 927 45 981 30 955 b 59 829 19 893 36 854 b 58 199 59 618 58 409 b 34 167 48 189 40 178 b 93 17 7 109 36 39 b 254 18 127 1 221 3 b 309 77 278 31 299 53 b 316 118 315 89 316 104 b 282 199 319 147 302 178 b 284 833 282 411 284 621 b 316 894 299 850 312 871 z "},"ı":{"ha":342,"x_min":0,"x_max":0,"o":"m 284 830 b 316 891 299 847 312 868 b 233 1016 326 945 285 1001 b 116 1018 212 1022 135 1020 b 68 997 99 1015 80 1008 b 24 924 45 978 30 952 b 60 825 19 890 36 851 b 58 196 60 615 58 406 b 34 164 48 186 40 175 b 93 14 7 106 36 36 b 254 15 127 -2 221 0 b 309 74 278 28 299 50 b 316 114 315 86 316 100 b 282 196 319 144 302 175 b 284 830 282 408 284 618 z "},"Ł":{"ha":729,"x_min":0,"x_max":0,"o":"m 624 229 b 342 229 530 229 436 229 b 342 394 342 283 342 339 b 447 459 377 415 414 436 b 488 544 474 477 485 513 b 474 600 491 564 483 583 b 433 642 466 618 450 631 b 342 652 408 659 372 660 b 354 799 342 701 338 753 b 505 799 404 798 454 796 b 565 1003 610 806 649 939 b 481 1025 542 1019 511 1024 b 321 1022 459 1025 344 1025 b 216 980 284 1016 246 1003 b 152 897 188 959 167 929 b 119 760 131 855 122 807 b 118 521 118 729 118 552 b 40 471 107 514 49 479 b 0 405 20 455 4 430 b 118 275 -12 334 47 268 b 118 196 118 248 118 223 b 89 151 105 184 94 168 b 180 4 66 85 110 15 b 272 4 192 3 260 4 b 624 4 390 3 507 4 b 736 134 695 4 748 66 b 624 229 727 189 680 229 z "},"ł":{"ha":729,"x_min":0,"x_max":0,"o":"m 624 229 b 342 229 530 229 436 229 b 342 394 342 283 342 339 b 447 459 377 415 414 436 b 488 544 474 477 485 513 b 474 600 491 564 483 583 b 433 642 466 618 450 631 b 342 652 408 659 372 660 b 354 799 342 701 338 753 b 505 799 404 798 454 796 b 565 1003 610 806 649 939 b 481 1025 542 1019 511 1024 b 321 1022 459 1025 344 1025 b 216 980 284 1016 246 1003 b 152 897 188 959 167 929 b 119 760 131 855 122 807 b 118 521 118 729 118 552 b 40 471 107 514 49 479 b 0 405 20 455 4 430 b 118 275 -12 334 47 268 b 118 196 118 248 118 223 b 89 151 105 184 94 168 b 180 4 66 85 110 15 b 272 4 192 3 260 4 b 624 4 390 3 507 4 b 736 134 695 4 748 66 b 624 229 727 189 680 229 z "},"Ń":{"ha":731,"x_min":0,"x_max":0,"o":"m 677 196 b 677 715 677 370 677 543 b 642 903 677 780 670 846 b 556 994 622 940 593 974 b 462 1022 527 1010 494 1021 b 288 1024 438 1024 312 1025 b 235 1017 270 1022 252 1021 b 133 1021 220 1021 150 1021 b 60 991 107 1019 78 1010 b 25 925 43 973 29 949 b 68 820 18 888 39 844 b 60 717 61 787 60 752 b 60 196 60 544 60 370 b 30 151 47 184 36 168 b 82 17 12 101 35 42 b 203 3 117 -1 162 3 b 260 18 222 4 243 8 b 304 63 279 29 293 46 b 316 121 315 80 316 101 b 284 194 318 147 302 174 b 284 736 284 374 284 555 b 294 799 284 759 288 780 b 436 799 312 799 417 799 b 443 798 438 799 441 799 b 452 735 450 779 452 756 b 452 196 452 555 452 376 b 429 164 443 187 434 175 b 516 6 398 96 441 18 b 615 6 531 3 600 3 b 660 23 632 9 647 14 b 699 65 675 32 688 48 b 712 115 708 79 709 98 b 677 196 715 144 696 175 z m 197 1108 b 227 1119 209 1109 218 1115 b 451 1237 261 1137 423 1213 b 367 1430 531 1308 474 1439 b 144 1242 305 1426 188 1284 b 113 1193 130 1228 117 1211 b 197 1108 102 1143 147 1097 z "},"ń":{"ha":731,"x_min":0,"x_max":0,"o":"m 677 196 b 677 715 677 370 677 543 b 642 903 677 780 670 846 b 556 994 622 940 593 974 b 462 1022 527 1010 494 1021 b 288 1024 438 1024 312 1025 b 235 1017 270 1022 252 1021 b 133 1021 220 1021 150 1021 b 60 991 107 1019 78 1010 b 25 926 43 973 29 949 b 68 820 18 888 39 844 b 60 717 61 787 60 752 b 60 196 60 544 60 370 b 30 151 47 184 36 168 b 82 17 12 101 35 42 b 203 3 117 -1 162 3 b 260 18 222 4 243 8 b 304 63 279 29 293 46 b 316 121 315 80 316 101 b 284 194 318 147 302 174 b 284 736 284 374 284 555 b 294 799 284 759 288 780 b 436 799 312 799 417 799 b 443 798 438 799 441 799 b 452 735 450 779 452 756 b 452 196 452 555 452 376 b 429 164 443 187 434 175 b 516 6 398 96 441 18 b 615 6 531 3 600 3 b 660 23 632 9 647 14 b 699 65 675 32 688 48 b 712 115 708 79 709 98 b 677 196 715 144 696 175 z m 197 1108 b 227 1119 209 1109 218 1115 b 451 1237 261 1137 423 1213 b 367 1430 531 1308 474 1439 b 144 1242 305 1426 188 1284 b 113 1193 130 1228 117 1211 b 197 1108 102 1143 147 1097 z "},"Ň":{"ha":731,"x_min":0,"x_max":0,"o":"m 677 196 b 677 715 677 370 677 543 b 642 903 677 780 670 846 b 556 994 622 940 593 974 b 462 1022 527 1010 494 1021 b 288 1024 438 1024 312 1025 b 235 1017 270 1022 252 1021 b 133 1021 220 1021 150 1021 b 60 991 107 1019 78 1010 b 25 925 43 973 29 949 b 68 820 18 888 39 844 b 60 717 61 787 60 752 b 60 196 60 544 60 370 b 30 151 47 184 36 168 b 82 17 12 101 35 42 b 203 3 117 -1 162 3 b 260 18 222 4 243 8 b 304 63 279 29 293 46 b 316 121 315 80 316 101 b 284 194 318 147 302 174 b 284 736 284 374 284 555 b 294 799 284 759 288 780 b 436 799 312 799 417 799 b 443 798 438 799 441 799 b 452 735 450 779 452 756 b 452 196 452 555 452 376 b 429 164 443 187 434 175 b 516 6 398 96 441 18 b 615 6 531 3 600 3 b 660 23 632 9 647 14 b 699 65 675 32 688 48 b 712 115 708 79 709 98 b 677 196 715 144 696 175 z m 227 1092 b 351 1061 256 1058 308 1045 b 399 1097 370 1069 385 1082 b 521 1232 440 1142 480 1187 b 546 1305 538 1251 548 1279 b 471 1408 546 1351 514 1394 b 415 1413 452 1415 433 1415 b 361 1389 395 1411 378 1400 b 305 1327 351 1380 313 1335 b 242 1386 284 1347 263 1366 b 151 1410 220 1408 182 1414 b 106 1390 134 1408 119 1400 b 75 1241 58 1355 46 1292 b 227 1092 91 1216 206 1115 z "},"ň":{"ha":731,"x_min":0,"x_max":0,"o":"m 677 196 b 677 715 677 370 677 543 b 642 903 677 780 670 846 b 556 994 622 940 593 974 b 462 1022 527 1010 494 1021 b 288 1024 438 1024 312 1025 b 235 1017 270 1022 252 1021 b 133 1021 220 1021 150 1021 b 60 991 107 1019 78 1010 b 25 926 43 973 29 949 b 68 820 18 888 39 844 b 60 717 61 787 60 752 b 60 196 60 544 60 370 b 30 151 47 184 36 168 b 82 17 12 101 35 42 b 203 3 117 -1 162 3 b 260 18 222 4 243 8 b 304 63 279 29 293 46 b 316 121 315 80 316 101 b 284 194 318 147 302 174 b 284 736 284 374 284 555 b 294 799 284 759 288 780 b 436 799 312 799 417 799 b 443 798 438 799 441 799 b 452 735 450 779 452 756 b 452 196 452 555 452 376 b 429 164 443 187 434 175 b 516 6 398 96 441 18 b 615 6 531 3 600 3 b 660 23 632 9 647 14 b 699 65 675 32 688 48 b 712 115 708 79 709 98 b 677 196 715 144 696 175 z m 227 1092 b 351 1061 256 1058 308 1045 b 399 1097 370 1069 385 1082 b 521 1232 440 1142 480 1187 b 546 1305 538 1251 548 1279 b 471 1408 546 1351 514 1394 b 415 1413 452 1415 433 1415 b 361 1389 395 1411 378 1400 b 305 1327 351 1380 313 1335 b 242 1386 284 1347 263 1366 b 151 1410 220 1408 182 1414 b 106 1390 134 1408 119 1400 b 75 1241 58 1355 46 1292 b 227 1092 91 1216 206 1115 z "},"Ō":{"ha":682,"x_min":0,"x_max":0,"o":"m 590 1301 b 92 1301 423 1301 258 1301 b 3 1226 52 1301 16 1271 b 92 1076 -19 1153 26 1076 b 590 1076 258 1076 423 1076 b 679 1149 628 1076 665 1106 b 590 1301 701 1224 655 1301 z m 638 836 b 580 951 628 878 608 918 b 429 1021 544 993 485 1019 b 235 1019 402 1021 262 1024 b 126 973 196 1014 155 998 b 61 885 96 951 75 918 b 32 721 39 834 32 777 b 37 226 33 653 28 293 b 106 67 46 168 67 109 b 253 3 143 28 200 4 b 447 4 280 3 420 0 b 558 51 486 10 527 25 b 628 154 590 77 614 115 b 650 300 643 201 650 251 b 649 710 650 351 649 661 b 638 836 649 752 647 795 z m 425 290 b 415 229 425 269 422 248 b 408 227 415 226 410 227 b 274 227 391 227 291 227 b 267 229 272 227 267 226 b 258 292 260 248 258 271 b 258 733 258 439 258 586 b 267 795 258 754 260 775 b 274 796 267 798 272 796 b 408 796 291 796 391 796 b 416 795 410 796 415 798 b 425 733 422 775 425 754 b 425 290 425 586 425 437 z "},"ō":{"ha":682,"x_min":0,"x_max":0,"o":"m 590 1301 b 92 1301 423 1301 258 1301 b 3 1226 52 1301 16 1271 b 92 1076 -19 1153 26 1076 b 590 1076 258 1076 423 1076 b 679 1149 628 1076 665 1106 b 590 1301 701 1224 655 1301 z m 638 836 b 580 951 628 878 608 918 b 429 1021 544 993 485 1019 b 235 1019 402 1021 262 1024 b 126 973 196 1014 155 998 b 61 885 96 951 75 918 b 32 721 39 834 32 777 b 37 226 33 653 28 293 b 106 67 46 168 67 109 b 253 3 143 28 200 4 b 447 4 280 3 420 0 b 558 51 486 10 527 25 b 628 154 590 77 614 115 b 650 300 643 201 650 251 b 649 710 650 351 649 661 b 638 836 649 752 647 795 z m 425 290 b 415 229 425 269 422 248 b 408 227 415 226 410 227 b 274 227 391 227 291 227 b 267 229 272 227 267 226 b 258 292 260 248 258 271 b 258 733 258 439 258 586 b 267 795 258 754 260 775 b 274 796 267 798 272 796 b 408 796 291 796 391 796 b 416 795 410 796 415 798 b 425 733 422 775 425 754 b 425 290 425 586 425 437 z "},"Ő":{"ha":682,"x_min":0,"x_max":0,"o":"m 95 1119 b 319 1237 129 1137 291 1213 b 235 1430 399 1308 342 1439 b 12 1242 173 1426 56 1284 b -19 1193 -2 1228 -14 1211 b 66 1108 -30 1143 15 1096 b 95 1119 77 1109 87 1115 z m 580 1430 b 357 1242 518 1426 400 1284 b 326 1193 343 1228 330 1211 b 410 1108 315 1143 360 1096 b 440 1119 422 1109 431 1115 b 664 1237 473 1137 636 1213 b 580 1430 744 1308 687 1439 z m 637 836 b 580 951 628 878 608 918 b 428 1021 543 993 485 1019 b 235 1019 402 1021 262 1024 b 125 973 196 1014 155 998 b 61 885 96 951 75 918 b 31 721 38 834 31 777 b 37 226 33 653 27 293 b 106 67 46 168 67 109 b 253 3 142 28 200 4 b 447 4 280 3 420 0 b 557 50 486 10 527 25 b 627 154 590 77 613 115 b 650 300 643 200 650 251 b 648 710 650 351 648 660 b 637 836 649 752 647 795 z m 424 290 b 414 229 424 269 421 248 b 407 227 414 226 410 227 b 274 227 391 227 291 227 b 267 229 271 227 267 226 b 257 292 260 248 257 271 b 257 733 257 439 257 586 b 267 795 257 754 260 775 b 274 796 267 798 271 796 b 407 796 291 796 391 796 b 416 795 410 796 414 798 b 424 733 421 775 424 754 b 424 290 424 586 424 437 z "},"ő":{"ha":682,"x_min":0,"x_max":0,"o":"m 95 1119 b 319 1237 129 1137 291 1213 b 235 1430 399 1308 342 1439 b 12 1242 173 1426 56 1284 b -19 1193 -2 1228 -14 1211 b 66 1108 -30 1143 15 1096 b 95 1119 77 1109 87 1115 z m 580 1430 b 357 1242 518 1426 400 1284 b 326 1193 343 1228 330 1211 b 410 1108 315 1143 360 1096 b 440 1119 422 1109 431 1115 b 664 1237 473 1137 636 1213 b 580 1430 744 1308 687 1439 z m 637 836 b 580 951 628 878 608 918 b 428 1021 543 993 485 1019 b 235 1019 402 1021 262 1024 b 125 973 196 1014 155 998 b 61 885 96 951 75 918 b 31 721 38 834 31 777 b 37 226 33 653 27 293 b 106 67 46 168 67 109 b 253 3 142 28 200 4 b 447 4 280 3 420 0 b 557 50 486 10 527 25 b 627 154 590 77 613 115 b 650 300 643 200 650 251 b 648 710 650 351 648 660 b 637 836 649 752 647 795 z m 424 290 b 414 229 424 269 421 248 b 407 227 414 226 410 227 b 274 227 391 227 291 227 b 267 229 271 227 267 226 b 257 292 260 248 257 271 b 257 733 257 439 257 586 b 267 795 257 754 260 775 b 274 796 267 798 271 796 b 407 796 291 796 391 796 b 416 795 410 796 414 798 b 424 733 421 775 424 754 b 424 290 424 586 424 437 z "},"Œ":{"ha":1060,"x_min":0,"x_max":0,"o":"m 932 224 b 650 224 838 224 744 224 b 650 323 650 257 650 290 b 823 325 677 323 798 320 b 886 367 848 332 871 346 b 803 547 939 439 893 541 b 650 547 782 548 672 548 b 650 733 650 609 650 670 b 662 795 650 754 655 775 b 802 795 679 795 785 795 b 809 794 805 795 809 796 b 819 746 815 778 817 763 b 826 680 820 723 819 701 b 1035 673 861 585 994 580 b 1043 728 1042 690 1045 709 b 1018 876 1043 778 1036 830 b 965 959 1007 907 988 935 b 830 1018 930 994 879 1015 b 655 1019 806 1019 679 1021 b 599 1011 637 1018 617 1017 b 585 1015 596 1011 587 1014 b 468 1014 565 1021 489 1019 b 220 1015 426 1022 262 1024 b 130 976 188 1008 156 996 b 57 876 97 951 73 914 b 32 708 36 823 32 764 b 32 311 32 575 32 443 b 49 167 32 262 35 213 b 101 71 60 132 77 98 b 252 1 137 29 196 3 b 420 0 275 0 399 -1 b 465 6 436 1 451 3 b 482 1 468 7 479 3 b 580 0 496 -3 566 0 b 932 0 698 -1 815 0 b 1045 132 1003 0 1056 62 b 932 224 1035 185 988 224 z m 425 289 b 415 227 425 268 422 247 b 408 224 413 224 409 224 b 273 224 390 226 290 226 b 266 227 270 224 268 224 b 256 289 259 247 256 268 b 256 732 256 436 256 583 b 266 794 256 753 259 774 b 273 795 268 797 270 795 b 408 795 290 795 390 795 b 415 794 411 795 413 795 b 425 731 422 773 425 752 b 425 289 425 583 425 436 z "},"œ":{"ha":1060,"x_min":0,"x_max":0,"o":"m 932 224 b 650 224 838 224 744 224 b 650 323 650 257 650 290 b 823 325 677 323 798 320 b 886 367 848 332 871 346 b 803 547 939 439 893 541 b 650 547 782 548 672 548 b 650 733 650 609 650 670 b 662 795 650 754 655 775 b 802 795 679 795 785 795 b 809 794 805 795 809 796 b 819 746 815 778 817 763 b 826 680 820 723 819 701 b 1035 673 861 585 994 580 b 1043 728 1042 690 1045 709 b 1018 876 1043 778 1036 830 b 965 959 1007 907 988 935 b 830 1018 930 994 879 1015 b 655 1019 806 1019 679 1021 b 599 1011 637 1018 617 1017 b 585 1015 596 1011 587 1014 b 468 1014 565 1021 489 1019 b 220 1015 426 1022 262 1024 b 130 976 188 1008 156 996 b 57 876 97 951 73 914 b 32 708 36 823 32 764 b 32 311 32 575 32 443 b 49 167 32 262 35 213 b 101 72 60 132 77 98 b 252 1 137 29 196 3 b 420 0 275 0 399 -1 b 465 6 436 1 451 3 b 482 1 468 7 479 3 b 580 0 496 -3 566 0 b 932 0 698 -1 815 0 b 1045 132 1003 0 1056 62 b 932 224 1035 185 988 224 z m 425 289 b 415 227 425 268 422 247 b 408 224 413 224 409 224 b 273 224 390 226 290 226 b 266 227 270 224 268 224 b 256 289 259 247 256 268 b 256 732 256 436 256 583 b 266 794 256 753 259 774 b 273 795 268 797 270 795 b 408 795 290 795 390 795 b 415 794 411 795 413 795 b 425 731 422 773 425 752 b 425 289 425 583 425 436 z "},"Ŕ":{"ha":726,"x_min":0,"x_max":0,"o":"m 682 191 b 587 506 673 231 600 466 b 654 601 617 531 640 565 b 677 691 666 629 670 661 b 679 772 684 717 682 746 b 619 942 672 831 656 894 b 466 1019 583 985 524 1016 b 292 1020 442 1020 316 1022 b 235 1012 273 1019 253 1018 b 222 1016 232 1012 225 1015 b 134 1018 210 1019 148 1018 b 76 1003 114 1018 93 1013 b 33 959 58 992 44 975 b 20 901 23 942 22 921 b 71 811 19 874 49 827 b 64 713 65 779 64 747 b 64 193 64 541 64 367 b 34 148 51 180 40 165 b 86 13 16 97 39 39 b 207 -1 121 -5 166 -1 b 264 15 227 1 248 5 b 308 60 283 26 297 43 b 320 117 318 77 320 98 b 288 190 322 144 306 171 b 288 457 288 280 288 368 b 367 455 298 455 357 455 b 369 450 369 455 369 452 b 451 186 398 361 424 274 b 433 161 444 178 437 169 b 480 15 409 109 431 41 b 601 1 517 -5 560 1 b 660 16 622 1 642 6 b 703 61 677 26 692 43 b 716 112 712 75 713 95 b 682 191 717 140 702 171 z m 445 682 b 288 679 426 679 308 681 b 298 796 288 719 287 759 b 440 796 316 796 422 796 b 447 795 443 796 445 796 b 445 682 458 759 457 717 z m 266 1108 b 295 1119 277 1109 287 1115 b 519 1237 329 1137 491 1213 b 435 1430 599 1308 542 1439 b 212 1242 374 1426 256 1284 b 181 1193 198 1228 186 1211 b 266 1108 170 1143 215 1097 z "},"ŕ":{"ha":726,"x_min":0,"x_max":0,"o":"m 682 191 b 587 506 673 231 600 466 b 654 601 617 531 640 565 b 677 691 666 629 670 661 b 679 772 684 718 682 746 b 619 942 672 831 656 894 b 466 1019 583 985 524 1016 b 292 1020 442 1020 316 1022 b 235 1012 273 1019 253 1018 b 222 1016 232 1012 225 1015 b 134 1018 210 1019 148 1018 b 76 1003 114 1018 93 1013 b 33 959 58 992 44 975 b 20 901 23 942 22 921 b 71 811 19 874 49 827 b 64 713 65 779 64 747 b 64 193 64 541 64 367 b 34 148 51 180 40 165 b 86 13 16 97 39 39 b 207 -1 121 -5 166 -1 b 264 15 227 1 248 5 b 308 60 283 26 297 43 b 320 117 318 77 320 98 b 288 190 322 144 306 171 b 288 457 288 280 288 368 b 367 455 298 455 357 455 b 369 450 369 455 369 452 b 451 186 398 361 424 274 b 433 161 444 178 437 169 b 480 15 409 109 431 41 b 601 1 517 -5 560 1 b 660 16 622 1 642 6 b 703 61 677 26 692 43 b 716 112 712 75 713 95 b 682 191 717 140 702 171 z m 445 682 b 288 679 426 679 308 681 b 298 796 288 719 287 759 b 440 796 316 796 422 796 b 447 795 443 796 445 796 b 445 682 458 759 457 717 z m 266 1108 b 295 1119 277 1109 287 1115 b 519 1237 329 1137 491 1213 b 435 1430 599 1308 542 1439 b 212 1242 374 1426 256 1284 b 181 1193 198 1228 186 1211 b 266 1108 170 1143 215 1097 z "},"Ř":{"ha":726,"x_min":0,"x_max":0,"o":"m 682 191 b 587 506 673 231 600 466 b 654 601 617 531 640 565 b 677 691 666 629 670 661 b 679 772 684 717 682 746 b 619 942 672 831 656 894 b 466 1019 583 985 524 1016 b 292 1020 442 1020 316 1022 b 235 1012 273 1019 253 1018 b 222 1016 232 1012 225 1015 b 134 1018 210 1019 148 1018 b 76 1003 114 1018 93 1013 b 33 959 58 992 44 975 b 20 901 23 942 22 921 b 71 811 19 874 49 827 b 64 713 65 779 64 747 b 64 193 64 541 64 367 b 34 148 51 180 40 165 b 86 13 16 97 39 39 b 207 -1 121 -5 166 -1 b 264 15 227 1 248 5 b 308 60 283 26 297 43 b 320 117 318 77 320 98 b 288 190 322 144 306 171 b 288 457 288 280 288 368 b 367 455 298 455 357 455 b 369 450 369 455 369 452 b 451 186 398 361 424 274 b 433 161 444 178 437 169 b 480 15 409 109 431 41 b 601 1 517 -5 560 1 b 660 16 622 1 642 6 b 703 61 677 26 692 43 b 716 112 712 75 713 95 b 682 191 717 140 702 171 z m 445 682 b 288 679 426 679 308 681 b 298 796 288 719 287 759 b 440 796 316 796 422 796 b 447 795 443 796 445 796 b 445 682 458 759 457 717 z m 292 1092 b 417 1061 321 1058 373 1045 b 464 1097 435 1069 450 1082 b 586 1232 505 1142 546 1187 b 612 1305 603 1251 613 1279 b 536 1408 612 1351 579 1394 b 480 1413 518 1415 498 1415 b 427 1389 460 1411 443 1400 b 371 1327 417 1380 379 1335 b 307 1386 349 1347 328 1366 b 216 1410 285 1408 247 1414 b 171 1390 199 1408 184 1400 b 141 1241 124 1355 111 1292 b 292 1092 156 1216 271 1115 z "},"ř":{"ha":726,"x_min":0,"x_max":0,"o":"m 682 191 b 587 506 673 231 600 466 b 654 601 617 531 640 565 b 677 691 666 629 670 661 b 679 772 684 718 682 746 b 619 942 672 831 656 894 b 466 1019 583 985 524 1016 b 292 1020 442 1020 316 1022 b 235 1012 273 1019 253 1018 b 222 1016 232 1012 225 1015 b 134 1018 210 1019 148 1018 b 76 1003 114 1018 93 1013 b 33 959 58 992 44 975 b 20 901 23 942 22 921 b 71 811 19 874 49 827 b 64 713 65 779 64 747 b 64 193 64 541 64 367 b 34 148 51 180 40 165 b 86 13 16 97 39 39 b 207 -1 121 -5 166 -1 b 264 15 227 1 248 5 b 308 60 283 26 297 43 b 320 117 318 77 320 98 b 288 190 322 144 306 171 b 288 457 288 280 288 368 b 367 455 298 455 357 455 b 369 450 369 455 369 452 b 451 186 398 361 424 274 b 433 161 444 178 437 169 b 480 15 409 109 431 41 b 601 1 517 -5 560 1 b 660 16 622 1 642 6 b 703 61 677 26 692 43 b 716 112 712 75 713 95 b 682 191 717 140 702 171 z m 445 682 b 288 679 426 679 308 681 b 298 796 288 719 287 759 b 440 796 316 796 422 796 b 447 795 443 796 445 796 b 445 682 458 759 457 717 z m 292 1092 b 417 1061 321 1058 373 1045 b 464 1097 435 1069 450 1082 b 586 1232 505 1142 546 1187 b 612 1305 603 1251 613 1279 b 536 1408 612 1351 579 1394 b 480 1413 518 1415 498 1415 b 427 1389 460 1411 443 1400 b 371 1327 417 1380 379 1335 b 307 1386 349 1347 328 1366 b 216 1410 285 1408 247 1414 b 171 1390 199 1408 184 1400 b 141 1241 124 1355 111 1292 b 292 1092 156 1216 271 1115 z "},"Ś":{"ha":674,"x_min":0,"x_max":0,"o":"m 234 1108 b 263 1119 245 1109 255 1115 b 487 1237 297 1137 459 1213 b 403 1430 567 1308 510 1439 b 180 1242 341 1426 224 1284 b 149 1193 166 1228 154 1211 b 234 1108 138 1143 183 1097 z m 572 627 b 523 632 556 632 540 632 b 252 632 433 632 343 632 b 254 747 252 648 252 733 b 263 799 254 766 258 782 b 413 799 282 799 394 801 b 423 739 419 780 416 757 b 575 676 446 677 516 648 b 641 780 617 694 641 733 b 607 914 639 826 629 874 b 528 994 589 946 561 976 b 413 1024 495 1014 453 1021 b 231 1022 387 1025 256 1025 b 120 976 192 1017 151 1001 b 59 890 94 953 73 923 b 28 746 38 845 31 795 b 28 536 28 719 28 562 b 33 482 28 517 28 499 b 140 408 50 437 92 408 b 420 408 234 408 328 408 b 420 291 420 369 420 329 b 411 231 420 270 418 249 b 403 228 411 228 405 228 b 266 228 357 230 312 230 b 260 231 265 228 262 228 b 246 297 249 251 253 276 b 199 356 238 321 218 341 b 143 371 182 367 161 370 b 87 357 123 373 103 364 b 36 298 63 346 47 322 b 31 232 26 279 29 255 b 117 56 36 167 67 99 b 224 8 147 31 185 11 b 391 4 280 3 335 3 b 540 43 443 5 496 15 b 617 141 575 66 601 104 b 645 290 636 188 645 240 b 645 520 645 366 645 443 b 572 627 645 568 615 610 z "},"ś":{"ha":674,"x_min":0,"x_max":0,"o":"m 234 1108 b 263 1119 245 1109 255 1115 b 487 1237 297 1137 459 1213 b 403 1430 567 1308 510 1439 b 180 1242 341 1426 224 1284 b 149 1193 166 1228 154 1211 b 234 1108 138 1143 183 1097 z m 572 627 b 523 632 556 632 540 632 b 252 632 433 632 343 632 b 254 747 252 648 252 733 b 263 799 254 766 258 782 b 413 799 282 799 394 801 b 423 739 419 780 416 757 b 575 676 446 677 516 648 b 641 780 617 694 641 733 b 607 914 639 826 629 874 b 528 994 589 946 561 976 b 413 1024 495 1014 453 1021 b 231 1022 387 1025 256 1025 b 120 976 192 1017 151 1001 b 59 890 94 953 73 923 b 28 746 38 845 31 795 b 28 536 28 719 28 562 b 33 482 28 517 28 499 b 140 408 50 437 92 408 b 420 408 234 408 328 408 b 420 291 420 369 420 329 b 411 231 420 270 418 249 b 403 228 411 228 405 228 b 266 228 357 230 312 230 b 260 231 265 228 262 228 b 246 297 249 251 253 276 b 199 356 238 321 218 341 b 143 371 182 367 161 370 b 87 357 123 373 103 364 b 36 298 63 346 47 322 b 31 233 26 279 29 255 b 117 56 36 167 67 99 b 224 8 147 31 185 11 b 391 4 280 3 335 3 b 540 43 443 5 496 15 b 617 141 575 66 601 104 b 645 290 636 188 645 240 b 645 520 645 366 645 443 b 572 627 645 568 615 610 z "},"Š":{"ha":674,"x_min":0,"x_max":0,"o":"m 282 1090 b 333 1064 296 1076 315 1070 b 409 1074 359 1057 387 1064 b 444 1104 423 1081 434 1094 b 580 1234 462 1120 565 1216 b 537 1412 632 1293 610 1384 b 425 1394 502 1426 453 1420 b 363 1335 403 1374 383 1355 b 308 1394 345 1355 326 1374 b 256 1420 294 1408 274 1415 b 129 1350 206 1434 147 1399 b 147 1240 115 1315 120 1267 b 282 1090 164 1220 265 1108 z m 572 627 b 523 632 556 632 540 632 b 252 632 433 632 343 632 b 254 747 252 648 252 733 b 263 799 254 766 258 782 b 413 799 282 799 394 801 b 423 739 419 780 416 757 b 575 676 446 677 516 648 b 641 780 617 694 641 733 b 607 914 639 826 629 874 b 528 994 589 946 561 976 b 413 1024 495 1014 453 1021 b 231 1022 387 1025 256 1025 b 120 976 192 1017 151 1001 b 59 890 94 953 73 923 b 28 746 38 845 31 795 b 28 536 28 719 28 562 b 33 482 28 517 28 499 b 140 408 50 437 92 408 b 420 408 234 408 328 408 b 420 291 420 369 420 329 b 411 231 420 270 418 249 b 403 228 411 228 405 228 b 266 228 357 230 312 230 b 260 231 265 228 262 228 b 246 297 249 251 253 276 b 199 356 238 321 218 341 b 143 371 182 367 161 370 b 87 357 123 373 103 364 b 36 298 63 346 47 322 b 31 232 26 279 29 255 b 117 56 36 167 67 99 b 224 8 147 31 185 11 b 391 4 280 3 335 3 b 540 43 443 5 496 15 b 617 141 575 66 601 104 b 645 290 636 188 645 240 b 645 520 645 366 645 443 b 572 627 645 568 615 610 z "},"š":{"ha":674,"x_min":0,"x_max":0,"o":"m 572 627 b 523 632 556 632 540 632 b 252 632 433 632 343 632 b 254 747 252 648 252 733 b 263 799 254 766 258 782 b 413 799 282 799 394 801 b 423 739 419 780 416 757 b 575 676 446 677 516 648 b 641 780 617 694 641 733 b 607 914 639 826 629 874 b 528 994 589 946 561 976 b 413 1024 495 1014 453 1021 b 231 1022 387 1025 256 1025 b 120 976 192 1017 151 1001 b 59 890 94 953 73 923 b 28 746 38 845 31 795 b 28 536 28 719 28 562 b 33 482 28 517 28 499 b 140 408 50 437 92 408 b 420 408 234 408 328 408 b 420 291 420 369 420 329 b 411 231 420 270 418 249 b 403 228 411 228 405 228 b 266 228 357 230 312 230 b 260 231 265 228 262 228 b 246 297 249 251 253 276 b 199 356 238 321 218 341 b 143 371 182 367 161 370 b 87 357 123 373 103 364 b 36 298 63 346 47 322 b 31 233 26 279 29 255 b 117 56 36 167 67 99 b 224 8 147 31 185 11 b 391 4 280 3 335 3 b 540 43 443 5 496 15 b 617 141 575 66 601 104 b 645 290 636 188 645 240 b 645 520 645 366 645 443 b 572 627 645 568 615 610 z m 282 1090 b 333 1064 296 1076 315 1070 b 409 1074 359 1057 387 1064 b 444 1104 423 1081 434 1094 b 580 1234 462 1120 565 1216 b 537 1412 632 1293 610 1384 b 425 1394 502 1426 453 1420 b 363 1335 403 1374 383 1355 b 308 1394 345 1355 326 1374 b 256 1420 294 1408 274 1415 b 129 1350 206 1434 147 1399 b 147 1240 115 1315 120 1267 b 282 1090 164 1220 265 1108 z "},"Ū":{"ha":729,"x_min":0,"x_max":0,"o":"m 118 1076 b 616 1076 284 1076 450 1076 b 705 1149 655 1076 691 1106 b 616 1301 727 1224 682 1301 b 118 1301 450 1301 285 1301 b 29 1226 78 1301 42 1271 b 118 1076 7 1153 53 1076 z m 699 961 b 633 1015 685 984 660 1005 b 567 1021 612 1022 590 1019 b 472 1004 535 1022 500 1019 b 419 924 444 987 426 955 b 453 829 413 890 429 853 b 453 289 453 648 453 468 b 443 227 453 268 450 247 b 434 224 441 224 437 224 b 294 224 417 224 312 226 b 284 289 287 245 284 266 b 284 830 284 468 284 649 b 315 886 298 847 311 865 b 221 1019 329 949 284 1008 b 116 1019 204 1022 133 1022 b 25 925 68 1008 33 973 b 60 827 18 892 35 853 b 60 308 60 655 60 481 b 68 205 60 273 62 238 b 31 151 52 191 38 172 b 26 94 24 133 22 112 b 67 26 32 68 47 45 b 115 5 81 15 98 10 b 235 8 137 0 213 1 b 488 5 279 -3 444 -3 b 585 49 523 11 556 26 b 646 130 611 70 632 99 b 677 300 668 182 677 242 b 677 827 677 364 677 763 b 711 892 694 845 706 868 b 699 961 713 906 706 947 z "},"ū":{"ha":729,"x_min":0,"x_max":0,"o":"m 118 1076 b 616 1076 284 1076 450 1076 b 705 1149 655 1076 691 1106 b 616 1301 727 1224 682 1301 b 118 1301 450 1301 285 1301 b 29 1226 78 1301 42 1271 b 118 1076 7 1153 53 1076 z m 699 961 b 633 1015 685 984 660 1005 b 567 1021 612 1022 590 1020 b 472 1004 535 1022 500 1020 b 419 924 444 987 426 955 b 453 829 413 890 429 853 b 453 289 453 648 453 468 b 443 227 453 268 450 247 b 434 224 441 224 437 224 b 294 224 417 224 312 226 b 284 289 287 245 284 266 b 284 830 284 468 284 649 b 315 886 298 847 311 865 b 221 1019 329 949 284 1008 b 116 1019 204 1022 133 1022 b 25 926 68 1008 33 973 b 60 827 18 892 35 853 b 60 308 60 655 60 481 b 68 205 60 273 62 238 b 31 151 52 191 38 172 b 26 94 24 133 22 112 b 67 26 32 68 47 45 b 115 5 81 15 98 10 b 235 8 137 0 213 1 b 488 5 279 -3 444 -3 b 585 49 523 11 556 26 b 646 130 611 70 632 99 b 677 300 668 182 677 242 b 677 827 677 364 677 763 b 711 892 694 845 706 868 b 699 961 713 906 706 947 z "},"Ů":{"ha":729,"x_min":0,"x_max":0,"o":"m 227 1054 b 319 1018 250 1032 287 1021 b 420 1019 333 1018 407 1018 b 517 1066 457 1019 494 1038 b 552 1172 541 1095 551 1134 b 552 1303 553 1189 552 1286 b 534 1370 552 1315 539 1359 b 419 1446 511 1416 469 1444 b 318 1446 406 1446 332 1447 b 229 1412 287 1444 253 1434 b 185 1319 204 1390 190 1353 b 183 1168 180 1297 182 1190 b 227 1054 186 1127 198 1084 z m 322 1318 b 406 1320 333 1320 395 1318 b 410 1317 407 1320 410 1320 b 417 1231 420 1290 417 1259 b 412 1146 417 1202 421 1172 b 327 1146 400 1144 339 1146 b 319 1161 320 1144 320 1154 b 316 1233 318 1171 316 1223 b 322 1318 316 1261 312 1291 z m 699 961 b 633 1015 685 984 660 1005 b 567 1021 612 1022 590 1019 b 472 1004 535 1022 500 1019 b 419 924 444 987 426 955 b 453 829 413 890 429 853 b 453 289 453 648 453 468 b 443 227 453 268 450 247 b 434 224 441 224 437 224 b 294 224 417 224 312 226 b 284 289 287 245 284 266 b 284 830 284 468 284 649 b 315 886 298 847 311 865 b 221 1019 329 949 284 1008 b 116 1019 204 1022 133 1022 b 25 925 68 1008 33 973 b 60 827 18 892 35 853 b 60 308 60 655 60 481 b 68 205 60 273 62 238 b 31 151 52 191 38 172 b 26 94 24 133 22 112 b 67 26 32 68 47 45 b 115 5 81 15 98 10 b 235 8 137 0 213 1 b 488 5 279 -3 444 -3 b 585 49 523 11 556 26 b 646 130 611 70 632 99 b 677 300 668 182 677 242 b 677 827 677 364 677 763 b 711 892 694 845 706 868 b 699 961 713 906 706 947 z "},"ů":{"ha":729,"x_min":0,"x_max":0,"o":"m 227 1054 b 319 1018 250 1032 287 1021 b 420 1019 333 1018 407 1018 b 517 1066 457 1019 494 1038 b 552 1172 541 1095 551 1134 b 552 1303 553 1189 552 1286 b 534 1370 552 1315 539 1359 b 419 1446 511 1416 469 1444 b 318 1446 406 1446 332 1447 b 229 1412 287 1444 253 1434 b 185 1319 204 1390 190 1353 b 183 1168 180 1297 182 1190 b 227 1054 186 1127 198 1084 z m 322 1318 b 406 1320 333 1320 395 1318 b 410 1317 407 1320 410 1320 b 417 1231 420 1290 417 1259 b 412 1146 417 1202 421 1172 b 327 1146 400 1144 339 1146 b 319 1161 320 1144 320 1154 b 316 1233 318 1171 316 1223 b 322 1318 316 1261 312 1291 z m 699 961 b 633 1015 685 984 660 1005 b 567 1021 612 1022 590 1020 b 472 1004 535 1022 500 1020 b 419 924 444 987 426 955 b 453 829 413 890 429 853 b 453 289 453 648 453 468 b 443 227 453 268 450 247 b 434 224 441 224 437 224 b 294 224 417 224 312 226 b 284 289 287 245 284 266 b 284 830 284 468 284 649 b 315 886 298 847 311 865 b 221 1019 329 949 284 1008 b 116 1019 204 1022 133 1022 b 25 926 68 1008 33 973 b 60 827 18 892 35 853 b 60 308 60 655 60 481 b 68 205 60 273 62 238 b 31 151 52 191 38 172 b 26 94 24 133 22 112 b 67 26 32 68 47 45 b 115 5 81 15 98 10 b 235 8 137 0 213 1 b 488 5 279 -3 444 -3 b 585 49 523 11 556 26 b 646 130 611 70 632 99 b 677 300 668 182 677 242 b 677 827 677 364 677 763 b 711 892 694 845 706 868 b 699 961 713 906 706 947 z "},"Ű":{"ha":731,"x_min":0,"x_max":0,"o":"m 92 1108 b 121 1119 103 1109 113 1115 b 346 1237 155 1137 318 1213 b 261 1430 426 1308 368 1439 b 38 1242 200 1426 82 1284 b 8 1193 24 1228 12 1211 b 92 1108 -4 1143 41 1097 z m 437 1108 b 466 1119 448 1109 458 1115 b 690 1237 500 1137 662 1213 b 606 1430 770 1308 713 1439 b 383 1242 544 1426 427 1284 b 352 1193 369 1228 357 1211 b 437 1108 341 1143 386 1097 z m 633 1015 b 567 1021 612 1022 590 1019 b 472 1004 535 1022 500 1019 b 419 924 444 987 426 955 b 452 829 413 890 428 853 b 452 289 452 648 452 468 b 442 227 452 268 450 247 b 434 224 441 224 437 224 b 294 224 417 224 312 226 b 284 289 287 245 284 266 b 284 830 284 468 284 649 b 315 886 298 847 311 865 b 221 1019 329 949 284 1008 b 116 1019 204 1022 133 1022 b 25 925 68 1008 33 973 b 60 827 18 892 34 853 b 60 308 60 655 60 481 b 68 205 60 273 61 238 b 30 151 51 191 37 172 b 26 94 23 133 22 112 b 67 26 32 68 47 45 b 114 5 81 15 98 10 b 235 8 137 0 213 1 b 487 5 278 -3 444 -3 b 584 49 522 11 556 26 b 646 130 611 70 632 99 b 677 300 668 182 677 242 b 677 827 677 364 677 763 b 710 892 694 845 706 868 b 699 960 713 906 706 946 b 633 1015 685 984 660 1005 z "},"ű":{"ha":731,"x_min":0,"x_max":0,"o":"m 92 1108 b 121 1119 103 1109 113 1115 b 346 1237 155 1137 318 1213 b 261 1430 426 1308 368 1439 b 38 1242 200 1426 82 1284 b 8 1193 24 1228 12 1211 b 92 1108 -4 1143 41 1097 z m 437 1108 b 466 1119 448 1109 458 1115 b 690 1237 500 1137 662 1213 b 606 1430 770 1308 713 1439 b 383 1242 544 1426 427 1284 b 352 1193 369 1228 357 1211 b 437 1108 341 1143 386 1097 z m 633 1015 b 567 1021 612 1022 590 1020 b 472 1004 535 1022 500 1020 b 419 924 444 987 426 955 b 452 829 413 890 428 853 b 452 289 452 648 452 468 b 442 227 452 268 450 247 b 434 224 441 224 437 224 b 294 224 417 224 312 226 b 284 289 287 245 284 266 b 284 830 284 468 284 649 b 315 886 298 847 311 865 b 221 1019 329 949 284 1008 b 116 1019 204 1022 133 1022 b 25 926 68 1008 33 973 b 60 827 18 892 34 853 b 60 308 60 655 60 481 b 68 205 60 273 61 238 b 30 151 51 191 37 172 b 26 94 23 133 22 112 b 67 26 32 68 47 45 b 114 5 81 15 98 10 b 235 8 137 0 213 1 b 487 5 278 -3 444 -3 b 584 49 522 11 556 26 b 646 130 611 70 632 99 b 677 300 668 182 677 242 b 677 827 677 364 677 763 b 710 892 694 845 706 868 b 699 960 713 906 706 946 b 633 1015 685 984 660 1005 z "}}}
